<svg width="88" height="115" viewBox="0 0 88 115" fill="none" xmlns="http://www.w3.org/2000/svg">
<path d="M19.8208 45.7876L27.2674 63.4704L28.8827 62.5238L19.8208 45.7876Z" fill="#569FAF"/>
<path d="M28.8829 62.524L18 42.4243L36.7505 57.755L28.8829 62.524Z" fill="#72D0ED"/>
<path d="M37.1221 57.528C37.2211 57.4675 38.5241 50.1626 38.5241 50.1626L54.2359 40L56.1678 52.4281L52.9838 58.3591L37.1221 57.528Z" fill="#72D0ED"/>
<path d="M53.0904 75.8104L36.7505 73.9728L44.2032 65.8706L48.2932 67.0952L53.0904 75.8104Z" fill="#569FAF"/>
<path d="M58.5965 47.9055L48.2935 67.0957L53.0907 75.8108L61.4274 51.13L70.0002 52.153L62.0569 46.2544L58.5965 47.9055Z" fill="#72D0ED"/>
<path d="M53.0903 75.8107L64.9468 51.5502L61.4271 51.1299L53.0903 75.8107Z" fill="#569FAF"/>
<path d="M52.9838 58.359L41.4507 54.8848L48.2932 67.0955L52.9838 58.359Z" fill="#61B3C6"/>
<path d="M48.2938 67.0957L30.2835 61.7041L25.1712 64.6988L20.2949 83.2636L43.1031 72.8898L48.2938 67.0957Z" fill="#72D0ED"/>
<path d="M30.2832 61.7039L41.451 54.8848L48.2935 67.0955L30.2832 61.7039Z" fill="#7DE7FF"/>
<path d="M25.1712 64.6982L43.1031 72.8892L20.2949 83.263L25.1712 64.6982Z" fill="#7DE7FF"/>
<path d="M60.4731 47.0098L70.0001 52.153L62.0568 46.2544L60.4731 47.0098Z" fill="#7DE7FF"/>
<path d="M45.5311 56.1143C45.4692 56.0957 54.2359 40 54.2359 40L56.1677 52.4281L52.9838 58.3591L45.5311 56.1143Z" fill="#7DE7FF"/>
<path d="M61.427 51.1296L58.1702 50.3247L61.0197 52.3363L61.427 51.1296Z" fill="#61B3C6"/>
<path d="M23.7495 79.0744L38.8043 64.2549L39.9181 64.6986L23.7495 79.0744Z" fill="#61B3C6"/>
<path d="M38.8037 64.2549L41.4503 54.8848L39.9175 64.6986L38.8037 64.2549Z" fill="#72D0ED"/>
</svg>
