<svg width="88" height="115" viewBox="0 0 88 115" fill="none" xmlns="http://www.w3.org/2000/svg">
<path d="M54.6191 73.5825C54.6191 73.5825 67.0609 84.835 67 84.835C66.9391 84.835 61.5096 84.2771 61.5096 84.2771C61.5096 84.2771 50.1688 76.5973 50.2411 76.307C50.3133 76.0167 54.6191 73.5825 54.6191 73.5825Z" fill="#DDB32A"/>
<path d="M36.136 73.8233C36.136 73.9451 35.9226 85.2617 35.9226 85.2617L32.4771 83.7319L33.1172 73.2969L36.136 73.8233Z" fill="#DDB32A"/>
<path d="M30.1545 39.6376L29.3906 29.749L32.083 35.0247V39.3921L30.1545 39.6376Z" fill="#DDB32A"/>
<path d="M32.9172 29L34.2684 38.8745L31.479 39.3922L32.9172 29Z" fill="#DDB32A"/>
<path d="M21 41.3359L22.0569 46.5969L27.5466 46.7816L27.7212 46.2036L22.489 45.6671L21 41.3359Z" fill="#DDB32A"/>
<path d="M32.9175 39.1253C33.1215 39.0872 32.9175 29 32.9175 29L35.8875 38.5741L32.9175 39.1253Z" fill="#FFE02C"/>
<path d="M21.9526 65.3442L28.4491 43.7878L34.9456 41.1182L37.4895 56.3654L34.9456 55.7346L21.9526 65.3442Z" fill="#FFE02C"/>
<path d="M29.8706 72.605L21.9526 65.344L34.9456 55.7344L29.8706 72.605Z" fill="#F2CC2F"/>
<path d="M34.9453 55.7344L33.7948 86.4569L27.4341 80.7049L34.9453 55.7344Z" fill="#FFE02C"/>
<path d="M34.9455 55.7344L58.0892 61.4757L59.916 70.4792L34.2686 74.9529L34.9455 55.7344Z" fill="#F2CC2F"/>
<path d="M35.8873 38.5742L21 41.3362L22.489 45.6674L31.5568 46.5972L35.8873 40.6666V38.5742Z" fill="#F2CC2F"/>
<path d="M58.0893 61.4756L46.7827 71.0959L47.5272 79.8928L65.6628 86.4568L54.4297 75.494L59.9162 70.4791L58.0893 61.4756Z" fill="#FFE02C"/>
<path d="M33.7949 86.457L34.4404 85.9634L34.8551 58.3052L33.7949 86.457Z" fill="#DDB32A"/>
<path d="M54.4298 75.4943L48.1641 71.0962L55.3642 74.6401L54.4298 75.4943Z" fill="#F2CC2F"/>
<path d="M28.4438 46.278C28.6091 46.2947 32.4212 47.8058 32.4212 47.8058L35.3551 43.5696L35.0594 41.8003L31.4794 46.3777L28.4438 46.278Z" fill="#DDB32A"/>
<path d="M35.0591 41.8003L37.9628 56.4829L37.2377 56.303L35.0591 41.8003Z" fill="#DDB32A"/>
</svg>
