<svg width="88" height="115" viewBox="0 0 88 115" fill="none" xmlns="http://www.w3.org/2000/svg">
<path d="M46.0642 2.14655C53.5742 2.8677 60.1788 6.38331 66.6235 13.072C71.3106 17.9578 74.897 23.2762 78.2702 30.3796C82.1939 38.6548 84.7328 47.8494 85.7092 57.2604C86.0998 61.0825 86.0998 67.8794 85.6915 71.2868C85.1766 75.7399 84.3422 79.6341 83.0994 83.312C77.5068 100.043 64.2977 111.184 48.0172 112.861C45.3008 113.15 39.868 112.969 37.2936 112.501C32.1449 111.581 27.9194 110.013 23.6762 107.452C15.8999 102.765 10.2185 96.0943 6.36589 87.0619C2.70183 78.5181 1.35171 68.5095 2.28666 58" stroke="#BAA9FF" stroke-width="3" stroke-linecap="round"/>
<path d="M46.0642 2.14656C53.5742 2.86771 60.1788 6.38332 66.6235 13.072C71.3106 17.9578 74.897 23.2763 78.2702 30.3796C82.1939 38.6548 84.7328 47.8494 85.7092 57.2604C86.0998 61.0825 86.0998 67.8794 85.6915 71.2868C85.1766 75.7399 84.3422 79.6341 83.0994 83.312C77.5068 100.043 64.2977 111.184 48.0172 112.861C47.4472 112.922 46.7576 112.962 46 112.982" stroke="#BAA9FF" stroke-width="3" stroke-linecap="round"/>
<path d="M46.0642 2.14656C53.5742 2.86771 60.1788 6.38332 66.6235 13.072C71.3106 17.9578 74.897 23.2763 78.2703 30.3796C81.9489 38.138 84.4103 46.7046 85.5081 55.5" stroke="#BAA9FF" stroke-width="3" stroke-linecap="round"/>
<path d="M41.7499 2.16458C31.3637 3.24631 21.4569 10.6922 13.6628 23.2943C11.8874 26.1789 8.79821 32.3808 7.60868 35.4997C0.595786 53.7629 0.134178 72.5308 6.36589 87.0619C10.2185 96.0943 15.8999 102.765 23.6762 107.452C27.9194 110.013 32.1449 111.581 37.2936 112.501C39.868 112.969 45.3008 113.15 48.0172 112.861C64.2977 111.184 77.5068 100.043 83.0994 83.312C84.3422 79.6341 85.1766 75.7399 85.6915 71.2868C86.0998 67.8794 86.0998 61.0825 85.7092 57.2604C84.7328 47.8494 82.1939 38.6548 78.2702 30.3796C74.8969 23.2762 71.3106 17.9578 66.6235 13.072C60.1788 6.38331 53.5742 2.8677 46.0642 2.14655C43.9515 1.94824 43.8982 1.94824 41.7499 2.16458Z" stroke="#575A5D" stroke-width="3"/>
<path d="M42.0714 8.14679C33.1689 9.11157 24.6774 15.7525 17.9967 26.9922C16.4749 29.5649 13.827 35.0964 12.8074 37.8781C6.79639 54.1669 6.40072 70.9058 11.7422 83.8661C15.0445 91.922 19.9142 97.8715 26.5796 102.052C30.2167 104.336 33.8385 105.734 38.2517 106.555C40.4583 106.973 45.1149 107.133 47.4433 106.876C61.398 105.381 72.7201 95.4434 77.5137 80.5215C78.579 77.2412 79.2942 73.768 79.7355 69.7963C80.0856 66.7573 80.0856 60.6952 79.7508 57.2863C78.9138 48.8927 76.7376 40.6921 73.3745 33.3115C70.4831 26.9761 67.4091 22.2326 63.3916 17.875C57.8675 11.9094 52.2065 8.7739 45.7693 8.13071C43.9584 7.95383 43.9127 7.95383 42.0714 8.14679Z" fill="#575A5D"/>
<path fill-rule="evenodd" clip-rule="evenodd" d="M13.0234 86.7253C15.2285 89.1738 17.7417 91.2754 20.5807 93.056C24.2177 95.3393 27.8396 96.7383 32.2528 97.5583C34.4593 97.9764 39.116 98.1372 41.4443 97.8799C55.3991 96.3845 66.7212 86.4473 71.5148 71.5253C72.5801 68.2451 73.2953 64.7718 73.7366 60.8002C74.0866 57.7611 74.0866 51.699 73.7518 48.2902C72.9148 39.8966 70.7387 31.6959 67.3755 24.3153C66.6768 22.7844 65.9675 21.3464 65.2367 19.9844C68.3807 23.7789 70.9423 27.982 73.3748 33.3118C76.7379 40.6924 78.9141 48.893 79.7511 57.2866C80.0859 60.6955 80.0859 66.7576 79.7358 69.7966C79.2945 73.7683 78.5793 77.2415 77.514 80.5218C72.7204 95.4437 61.3983 105.381 47.4436 106.876C45.1152 107.134 40.4586 106.973 38.252 106.555C33.8388 105.735 30.217 104.336 26.5799 102.052C20.7288 98.3825 16.2615 93.3496 13.0234 86.7253Z" fill="#42464A"/>
<path d="M50.9355 95.5037C50.9355 97.1037 43.6022 103.667 39.9355 106.5C44.7355 110.503 54.2689 106.338 58.4355 104.004C55.9355 100.504 50.9355 93.9037 50.9355 95.5037Z" fill="#42464A"/>
<path d="M37.9356 80.0034C35.9356 78.4034 35.7689 80.6701 35.9356 82.0034C35.7689 83.8356 35.4355 87.9 35.4355 89.5C35.4355 91.5 44.9355 95 46.4355 95C47.9355 95 46.9355 86.5 46.4355 85C45.9355 83.5 40.4356 82.0034 37.9356 80.0034Z" fill="#42464A"/>
<path d="M12.9361 60.9991C12.5361 58.1991 9.10278 59.8325 7.43611 60.9991C4.93611 75.4983 15 90.5 16.5 92C18 93.5 17.4361 89.5 17.4361 87C17.4361 84.5 11.9361 75.5 11.9361 73.5C11.9361 71.5 13.4361 64.4991 12.9361 60.9991Z" fill="#42464A"/>
<path d="M27.4355 91.5C24.6355 91.5 22.9355 95.8333 22.4355 98C24.4355 104.5 34.9355 106.5 36.9355 106C38.9355 105.5 39.9355 98 39.4355 96C38.9355 94 30.9355 91.5 27.4355 91.5Z" fill="#42464A"/>
<path d="M24.936 17.997C26.936 17.597 31.4353 24.3365 32.9353 27.5031C32.9353 30.8356 31.8353 38.0004 27.4356 40.0004C23.0358 42.0004 15.7688 38.8368 13.4353 38.0034C13.4347 29.5034 22.436 18.497 24.936 17.997Z" fill="#42464A"/>
<path d="M48.9355 15.5038C48.5355 17.1038 40.1022 20.8371 35.9355 22.5038C31.9355 21.5074 30.9355 13.5002 30.9355 13.0002C30.9355 12.5002 34.9355 8.9993 38.4355 8.50381C41.0923 8.1277 46.4355 7.67451 48.9355 8.50785C49.1022 9.84118 49.3355 13.9038 48.9355 15.5038Z" fill="#42464A"/>
<path d="M52.936 20C52.136 18.8 53.6015 13 53.9348 10.5C73.4351 16 68.9357 31.5 68.9357 32.5C68.9357 33.5 66.9357 34.5 65.9357 35C64.9357 35.5 53.936 21.5 52.936 20Z" fill="#42464A"/>
<path d="M47.4355 21.5018C49.4355 20.7018 49.9355 22.5018 49.9355 22.5018C49.9355 22.5018 55.4355 31.5001 55.4355 33.0001C55.4355 34.5001 45.9355 40.5001 40.9355 39.5001C35.9355 38.5001 38.4355 27.5001 38.4355 25.5001C38.4355 23.5001 44.9355 22.5018 47.4355 21.5018Z" fill="#42464A"/>
<path d="M56.9355 36.9964C58.1355 36.1964 66.4355 36.6631 70.4355 36.9964C74.4355 38.4928 73.4355 54.5 73.4355 56C73.4355 57.5 70.4355 57.5 65.4355 57.5C60.4355 57.5 49.9355 46 49.9355 44.5C49.9355 43 55.4355 37.9964 56.9355 36.9964Z" fill="#42464A"/>
<path d="M13.4355 43C12.6355 43 11.7689 43.3333 11.4355 43.5C9.93555 44.5 8.93555 53 8.93555 54.5C8.93555 56 12.4355 57.5 13.4355 58C14.4355 58.5 21.4355 49.5 21.9355 46.5C22.4355 43.5 14.4355 43 13.4355 43Z" fill="#42464A"/>
<path d="M30.4355 42C27.6355 42 25.2689 46.6667 24.4355 49C24.4355 54 32.4355 65 33.4355 66C34.4355 67 42.4355 67 45.9355 64C49.4355 61 45.4355 45 43.9355 43C42.4355 41 33.9355 42 30.4355 42Z" fill="#42464A"/>
<path d="M64.4362 63.0015C64.4362 60.2015 56.4362 56.8348 52.4362 55.5015C51.4368 55.155 49.9355 58.5015 49.9355 60.5015C49.9355 62.5015 45.9362 67.5015 44.4362 69.0015C42.9362 70.5015 39.9362 70.5015 41.4362 74.5015C42.9362 78.5015 49.9362 79.0015 55.9362 76.5015C61.9362 74.0015 64.4362 66.5015 64.4362 63.0015Z" fill="#42464A"/>
<path d="M76.4355 54.9967C76.0355 53.7967 75.2689 44.8301 74.9355 40.4967C74.9355 39.6967 75.9355 39.1663 76.4355 39.4997C77.9355 39.9997 80.9355 57.4967 80.9355 58.4967C80.9355 59.4967 76.9355 56.4967 76.4355 54.9967Z" fill="#42464A"/>
<path d="M73.9365 84.4962C74.7365 86.4962 74.6032 88.3295 74.4365 88.9962C81.9365 81.4924 80.4355 66.5 80.4355 65.5V62.4962C80.4355 61.4962 76.4355 57.4962 74.4365 57.9962C72.4375 58.4962 67.9365 64.9962 66.9365 65.9962C65.9365 66.9962 68.9365 75.4962 68.9365 76.9962C68.9365 78.4962 72.9365 81.9962 73.9365 84.4962Z" fill="#42464A"/>
<path d="M61.9361 77C60.3361 77 54.2694 82.6667 51.4361 85.5C50.9361 90 59.9361 102 61.9361 102C63.9361 102 71.4361 94 72.4361 91.5C73.2361 89.5 72.7694 85.6667 72.4361 84C69.6027 81.6667 63.5361 77 61.9361 77Z" fill="#42464A"/>
<path d="M34.4355 71.5C28.8355 69.9 23.1022 58.8333 20.9355 53.5C18.4355 53.5 14.4355 65 14.4355 68.5C14.4355 72 19.9355 86.5 20.9355 87.5C21.9355 88.5 25.4355 87.5 26.9355 87.5C28.4355 87.5 30.4355 83 32.4355 79.5C34.0355 76.7 34.4355 73 34.4355 71.5Z" fill="#42464A"/>
<mask id="mask0_1142_65595" style="mask-type:alpha" maskUnits="userSpaceOnUse" x="7" y="8" width="74" height="101">
<path d="M50.9356 95.5038C50.9356 97.1038 43.6023 103.667 39.9356 106.5C44.7356 110.503 54.269 106.338 58.4356 104.004C55.9356 100.504 50.9356 93.9038 50.9356 95.5038Z" fill="#42464A"/>
<path d="M37.9356 80.0036C35.9356 78.4036 35.769 80.6703 35.9356 82.0036C35.769 83.8358 35.4356 87.9002 35.4356 89.5002C35.4356 91.5002 44.9356 95.0002 46.4356 95.0002C47.9356 95.0002 46.9356 86.5002 46.4356 85.0002C45.9356 83.5002 40.4356 82.0036 37.9356 80.0036Z" fill="#42464A"/>
<path d="M12.9361 60.9993C12.5361 58.1993 9.10279 59.8327 7.43612 60.9993C4.93612 75.4985 15 90.5002 16.5 92.0002C18 93.5002 17.4361 89.5002 17.4361 87.0002C17.4361 84.5002 11.9361 75.5002 11.9361 73.5002C11.9361 71.5002 13.4361 64.4993 12.9361 60.9993Z" fill="#42464A"/>
<path d="M27.4356 91.5002C24.6356 91.5002 22.9356 95.8335 22.4356 98.0002C24.4356 104.5 34.9356 106.5 36.9356 106C38.9356 105.5 39.9356 98.0002 39.4356 96.0002C38.9356 94.0002 30.9356 91.5002 27.4356 91.5002Z" fill="#42464A"/>
<path d="M24.936 17.9968C26.936 17.5968 31.4354 24.3363 32.9354 27.5029C32.9354 30.8353 31.8354 38.0002 27.4356 40.0002C23.0358 42.0002 15.7689 38.8365 13.4354 38.0032C13.4348 29.5032 22.436 18.4968 24.936 17.9968Z" fill="#42464A"/>
<path d="M48.9356 15.5038C48.5356 17.1038 40.1023 20.8371 35.9356 22.5038C31.9356 21.5074 30.9356 13.5002 30.9356 13.0002C30.9356 12.5002 34.9356 8.9993 38.4356 8.50381C41.0924 8.1277 46.4356 7.67451 48.9356 8.50785C49.1023 9.84118 49.3356 13.9038 48.9356 15.5038Z" fill="#42464A"/>
<path d="M47.4356 21.502C49.4356 20.702 49.9356 22.502 49.9356 22.502C49.9356 22.502 55.4356 31.5003 55.4356 33.0003C55.4356 34.5003 45.9356 40.5003 40.9356 39.5003C35.9356 38.5003 38.4356 27.5003 38.4356 25.5003C38.4356 23.5003 44.9356 22.502 47.4356 21.502Z" fill="#42464A"/>
<path d="M56.9356 36.9966C58.1356 36.1966 66.4356 36.6632 70.4356 36.9966C74.4356 38.493 73.4356 54.5002 73.4356 56.0002C73.4356 57.5002 70.4356 57.5002 65.4356 57.5002C60.4356 57.5002 49.9356 46.0002 49.9356 44.5002C49.9356 43.0002 55.4356 37.9966 56.9356 36.9966Z" fill="#42464A"/>
<path d="M13.4356 43.0002C12.6356 43.0002 11.769 43.3335 11.4356 43.5002C9.93562 44.5002 8.93562 53.0002 8.93562 54.5002C8.93562 56.0002 12.4356 57.5002 13.4356 58.0002C14.4356 58.5002 21.4356 49.5002 21.9356 46.5002C22.4356 43.5002 14.4356 43.0002 13.4356 43.0002Z" fill="#42464A"/>
<path d="M30.4356 42.0002C27.6356 42.0002 25.269 46.6668 24.4356 49.0002C24.4356 54.0002 32.4356 65.0002 33.4356 66.0002C34.4356 67.0002 42.4356 67.0002 45.9356 64.0002C49.4356 61.0002 45.4356 45.0002 43.9356 43.0002C42.4356 41.0002 33.9356 42.0002 30.4356 42.0002Z" fill="#42464A"/>
<path d="M64.4362 63.0017C64.4362 60.2017 56.4362 56.835 52.4362 55.5017C51.4368 55.1552 49.9356 58.5017 49.9356 60.5017C49.9356 62.5017 45.9362 67.5017 44.4362 69.0017C42.9362 70.5017 39.9362 70.5017 41.4362 74.5017C42.9362 78.5017 49.9362 79.0017 55.9362 76.5017C61.9362 74.0017 64.4362 66.5017 64.4362 63.0017Z" fill="#42464A"/>
<path d="M76.4356 54.9966C76.0356 53.7966 75.269 44.8299 74.9356 40.4966C74.9356 39.6966 75.9356 39.1662 76.4356 39.4995C77.9356 39.9995 80.9356 57.4966 80.9356 58.4966C80.9356 59.4966 76.9356 56.4966 76.4356 54.9966Z" fill="#42464A"/>
<path d="M73.9366 84.4964C74.7366 86.4964 74.6032 88.3297 74.4366 88.9964C81.9366 81.4925 80.4356 66.5002 80.4356 65.5002V62.4964C80.4356 61.4964 76.4356 57.4964 74.4366 57.9964C72.4375 58.4964 67.9366 64.9964 66.9366 65.9964C65.9366 66.9964 68.9366 75.4964 68.9366 76.9964C68.9366 78.4964 72.9366 81.9964 73.9366 84.4964Z" fill="#42464A"/>
<path d="M61.9361 77.0002C60.3361 77.0002 54.2695 82.6668 51.4361 85.5002C50.9361 90.0002 59.9361 102 61.9361 102C63.9361 102 71.4361 94.0002 72.4361 91.5002C73.2361 89.5002 72.7695 85.6668 72.4361 84.0002C69.6028 81.6668 63.5361 77.0002 61.9361 77.0002Z" fill="#42464A"/>
<path d="M34.4356 71.5002C28.8356 69.9002 23.1023 58.8335 20.9356 53.5002C18.4356 53.5002 14.4356 65.0002 14.4356 68.5002C14.4356 72.0002 19.9356 86.5002 20.9356 87.5002C21.9356 88.5002 25.4356 87.5002 26.9356 87.5002C28.4356 87.5002 30.4356 83.0002 32.4356 79.5002C34.0356 76.7002 34.4356 73.0002 34.4356 71.5002Z" fill="#42464A"/>
</mask>
<g mask="url(#mask0_1142_65595)">
<g style="mix-blend-mode:multiply">
<path fill-rule="evenodd" clip-rule="evenodd" d="M12.3958 85.2601C15.0519 88.7989 18.2373 91.7159 21.9928 94.0714C25.6298 96.3547 29.2517 97.7537 33.6649 98.5737C35.8715 98.9918 40.5281 99.1526 42.8565 98.8953C56.8112 97.3999 68.1333 87.4627 72.9269 72.5407C73.9922 69.2605 74.7074 65.7872 75.1487 61.8156C75.4987 58.7765 75.4987 52.7145 75.164 49.3056C74.327 40.912 72.1508 32.7113 68.7877 25.3307C68.1848 24.0097 67.574 22.758 66.9483 21.5645C69.9179 25.2072 72.3767 29.2509 74.7175 34.3096C78.1274 41.6902 80.3337 49.8908 81.1824 58.2844C81.5218 61.6933 81.5218 67.7554 81.1669 70.7944C80.7195 74.7661 79.9943 78.2393 78.9143 81.5196C74.0541 96.4416 62.5747 106.379 48.4261 107.874C46.0655 108.131 41.3441 107.971 39.1069 107.553C34.6324 106.733 30.9603 105.334 27.2727 103.05C20.6259 98.9384 15.7403 93.1154 12.3958 85.2601Z" fill="#AEB2B7"/>
</g>
</g>
<path d="M14 33.5L12 38L16.5 36L18 41.5L26 38.5C26.5 40 27.6 43.4 28 45C28.4 46.6 26.8333 51.6667 26 54H29L31 67L31.5 51H29C29 49.4 30.6667 46.3333 31.5 45L33 46L39.5 33.5L33 43.5L31 42.5L30 44V39C30 38.2 28 35 27 33.5C27 35.5 22.6667 37.6667 20.5 38.5L20 30L14 33.5Z" fill="#1A1C1F"/>
<path d="M77 39L73.5 33L67.5 30.5C67.5 31.7 66.5 37.6667 66 40.5C63.6 40.5 59.6667 41.5 58 42L57 47.5L51.5 46.5L51 49.5L45 49L42 52.5L45 50.5L51 52.5L52.5 49C53.3 49 55.5 50.6667 56.5 51.5C56.5 52.7 55.1667 57.6667 54.5 60C50.1 57.6 43 56 40 55.5V63C40 61.8 41 59.1667 41.5 58C43.5 57.6 51.6667 62.1667 55.5 64.5C57.9 58.5 59.5 48.6667 60 44.5H63.5L61.5 49L66 52.5L64.5 66.5L67.5 51.5L64.5 47.5L66.5 44.5L70 44V35L77 39Z" fill="#1A1C1F"/>
</svg>
