<svg width="88" height="56" viewBox="0 0 88 56" fill="none" xmlns="http://www.w3.org/2000/svg">
<path d="M11.7294 22.8V34H10.0174L3.84144 26.416V34H1.77744V22.8H3.48944L9.66544 30.384V22.8H11.7294ZM22.5706 29.776C22.5706 29.9147 22.5599 30.112 22.5386 30.368H15.8346C15.9519 30.9973 16.2559 31.4987 16.7466 31.872C17.2479 32.2347 17.8666 32.416 18.6026 32.416C19.5412 32.416 20.3146 32.1067 20.9226 31.488L21.9946 32.72C21.6106 33.1787 21.1252 33.5253 20.5386 33.76C19.9519 33.9947 19.2906 34.112 18.5546 34.112C17.6159 34.112 16.7892 33.9253 16.0746 33.552C15.3599 33.1787 14.8052 32.6613 14.4106 32C14.0266 31.328 13.8346 30.5707 13.8346 29.728C13.8346 28.896 14.0212 28.1493 14.3946 27.488C14.7786 26.816 15.3066 26.2933 15.9786 25.92C16.6506 25.5467 17.4079 25.36 18.2506 25.36C19.0826 25.36 19.8239 25.5467 20.4746 25.92C21.1359 26.2827 21.6479 26.8 22.0106 27.472C22.3839 28.1333 22.5706 28.9013 22.5706 29.776ZM18.2506 26.96C17.6106 26.96 17.0666 27.152 16.6186 27.536C16.1812 27.9093 15.9146 28.4107 15.8186 29.04H20.6666C20.5812 28.4213 20.3199 27.92 19.8826 27.536C19.4452 27.152 18.9012 26.96 18.2506 26.96ZM37.6634 25.456L34.5114 34H32.5914L30.3834 28.112L28.1434 34H26.2234L23.0874 25.456H24.9754L27.2314 31.76L29.5834 25.456H31.2634L33.5674 31.792L35.8874 25.456H37.6634Z" fill="#CAC4C4"/>
<path d="M24.4879 52.112C23.6239 52.112 22.8453 51.9253 22.1519 51.552C21.4586 51.1787 20.9146 50.6613 20.5199 50C20.1359 49.328 19.9439 48.5707 19.9439 47.728C19.9439 46.8853 20.1359 46.1333 20.5199 45.472C20.9146 44.8107 21.4586 44.2933 22.1519 43.92C22.8453 43.5467 23.6239 43.36 24.4879 43.36C25.3626 43.36 26.1466 43.5467 26.8399 43.92C27.5333 44.2933 28.0719 44.8107 28.4559 45.472C28.8506 46.1333 29.0479 46.8853 29.0479 47.728C29.0479 48.5707 28.8506 49.328 28.4559 50C28.0719 50.6613 27.5333 51.1787 26.8399 51.552C26.1466 51.9253 25.3626 52.112 24.4879 52.112ZM24.4879 50.4C25.2239 50.4 25.8319 50.1547 26.3119 49.664C26.7919 49.1733 27.0319 48.528 27.0319 47.728C27.0319 46.928 26.7919 46.2827 26.3119 45.792C25.8319 45.3013 25.2239 45.056 24.4879 45.056C23.7519 45.056 23.1439 45.3013 22.6639 45.792C22.1946 46.2827 21.9599 46.928 21.9599 47.728C21.9599 48.528 22.1946 49.1733 22.6639 49.664C23.1439 50.1547 23.7519 50.4 24.4879 50.4ZM32.8644 44.704C33.4404 43.808 34.4538 43.36 35.9044 43.36V45.264C35.7338 45.232 35.5791 45.216 35.4404 45.216C34.6618 45.216 34.0538 45.4453 33.6164 45.904C33.1791 46.352 32.9604 47.0027 32.9604 47.856V52H30.9604V43.456H32.8644V44.704ZM37.6011 43.456H39.6011V52H37.6011V43.456ZM38.6091 42.048C38.2464 42.048 37.9424 41.936 37.6971 41.712C37.4517 41.4773 37.3291 41.1893 37.3291 40.848C37.3291 40.5067 37.4517 40.224 37.6971 40C37.9424 39.7653 38.2464 39.648 38.6091 39.648C38.9717 39.648 39.2757 39.76 39.5211 39.984C39.7664 40.1973 39.8891 40.4693 39.8891 40.8C39.8891 41.152 39.7664 41.4507 39.5211 41.696C39.2864 41.9307 38.9824 42.048 38.6091 42.048ZM50.7061 43.456V50.704C50.7061 53.712 49.1701 55.216 46.0981 55.216C45.2767 55.216 44.4981 55.1093 43.7621 54.896C43.0261 54.6933 42.4181 54.3947 41.9381 54L42.8341 52.496C43.2074 52.8053 43.6767 53.0507 44.2421 53.232C44.8181 53.424 45.3994 53.52 45.9861 53.52C46.9247 53.52 47.6127 53.3067 48.0501 52.88C48.4874 52.4533 48.7061 51.8027 48.7061 50.928V50.48C48.3647 50.8533 47.9487 51.136 47.4581 51.328C46.9674 51.52 46.4287 51.616 45.8421 51.616C45.0314 51.616 44.2954 51.4453 43.6341 51.104C42.9834 50.752 42.4661 50.2613 42.0821 49.632C41.7087 49.0027 41.5221 48.2827 41.5221 47.472C41.5221 46.6613 41.7087 45.9467 42.0821 45.328C42.4661 44.6987 42.9834 44.2133 43.6341 43.872C44.2954 43.5307 45.0314 43.36 45.8421 43.36C46.4607 43.36 47.0207 43.4613 47.5221 43.664C48.0341 43.8667 48.4607 44.176 48.8021 44.592V43.456H50.7061ZM46.1461 49.92C46.9034 49.92 47.5221 49.696 48.0021 49.248C48.4927 48.7893 48.7381 48.1973 48.7381 47.472C48.7381 46.7573 48.4927 46.176 48.0021 45.728C47.5221 45.28 46.9034 45.056 46.1461 45.056C45.3781 45.056 44.7487 45.28 44.2581 45.728C43.7781 46.176 43.5381 46.7573 43.5381 47.472C43.5381 48.1973 43.7781 48.7893 44.2581 49.248C44.7487 49.696 45.3781 49.92 46.1461 49.92ZM56.5994 43.36C57.8581 43.36 58.8181 43.664 59.4794 44.272C60.1514 44.8693 60.4874 45.776 60.4874 46.992V52H58.5994V50.96C58.3541 51.3333 58.0021 51.6213 57.5434 51.824C57.0954 52.016 56.5514 52.112 55.9114 52.112C55.2714 52.112 54.7114 52.0053 54.2314 51.792C53.7514 51.568 53.3781 51.264 53.1114 50.88C52.8554 50.4853 52.7274 50.0427 52.7274 49.552C52.7274 48.784 53.0101 48.1707 53.5754 47.712C54.1514 47.2427 55.0528 47.008 56.2794 47.008H58.4874V46.88C58.4874 46.2827 58.3061 45.824 57.9434 45.504C57.5914 45.184 57.0634 45.024 56.3594 45.024C55.8794 45.024 55.4048 45.0987 54.9354 45.248C54.4768 45.3973 54.0874 45.6053 53.7674 45.872L52.9834 44.416C53.4314 44.0747 53.9701 43.8133 54.5994 43.632C55.2288 43.4507 55.8954 43.36 56.5994 43.36ZM56.3274 50.656C56.8288 50.656 57.2714 50.544 57.6554 50.32C58.0501 50.0853 58.3274 49.7547 58.4874 49.328V48.336H56.4234C55.2714 48.336 54.6954 48.7147 54.6954 49.472C54.6954 49.8347 54.8394 50.1227 55.1274 50.336C55.4154 50.5493 55.8154 50.656 56.3274 50.656ZM73.8382 43.36C74.9155 43.36 75.7689 43.6747 76.3982 44.304C77.0275 44.9227 77.3422 45.856 77.3422 47.104V52H75.3422V47.36C75.3422 46.6133 75.1769 46.0533 74.8462 45.68C74.5155 45.296 74.0409 45.104 73.4222 45.104C72.7502 45.104 72.2115 45.328 71.8062 45.776C71.4009 46.2133 71.1982 46.8427 71.1982 47.664V52H69.1982V47.36C69.1982 46.6133 69.0329 46.0533 68.7022 45.68C68.3715 45.296 67.8969 45.104 67.2782 45.104C66.5955 45.104 66.0515 45.3227 65.6462 45.76C65.2515 46.1973 65.0542 46.832 65.0542 47.664V52H63.0542V43.456H64.9582V44.544C65.2782 44.16 65.6782 43.8667 66.1582 43.664C66.6382 43.4613 67.1715 43.36 67.7582 43.36C68.3982 43.36 68.9635 43.4827 69.4542 43.728C69.9555 43.9627 70.3502 44.3147 70.6382 44.784C70.9902 44.336 71.4435 43.9893 71.9982 43.744C72.5529 43.488 73.1662 43.36 73.8382 43.36ZM79.8979 43.456H81.8979V52H79.8979V43.456ZM80.9059 42.048C80.5433 42.048 80.2393 41.936 79.9939 41.712C79.7486 41.4773 79.6259 41.1893 79.6259 40.848C79.6259 40.5067 79.7486 40.224 79.9939 40C80.2393 39.7653 80.5433 39.648 80.9059 39.648C81.2686 39.648 81.5726 39.76 81.8179 39.984C82.0633 40.1973 82.1859 40.4693 82.1859 40.8C82.1859 41.152 82.0633 41.4507 81.8179 41.696C81.5833 41.9307 81.2793 42.048 80.9059 42.048ZM84.2669 40.8H86.6349L86.2349 48.288H84.6509L84.2669 40.8ZM85.4509 52.112C85.0776 52.112 84.7683 51.9947 84.5229 51.76C84.2776 51.5147 84.1549 51.216 84.1549 50.864C84.1549 50.512 84.2776 50.2187 84.5229 49.984C84.7683 49.7493 85.0776 49.632 85.4509 49.632C85.8136 49.632 86.1123 49.7493 86.3469 49.984C86.5923 50.2187 86.7149 50.512 86.7149 50.864C86.7149 51.216 86.5923 51.5147 86.3469 51.76C86.1123 51.9947 85.8136 52.112 85.4509 52.112Z" fill="#CAC4C4"/>
<circle cx="62" cy="16" r="15" stroke="white" stroke-width="2"/>
<path d="M55.7836 22V11.6L56.6956 12.544H53.4156V10.8H57.8636V22H55.7836ZM59.9413 22V20.608L64.3893 16.384C64.7627 16.032 65.04 15.7227 65.2213 15.456C65.4027 15.1893 65.52 14.944 65.5733 14.72C65.6373 14.4853 65.6693 14.2667 65.6693 14.064C65.6693 13.552 65.4933 13.1573 65.1413 12.88C64.7893 12.592 64.272 12.448 63.5893 12.448C63.0453 12.448 62.5493 12.544 62.1013 12.736C61.664 12.928 61.2853 13.2213 60.9653 13.616L59.5093 12.496C59.9467 11.9093 60.5333 11.456 61.2693 11.136C62.016 10.8053 62.848 10.64 63.7653 10.64C64.576 10.64 65.28 10.7733 65.8773 11.04C66.4853 11.296 66.9493 11.664 67.2693 12.144C67.6 12.624 67.7653 13.1947 67.7653 13.856C67.7653 14.2187 67.7173 14.5813 67.6213 14.944C67.5253 15.296 67.344 15.6693 67.0773 16.064C66.8107 16.4587 66.4213 16.9013 65.9093 17.392L62.0853 21.024L61.6533 20.24H68.1973V22H59.9413Z" fill="white"/>
</svg>
