<svg width="88" height="115" viewBox="0 0 88 115" fill="none" xmlns="http://www.w3.org/2000/svg">
<path d="M41.7499 2.16458C31.3637 3.24631 21.4569 10.6922 13.6628 23.2943C11.8874 26.1789 8.79821 32.3808 7.60868 35.4997C0.595786 53.7629 0.134178 72.5308 6.36589 87.0619C10.2185 96.0943 15.8999 102.765 23.6762 107.452C27.9194 110.013 32.1449 111.581 37.2936 112.501C39.868 112.969 45.3008 113.15 48.0172 112.861C64.2977 111.184 77.5068 100.043 83.0994 83.312C84.3422 79.6341 85.1766 75.7399 85.6915 71.2868C86.0998 67.8794 86.0998 61.0825 85.7092 57.2604C84.7328 47.8494 82.1939 38.6548 78.2702 30.3796C74.8969 23.2762 71.3106 17.9578 66.6235 13.072C60.1788 6.38331 53.5742 2.8677 46.0642 2.14655C43.9515 1.94824 43.8982 1.94824 41.7499 2.16458Z" stroke="#D7B747" stroke-width="3"/>
</svg>
