<svg width="306" height="126" viewBox="0 0 306 126" fill="none" xmlns="http://www.w3.org/2000/svg">
<g filter="url(#filter0_d_4468_58832)">
<path fill-rule="evenodd" clip-rule="evenodd" d="M277.288 6.59502C286.141 6.81511 293.582 13.461 294.479 22.2709C297.191 48.8767 296.787 68.4976 294.288 95.0499C293.447 103.988 285.984 110.837 277.01 111.09C189.313 113.561 134.136 113.72 45.9816 111.065C37.8459 110.82 30.8011 105.134 29.2491 97.1444C26.1899 81.395 24.9534 68.039 25.4507 54.0922L13.2458 60.1622L9 61.3227L26.0608 44.4185C26.7195 37.045 27.8292 29.3367 29.3779 20.8906C30.877 12.7152 38.0456 6.83961 46.3549 6.63857C134.376 4.5089 189.572 4.41434 277.288 6.59502Z" fill="white"/>
<path d="M294.479 22.2709L293.485 22.3723V22.3723L294.479 22.2709ZM277.288 6.59502L277.263 7.59471L277.288 6.59502ZM294.288 95.0499L295.284 95.1436L294.288 95.0499ZM277.01 111.09L277.038 112.089L277.01 111.09ZM45.9816 111.065L45.9515 112.064L45.9816 111.065ZM29.2491 97.1444L30.2308 96.9538L29.2491 97.1444ZM25.4507 54.0922L26.4501 54.1279C26.4627 53.7755 26.2888 53.4426 25.9924 53.2516C25.6961 53.0607 25.3211 53.0398 25.0054 53.1968L25.4507 54.0922ZM13.2458 60.1622L13.5095 61.1268C13.5721 61.1097 13.6329 61.0865 13.6911 61.0576L13.2458 60.1622ZM9 61.3227L8.29616 60.6123C7.97338 60.9322 7.9068 61.4294 8.13408 61.8229C8.36135 62.2163 8.82534 62.4071 9.26366 62.2873L9 61.3227ZM26.0608 44.4185L26.7647 45.1288C26.9323 44.9627 27.0359 44.7426 27.0569 44.5075L26.0608 44.4185ZM29.3779 20.8906L28.3943 20.7103V20.7103L29.3779 20.8906ZM46.3549 6.63857L46.379 7.63828L46.3549 6.63857ZM295.474 22.1695C294.523 12.8397 286.65 5.82745 277.313 5.59533L277.263 7.59471C285.632 7.80277 292.64 14.0823 293.485 22.3723L295.474 22.1695ZM295.284 95.1436C297.788 68.5408 298.194 48.8532 295.474 22.1695L293.485 22.3723C296.188 48.9002 295.787 68.4543 293.292 94.9562L295.284 95.1436ZM277.038 112.089C286.506 111.823 294.394 104.596 295.284 95.1436L293.292 94.9562C292.499 103.381 285.462 109.851 276.982 110.09L277.038 112.089ZM45.9515 112.064C134.128 114.72 189.324 114.562 277.038 112.089L276.982 110.09C189.303 112.561 134.145 112.719 46.0117 110.065L45.9515 112.064ZM28.2675 97.3351C29.9135 105.809 37.3744 111.806 45.9515 112.064L46.0117 110.065C38.3175 109.833 31.6888 104.46 30.2308 96.9538L28.2675 97.3351ZM24.4514 54.0566C23.9509 68.0932 25.1967 81.5262 28.2675 97.3351L30.2308 96.9538C27.1831 81.2637 25.956 67.9848 26.4501 54.1279L24.4514 54.0566ZM13.6911 61.0576L25.896 54.9876L25.0054 53.1968L12.8005 59.2668L13.6911 61.0576ZM9.26366 62.2873L13.5095 61.1268L12.9821 59.1976L8.73634 60.3581L9.26366 62.2873ZM25.357 43.7081L8.29616 60.6123L9.70384 62.0331L26.7647 45.1288L25.357 43.7081ZM28.3943 20.7103C26.8415 29.1788 25.7268 36.9184 25.0648 44.3295L27.0569 44.5075C27.7122 37.1715 28.8169 29.4945 30.3615 21.071L28.3943 20.7103ZM46.3307 5.63886C37.5685 5.85086 29.9825 12.049 28.3943 20.7103L30.3615 21.071C31.7715 13.3814 38.5226 7.82836 46.379 7.63828L46.3307 5.63886ZM277.313 5.59533C189.579 3.41421 134.367 3.50883 46.3307 5.63886L46.379 7.63828C134.385 5.50898 189.564 5.41446 277.263 7.59471L277.313 5.59533Z" fill="#917FDB"/>
</g>
<defs>
<filter id="filter0_d_4468_58832" x="0" y="0" width="305.344" height="126" filterUnits="userSpaceOnUse" color-interpolation-filters="sRGB">
<feFlood flood-opacity="0" result="BackgroundImageFix"/>
<feColorMatrix in="SourceAlpha" type="matrix" values="0 0 0 0 0 0 0 0 0 0 0 0 0 0 0 0 0 0 127 0" result="hardAlpha"/>
<feOffset dy="4"/>
<feGaussianBlur stdDeviation="4"/>
<feComposite in2="hardAlpha" operator="out"/>
<feColorMatrix type="matrix" values="0 0 0 0 0.883333 0 0 0 0 0.883333 0 0 0 0 0.883333 0 0 0 0.8 0"/>
<feBlend mode="normal" in2="BackgroundImageFix" result="effect1_dropShadow_4468_58832"/>
<feBlend mode="normal" in="SourceGraphic" in2="effect1_dropShadow_4468_58832" result="shape"/>
</filter>
</defs>
</svg>
