<svg width="306" height="157" viewBox="0 0 306 157" fill="none" xmlns="http://www.w3.org/2000/svg">
<g filter="url(#filter0_d_4468_58788)">
<path fill-rule="evenodd" clip-rule="evenodd" d="M276.959 7.04238C285.955 7.32972 293.392 14.2488 294.15 23.217C297.337 60.9462 296.852 87.4015 293.973 125.088C293.281 134.147 285.844 141.221 276.765 141.55C189.406 144.716 134.3 144.922 46.5707 141.532C38.1623 141.207 31.0481 135.077 29.7375 126.765C27.4114 112.014 26.0225 98.944 25.538 86.1454L13.2458 94.0136L9 95.5072L25.3453 74.6632C25.4158 58.3759 26.9431 41.841 29.8596 22.1271C31.1143 13.6455 38.3556 7.3573 46.9255 7.09111C134.504 4.37083 189.623 4.25261 276.959 7.04238Z" fill="white"/>
<path d="M294.15 23.217L293.153 23.3012L294.15 23.217ZM276.959 7.04238L276.991 6.04289L276.959 7.04238ZM293.973 125.088L294.97 125.164L293.973 125.088ZM276.765 141.55L276.729 140.551L276.765 141.55ZM46.5707 141.532L46.5321 142.531L46.5707 141.532ZM29.7375 126.765L30.7253 126.609L29.7375 126.765ZM25.538 86.1454L26.5373 86.1076C26.5238 85.7491 26.3193 85.4254 26.0014 85.2592C25.6836 85.093 25.301 85.1098 24.9989 85.3032L25.538 86.1454ZM13.2458 94.0136L13.5776 94.9569C13.6504 94.9313 13.7199 94.8974 13.7849 94.8558L13.2458 94.0136ZM9 95.5072L8.21309 94.8901C7.93883 95.2399 7.92832 95.7286 8.1873 96.0899C8.44628 96.4511 8.91258 96.598 9.33185 96.4505L9 95.5072ZM25.3453 74.6632L26.1322 75.2803C26.2694 75.1054 26.3444 74.8898 26.3453 74.6676L25.3453 74.6632ZM29.8596 22.1271L28.8703 21.9808L29.8596 22.1271ZM46.9255 7.09111L46.9566 8.09063L46.9255 7.09111ZM295.146 23.1328C294.345 13.6484 286.483 6.34609 276.991 6.04289L276.927 8.04187C285.426 8.31335 292.439 14.8491 293.153 23.3012L295.146 23.1328ZM294.97 125.164C297.852 87.4373 298.339 60.9269 295.146 23.1328L293.153 23.3012C296.335 60.9655 295.851 87.3658 292.976 125.012L294.97 125.164ZM276.802 142.55C286.384 142.202 294.239 134.735 294.97 125.164L292.976 125.012C292.323 133.558 285.305 140.24 276.729 140.551L276.802 142.55ZM46.5321 142.531C134.289 145.922 189.42 145.716 276.802 142.55L276.729 140.551C189.392 143.716 134.312 143.922 46.6093 140.533L46.5321 142.531ZM28.7497 126.921C30.1371 135.72 37.6622 142.188 46.5321 142.531L46.6093 140.533C38.6625 140.225 31.9591 134.434 30.7253 126.609L28.7497 126.921ZM24.5388 86.1832C25.025 99.0297 26.4189 112.14 28.7497 126.921L30.7253 126.609C28.4039 111.888 27.02 98.8584 26.5373 86.1076L24.5388 86.1832ZM13.7849 94.8558L26.0772 86.9876L24.9989 85.3032L12.7067 93.1713L13.7849 94.8558ZM9.33185 96.4505L13.5776 94.9569L12.9139 93.0702L8.66815 94.5639L9.33185 96.4505ZM24.5584 74.0462L8.21309 94.8901L9.78691 96.1243L26.1322 75.2803L24.5584 74.0462ZM28.8703 21.9808C25.9494 41.7251 24.416 58.3097 24.3453 74.6589L26.3453 74.6676C26.4155 58.4421 27.9369 41.957 30.8488 22.2735L28.8703 21.9808ZM46.8945 6.09159C37.8537 6.37241 30.1978 13.0077 28.8703 21.9808L30.8488 22.2735C32.0309 14.2832 38.8576 8.34219 46.9566 8.09063L46.8945 6.09159ZM276.991 6.04289C189.632 3.2524 134.493 3.3707 46.8945 6.09159L46.9566 8.09063C134.516 5.37096 189.613 5.25281 276.927 8.04187L276.991 6.04289Z" fill="#917FDB"/>
</g>
<defs>
<filter id="filter0_d_4468_58788" x="0" y="0" width="305.343" height="157" filterUnits="userSpaceOnUse" color-interpolation-filters="sRGB">
<feFlood flood-opacity="0" result="BackgroundImageFix"/>
<feColorMatrix in="SourceAlpha" type="matrix" values="0 0 0 0 0 0 0 0 0 0 0 0 0 0 0 0 0 0 127 0" result="hardAlpha"/>
<feOffset dy="4"/>
<feGaussianBlur stdDeviation="4"/>
<feComposite in2="hardAlpha" operator="out"/>
<feColorMatrix type="matrix" values="0 0 0 0 0.883333 0 0 0 0 0.883333 0 0 0 0 0.883333 0 0 0 0.8 0"/>
<feBlend mode="normal" in2="BackgroundImageFix" result="effect1_dropShadow_4468_58788"/>
<feBlend mode="normal" in="SourceGraphic" in2="effect1_dropShadow_4468_58788" result="shape"/>
</filter>
</defs>
</svg>
