<svg width="88" height="115" viewBox="0 0 88 115" fill="none" xmlns="http://www.w3.org/2000/svg">
<path d="M31.4999 30.8999L30.5999 32.8999L28.8999 48.6999L30.5999 48.7999L31.4999 30.8999Z" fill="#84B836"/>
<path d="M39.7998 42.7998L58.0998 29.2998L54.6998 41.0998L40.4998 45.4998L39.7998 42.7998Z" fill="#84B836"/>
<path d="M31.3998 32.3999L18.2998 38.7999L31.2998 33.7999L31.3998 32.3999Z" fill="#87DA5E"/>
<path d="M28.8999 48.8L51.0999 75V46.5L28.8999 48.8Z" fill="#72CD1C"/>
<path d="M30.3999 48.3L31.4999 31H34.7999L37.5999 33.5L41.3999 48.8L30.3999 48.3Z" fill="#72CD1C"/>
<path d="M28.8999 48.7999L49.7999 56.5999L65.8999 34.8999L28.8999 48.7999L47.3999 55.6999L28.8999 48.7999Z" fill="#87DA5E"/>
<path d="M28.8999 48.7999L31.4999 49.6999L65.9999 34.8999L28.8999 48.7999Z" fill="#84B836"/>
<path d="M31.3999 32.4L34.6999 31H31.3999V32.4Z" fill="#87DA5E"/>
<path d="M30.2999 50.4998L49.7999 56.5998L28.8999 48.7998L30.2999 50.4998Z" fill="#84B836"/>
<path d="M18.3999 38.8L31.2999 33.5L30.8999 40L18.3999 38.8Z" fill="#84B836"/>
<path d="M37.4998 33.3999L34.6998 30.8999L31.3998 32.2999C31.3998 32.3999 31.2998 34.4999 31.2998 34.4999L37.4998 33.3999Z" fill="#76C52E"/>
<path d="M40.1999 44.4997L39.3999 41.1997L30.3999 48.3997L40.1999 44.4997Z" fill="#76C52E"/>
<path d="M43.7998 74.1L52.2998 82.4L50.9998 55L43.7998 74.1Z" fill="#84B836"/>
<path d="M49.7998 56.6L43.7998 74.2L50.9998 55L49.7998 56.6Z" fill="#87DA5E"/>
</svg>
