<svg width="88" height="115" viewBox="0 0 88 115" fill="none" xmlns="http://www.w3.org/2000/svg">
<path d="M32.1746 33.022L31.1304 35.4229L29.0747 54.0145L30.0457 54.0713L32.1746 33.022Z" fill="#DDB32A"/>
<path d="M41.9536 46.9612L67.4089 36.9243L59.4573 44.9071L42.7157 50.051L41.9536 46.9612Z" fill="#DDB32A"/>
<path d="M35.9963 33L22 41.2828L39.2403 35.9542L35.9963 33Z" fill="#FFE02C"/>
<path d="M29.8306 54.0105L51.3662 84.9846L43.6726 53.9326L29.8306 54.0105Z" fill="#F2CC2F"/>
<path d="M29.8306 54.0104L32.1746 33.0218L35.9961 33L39.2401 35.9542L43.6726 53.9325L29.8306 54.0104Z" fill="#F2CC2F"/>
<path d="M29.8306 54.0105L44.7292 58.1991L73.9998 40.439L29.8306 54.0105L44.7292 58.1991L29.8306 54.0105Z" fill="#FFE02C"/>
<path d="M29.8208 54.0168L34.2984 51.4476L74.0002 40.439L29.8208 54.0168Z" fill="#DDB32A"/>
<path d="M32.0156 34.7183L35.9961 33L32.1746 33.0218L32.0156 34.7183Z" fill="#FFE02C"/>
<path d="M29.0747 54.0146L51.3662 84.9848L29.8399 54.0107L29.0747 54.0146Z" fill="#FFE02C"/>
<path d="M22 41.283L31.7509 37.269L31.5833 38.321L22 41.283Z" fill="#DDB32A"/>
</svg>
