<svg width="88" height="115" viewBox="0 0 88 115" fill="none" xmlns="http://www.w3.org/2000/svg">
<path d="M18 52.1797L43.7773 52.6454L70 52.1797L45.0191 61.7662L18 52.1797Z" fill="#DDB32A"/>
<path d="M43.9998 57.1758L29.6353 68.5796H43.9998H58.3644L43.9998 57.1758Z" fill="#F2CC2F"/>
<path d="M44 57.176L18 52.1797L29.6354 68.5798L44 57.176Z" fill="#FFE02C"/>
<path d="M44 57.176L70 52.1797L58.3646 68.5798L44 57.176Z" fill="#FFE02C"/>
<path d="M34.2417 55.301L43.4995 47L44.0002 57.176L34.2417 55.301Z" fill="#FFE02C"/>
<path d="M43.4995 47L52.4705 55.5484L44.0002 57.176L43.4995 47Z" fill="#F2CC2F"/>
<path d="M44.0003 57.1759L35.1206 55.4805L43.947 56.0934L44.0003 57.1759Z" fill="#F2CC2F"/>
</svg>
