<svg width="88" height="115" viewBox="0 0 88 115" fill="none" xmlns="http://www.w3.org/2000/svg">
<path d="M57.2817 53.9408L58.4373 33L70 66.3585L59.979 67.3032L57.2817 53.9408Z" fill="#F49125"/>
<path d="M47.6461 53.9404H57.2819L70.0002 66.3581L61.3926 82.4842H35.697L35.0005 56.8635L47.6461 53.9404Z" fill="#E28120"/>
<path d="M21.441 58.992L20.6846 57.8472L35.6968 82.4846L35.0003 63.9672L21.441 58.992Z" fill="#E28120"/>
<path d="M49.3159 57.8471L51.9255 46.7861L42.6802 48.7238L49.3159 57.8471Z" fill="#F49125"/>
<path d="M35.0003 48.7236H27.3203L20.6846 57.847L24.1137 63.0404H35.0003V48.7236Z" fill="#F49125"/>
<path d="M35.0005 48.7236H42.6805L49.3162 57.847L45.8871 63.0404H35.0005V48.7236Z" fill="#E28120"/>
<path d="M20.6845 57.8471L18 46.7861L27.3202 48.7238L20.6845 57.8471Z" fill="#E28120"/>
<path d="M24.1138 63.0405L26.7233 66.3209H35.0004V63.0405H24.1138Z" fill="#F79C41"/>
<path d="M45.8871 63.0405L43.9483 66.3209H35.0005V63.0405H45.8871Z" fill="#F49125"/>
<path d="M26.7231 66.3208L30.6006 59.6851H35.0002V66.3208H26.7231Z" fill="#F9DAB9"/>
<path d="M43.9483 66.3209L39.4 59.7227H35.0005V66.3584L43.9483 66.3209Z" fill="#EACFAC"/>
<path d="M30.6006 59.6851L35.0002 61.9769L39.3997 59.7225L30.6006 59.6851Z" fill="#FFB41F"/>
<path d="M35.3566 66.3584L35.6968 82.4845L34.2085 80.0407L35.0003 66.3584H35.3566Z" fill="#CC711F"/>
<path d="M35.27 80.2463L49.3161 57.8472L36.4758 82.4846H35.6969L35.6766 81.5131L35.27 80.2463Z" fill="#CC711F"/>
<path d="M26.7231 66.3208H43.948V66.6172L42.9562 69.0149L26.7231 66.3208Z" fill="#CC711F"/>
<path d="M57.2817 53.9407L70 66.3583L57.3417 52.8525L57.2817 53.9407Z" fill="#CC711F"/>
<path d="M42.6802 48.7235L47.2306 54.9795L43.4783 48.5566L42.6802 48.7235Z" fill="#CC711F"/>
<path d="M27.3204 48.7235L22.8931 54.8093L26.5159 48.5566L27.3204 48.7235Z" fill="#CC711F"/>
<path d="M50.2382 53.9404H51.9254V82.4842H36.4756L49.3159 57.8468L50.2382 53.9404Z" fill="#F49125"/>
<path d="M50.2382 53.9404L49.3159 57.8468L51.0984 53.9404H50.2382Z" fill="#CC711F"/>
</svg>
