<svg width="88" height="115" viewBox="0 0 88 115" fill="none" xmlns="http://www.w3.org/2000/svg">
<path d="M53.0996 34.3999L64.4996 59.3999L56.0996 62.9999L54.4996 51.3999L53.0996 34.3999Z" fill="#B545DF"/>
<path d="M47.7997 51.3999H55.6997L64.5997 59.3999L59.2997 70.5999H37.7997L37.1997 53.2999L47.7997 51.3999Z" fill="#C254F1"/>
<path d="M35.7998 53.2998L47.8998 51.2998V70.4998H35.7998V53.2998Z" fill="#B545DF"/>
<path d="M54.4998 51.3999L64.4998 59.3999L54.2998 49.3999L54.4998 51.3999Z" fill="#A02ECB"/>
<path d="M28.9 54.9998L28.5 54.2998L35.7 66.4998L35.5 57.7998L28.9 54.9998Z" fill="#B545DF"/>
<path d="M45.1999 52.2L47.5999 43L39.8999 44.6L45.1999 52.2Z" fill="#C254F1"/>
<path d="M35.4996 44.6997H29.0996L23.5996 52.2997L28.2996 59.5997L35.4996 56.5997V44.6997Z" fill="#C254F1"/>
<path d="M35.8999 52.5L43.7999 51L45.9999 53.7L35.8999 70.7V64.4V52.5Z" fill="#B545DF"/>
<path d="M34.2998 44.7001L40.2998 44.6001L45.2998 52.2001L40.2998 59.6001L34.6998 56.6001L34.2998 44.7001Z" fill="#C254F1"/>
<path d="M23.4998 52.3L21.2998 43L29.0998 44.6L23.4998 52.3Z" fill="#B545DF"/>
<path d="M28.2998 59.6997L32.3998 54.6997H34.3998V59.6997H28.2998Z" fill="#CF88FD"/>
<path d="M40.1997 59.6001L36.1997 54.6001H34.1997V59.6001H40.1997Z" fill="#C98EE9"/>
<path d="M32.2998 54.6001L34.1998 56.9001L36.1998 54.6001H32.2998Z" fill="#D79CFF"/>
<path d="M35.7999 59.6997V66.5997L33.8999 63.3997L35.5999 59.7997H35.7999V59.6997Z" fill="#A02ECB"/>
<path d="M28.2998 59.5997H40.1998L45.1998 52.1997L40.1998 60.4997L28.2998 59.5997Z" fill="#A02ECB"/>
<path d="M39.8999 44.7L43.6999 49.9L40.5999 44.5L39.8999 44.7Z" fill="#A02ECB"/>
<path d="M29.0999 44.7001L25.3999 49.8001L28.3999 44.6001L29.0999 44.7001Z" fill="#A02ECB"/>
<path d="M35.7998 70.6001L45.8998 53.6001L37.7998 70.6001H35.7998Z" fill="#A02ECB"/>
</svg>
