<svg width="88" height="115" viewBox="0 0 88 115" fill="none" xmlns="http://www.w3.org/2000/svg">
<path d="M50.1158 59.3242L38.3477 50.1074L38.696 62.3387L49.0143 62.687L50.1158 59.3242Z" fill="#7BAD64"/>
<path d="M38.6963 62.3389L40.5509 68.426L43.9714 68.9509L49.2471 69.7593L48.2603 62.6617L38.6963 62.3389Z" fill="#7BAD64"/>
<path d="M43.9712 78.5899C44.0871 78.5292 46.5201 78.5899 46.5201 78.5899L49.2444 69.5473L44.2303 68.7783L43.9712 78.5899Z" fill="#7BAD64"/>
<path d="M38.3477 78.5903C38.6377 78.5296 43.9711 78.5903 43.9711 78.5903L44.232 75.2476L38.3477 78.5903Z" fill="#7BAD64"/>
<path d="M38.8964 50.1074L30.9541 57.2378L32.3457 58.281L39.0755 56.3972L38.8964 50.1074Z" fill="#7BAD64"/>
<path d="M30.954 57.2378L30.6646 60.5417L32.3456 58.281L30.954 57.2378Z" fill="#7BAD64"/>
<path d="M31.5074 47.749H30.3477L40.0985 63.1555V61.5436L31.5074 47.749Z" fill="#7BAD64"/>
<path d="M26.5217 41H35.449V46.7642L32.2901 45.6919L25.2466 43.3013L26.5217 41Z" fill="#90CE76"/>
<path d="M31.5073 47.7492L40.6143 62.9961L35.4491 41V46.7642L32.2902 45.6919L31.5073 47.7492Z" fill="#90CE76"/>
<path d="M31.5074 47.749L35.4492 46.764L30.9539 45.2383L30.3477 47.749H31.5074Z" fill="#7BAD64"/>
<path d="M26.5219 41L27.4668 43.3013L22.6378 44.4872L22 43.3013L26.5219 41Z" fill="#A7EA88"/>
<path d="M37.3159 49.895H73.9999L53.1885 59.1118L40.6144 62.9959L37.3159 49.895Z" fill="#90CE76"/>
<path d="M53.1886 59.1118L41.4204 49.895L41.7682 62.1263L52.0871 62.474L53.1886 59.1118Z" fill="#A7EA88"/>
<path d="M41.7681 62.1265L43.6233 68.2136L47.0437 68.7379L52.3188 69.5469L51.3326 62.4493L41.7681 62.1265Z" fill="#A7EA88"/>
<path d="M47.0464 78.5899C47.1623 78.5292 49.5953 78.5899 49.5953 78.5899L52.3196 69.5473L47.3055 68.7783L47.0464 78.5899Z" fill="#A7EA88"/>
<path d="M41.4204 78.5902C41.7105 78.5295 47.0438 78.5902 47.0438 78.5902L47.3048 75.3403L41.4204 78.5902Z" fill="#A7EA88"/>
<path d="M41.4204 49.895L33.478 57.0247L34.8696 58.0686L41.5994 56.1848L41.4204 49.895Z" fill="#A7EA88"/>
<path d="M33.478 57.0249L33.1885 60.3294L34.8696 58.0687L33.478 57.0249Z" fill="#A7EA88"/>
<path d="M30.3478 47.7492L28.0634 47.3304L25.8962 44.1673L22 44.9872V43.3013L22.6378 44.4871L25.9806 43.5507L30.954 45.2385L30.3478 47.7492Z" fill="#7BAD64"/>
<path d="M35.4491 46.7642V41L36.1567 46.7642L32.0098 48.5303L31.5073 47.7492L35.4491 46.7642Z" fill="#86BC6D"/>
<path d="M26.5218 41L27.4667 43.3013L25.9805 43.5508L26.8696 43.8524L28.4402 43.5544L26.5218 41Z" fill="#86BC6D"/>
<path d="M37.3159 49.895L37.9665 52.9956L38.696 52.2085L37.8518 49.895H37.3159Z" fill="#86BC6D"/>
<path d="M47.3047 68.7778L52.3188 69.5468L52.0803 70.3381L47.3047 68.7778Z" fill="#86BC6D"/>
<path d="M41.7681 62.1265L51.3326 62.4493L51.4928 63.6018L41.7681 62.1265Z" fill="#86BC6D"/>
<path d="M41.4205 49.8945C41.4266 50.1154 41.5996 56.1843 41.5996 56.1843L40.8403 56.3973L41.4205 49.8945Z" fill="#86BC6D"/>
<path d="M33.478 57.0249L34.8696 58.0687L35.6525 57.8497L33.478 57.0249Z" fill="#86BC6D"/>
<path d="M53.1887 59.1118L74.0001 49.895L52.7729 58.7859L53.1887 59.1118Z" fill="#7BAD64"/>
</svg>
