<svg width="88" height="115" viewBox="0 0 88 115" fill="none" xmlns="http://www.w3.org/2000/svg">
<path d="M69.5002 51.3001L74.7002 48.6001L68.7002 49.5001L69.5002 51.3001Z" fill="#8F9BFF"/>
<path d="M69 53.4001L74.6 48.6001L69 51.1001V53.4001Z" fill="#758DE9"/>
<path d="M63.8 54.0001L68.1 44.6001L63 51.8001L63.8 54.0001Z" fill="#8F9BFF"/>
<path d="M69.6004 70.2001L58.9004 78.9001L63.9004 53.0001L68.2004 44.6001L69.6004 51.4001V70.2001Z" fill="#3873E9"/>
<path d="M35.9 51.9001L32.5 44.1001L37.6 50.0001L35.9 51.9001Z" fill="#3873E9"/>
<path d="M36.9002 78.9001L19.7002 49.9001L21.5002 46.6001L32.5002 44.1001L36.9002 78.9001Z" fill="#6480EA"/>
<path d="M45.9 53.2001L50.2 45.1001L45 51.0001L45.9 53.2001Z" fill="#8F9BFF"/>
<path d="M24.6002 52.6001L9.7002 57.6001L11.9002 61.6001L18.3002 63.3001L24.7002 56.4001V52.6001H24.6002Z" fill="#6480EA"/>
<path d="M18.3003 63.2999L19.7003 49.8999L28.1003 64.0999L18.3003 63.2999Z" fill="#8F9BFF"/>
<path d="M9.7002 57.6002L11.9002 61.6002L13.9002 56.2002L9.7002 57.6002Z" fill="#8F9BFF"/>
<path d="M35.9 72L32.5 44L35.9 51.8V72Z" fill="#8F9BFF"/>
<path d="M41.0004 69.8002L37.6004 71.3002L36.9004 78.9002L35.9004 72.1002V51.9002L41.3004 44.7002L41.0004 69.8002Z" fill="#758DE9"/>
<path d="M40.7002 69.8001L45.8002 72.2001V52.2001L41.2002 44.6001L40.7002 69.8001Z" fill="#6480EA"/>
<path d="M40.8003 69.8002L39.8003 70.3002L41.2003 44.7002L41.9003 70.4002L40.8003 69.8002Z" fill="#3360DB"/>
<path d="M49.9003 70.2001L45.8003 72.2001V52.2001L50.1003 45.1001L49.9003 70.2001Z" fill="#758DE9"/>
<path d="M45.9 72.2002L45.5 72.0002L45.9 52.2002V72.2002Z" fill="#8F9BFF"/>
<path d="M54.8 53.6L59.1 45.5L54 51.4L54.8 53.6Z" fill="#8F9BFF"/>
<path d="M49.7002 70.2L54.8002 72.6V52.6L50.2002 45L49.7002 70.2Z" fill="#6480EA"/>
<path d="M49.8003 70.3002L48.8003 70.8002L50.2003 45.2002L50.9003 70.9002L49.8003 70.3002Z" fill="#3360DB"/>
<path d="M58.9003 70.6L54.8003 72.6V52.6L59.1003 45.5L58.9003 70.6Z" fill="#758DE9"/>
<path d="M54.8004 72.6001L54.4004 72.4001L54.8004 52.6001V72.6001Z" fill="#8F9BFF"/>
<path d="M58.6001 70.5999L63.7001 72.9999V52.9999L59.1001 45.3999L58.6001 70.5999Z" fill="#6480EA"/>
<path d="M58.8002 70.7001L57.7002 71.3001L59.1002 45.6001L59.8002 71.3001L58.8002 70.7001Z" fill="#3360DB"/>
<path d="M63.8004 73L63.4004 72.8L63.7004 53L63.8004 73Z" fill="#8F9BFF"/>
<path d="M35.9004 71.9998L37.6004 71.2998L37.5004 71.9998H35.9004Z" fill="#3360DB"/>
<path d="M13.9004 56.1999L11.9004 61.5999L14.8004 55.8999L13.9004 56.1999Z" fill="#3873E9"/>
<path d="M36.9003 71.5999L35.9003 72.0999L35.8003 51.8999L39.8003 70.2999L36.9003 71.5999Z" fill="#3873E9"/>
<path d="M45.9004 72.2002V52.2002L48.9004 70.7002L45.9004 72.2002Z" fill="#3873E9"/>
<path d="M54.8003 72.6001V52.6001L57.8003 71.2001L54.8003 72.6001Z" fill="#3873E9"/>
<path d="M63.8003 73V53L69.6003 70.3L63.8003 73Z" fill="#3360DB"/>
</svg>
