<svg width="88" height="115" viewBox="0 0 88 115" fill="none" xmlns="http://www.w3.org/2000/svg">
<path d="M27.5002 42.3999L18.0002 48.4999L16.2002 49.8999L29.5002 47.5999L27.5002 42.3999Z" fill="#E23019"/>
<path d="M30.8002 71.8996L33.7002 43.0996L31.6002 40.5996L27.4002 42.2996L20.2002 61.5996L30.8002 71.8996Z" fill="#F43B1D"/>
<path d="M49.5 53.0996L51.5 40.5996L35.5 55.1996" fill="#BF2419"/>
<path d="M70.4003 71.3999L73.1003 63.8999L64.8003 72.0999L70.4003 71.3999Z" fill="#E23019"/>
<path d="M58.6999 56.7998C58.9999 56.8998 68.6999 68.2998 68.6999 68.2998L63.4999 71.7998L52.8999 65.0998L58.6999 56.7998Z" fill="#E23019"/>
<path d="M35.1 61.0998L38 60.7998L34.5 64.5998L35.1 61.0998Z" fill="#CC2918"/>
<path d="M58.6999 56.7998L49.6999 72.1998C49.6999 72.1998 30.5999 71.6998 30.7999 71.7998C30.8999 71.9998 31.9999 56.7998 31.9999 56.7998H58.6999Z" fill="#E23019"/>
<path d="M31.3003 44.5997L32.9003 43.6997L32.0003 56.7997L32.3003 56.9997L33.7003 42.9997L30.8003 42.1997L31.3003 44.5997Z" fill="#CC2918"/>
<path d="M44.3002 72.0999L31.7002 60.3999L31.9002 56.8999L44.3002 72.0999Z" fill="#CC2918"/>
<path d="M58.7001 56.7998L53.6001 65.2998L57.2001 67.6998L58.7001 56.7998Z" fill="#CC2918"/>
<path d="M68.5999 68.2998L64.6999 72.0998L63.3999 71.6998L68.5999 68.2998Z" fill="#CC2918"/>
<path d="M30.7003 41.0996C30.7003 41.0996 27.7003 46.1996 27.8003 46.1996L32.0003 47.2996L30.7003 41.0996Z" fill="#E23019"/>
<path d="M27.9001 46.1998L34.5001 34.2998L16.1001 49.8998C16.1001 49.8998 27.9001 46.2998 27.9001 46.1998Z" fill="#E02C24"/>
<path d="M54.3 47L32 56.8L50 59.2L54.3 47Z" fill="#E02C24"/>
<path d="M26.0003 54.2997L23.3003 47.6997L27.7003 46.1997L32.0003 47.2997L26.0003 54.2997Z" fill="#FF6017"/>
<path d="M50 59.1998L32 56.7998L44.7 66.2998L50 59.1998Z" fill="#F43B1D"/>
<path d="M44.7 66.2998L32 56.7998L44.3 72.0998L44.7 66.2998Z" fill="#E53721"/>
<path d="M32 56.7998L44.7 66.2998L45.2 65.5998L32 56.7998Z" fill="#FF6017"/>
<path d="M50.0003 59.1998L49.7003 59.5998L44.7003 66.2998L44.3003 72.0998L46.1003 66.0998L50.7003 59.3998L51.7003 56.7998H50.9003L50.0003 59.1998Z" fill="#CC2918"/>
<path d="M32 47.2998V48.7998L26 54.2998L32 47.2998Z" fill="#CC2918"/>
<path d="M30.8003 71.8999L33.0003 61.5999L31.7003 60.3999L30.8003 71.8999Z" fill="#CC2918"/>
<path d="M34.5001 34.2998L29.2001 46.5998L16.1001 49.8998L27.7001 46.1998L34.5001 34.2998Z" fill="#CC2918"/>
<path d="M73.1003 63.8999L64.8003 72.0999L65.9003 71.9999L73.1003 63.8999Z" fill="#FF6017"/>
</svg>
