<svg width="88" height="115" viewBox="0 0 88 115" fill="none" xmlns="http://www.w3.org/2000/svg">
<path d="M38.9859 54.1226L34.4033 45L51.9496 62.6325L48.6641 66.735L41.3458 62.3116L38.9859 54.1226Z" fill="#CC711F"/>
<path d="M68.6085 48.0055C67.7654 48.9178 65.1489 45.694 65.1489 45.694L65.422 45.3789L74 49.7049V50.3511L68.6085 48.0055Z" fill="#CC711F"/>
<path d="M67.7648 47.6387L73.9994 50.3515L72.9046 53.2543L65.8945 52.201L67.7648 47.6387Z" fill="#E28120"/>
<path d="M54.1343 63.238L64.1483 48.5892L67.7649 47.6387L60.7223 64.8183L54.1343 63.238Z" fill="#F49125"/>
<path d="M51.936 62.6323L60.7222 64.8182L52.9696 69.8149L51.936 62.6323Z" fill="#E28120"/>
<path d="M18.5203 56.3174L14 58.6917L19.3149 58.2409L18.5203 56.3174Z" fill="#E28120"/>
<path d="M20.4818 61.066L18.5205 56.3174H20.2013L22.9652 59.9323L20.4818 61.066Z" fill="#F49125"/>
<path d="M27.022 57.937C26.8219 57.9775 20.2993 60.9649 20.2993 60.9649L23.6604 62.4994L28.7662 61.5078L27.022 57.937Z" fill="#E28120"/>
<path d="M29.9802 63.9928L27.022 57.9375L31.4635 58.5373L34.9113 62.9693L29.9802 63.9928Z" fill="#F49125"/>
<path d="M29.9795 63.9927L35.9406 70.4354C35.9406 70.4354 52.8279 70.0352 52.7061 70.1161C52.5842 70.197 51.9455 62.6328 51.9455 62.6328L39.4267 62.0298L29.9795 63.9927Z" fill="#E28120"/>
<path d="M44.2663 70.1158L50.3179 62.3116L29.98 46.9985L44.2663 70.1158Z" fill="#F49125"/>
<path d="M37.5943 62.4995L31.356 74.8118L38.7078 70.3718L37.5943 62.4995Z" fill="#F49125"/>
<path d="M51.9492 62.6323L49.5376 70.1422L53.6789 74.8115L51.9492 62.6323Z" fill="#F49125"/>
<path d="M44.2666 70.116L46.3099 70.2054L50.1367 62.5454L44.2666 70.116Z" fill="#CC711F"/>
<path d="M37.6357 62.7935C37.648 62.8818 39.7195 70.3486 39.7195 70.3486L38.7082 70.2054L37.6357 62.7935Z" fill="#CC711F"/>
<path d="M52.0459 63.3091L52.9699 69.8152L53.9316 69.1951L52.0459 63.3091Z" fill="#CC711F"/>
<path d="M29.98 63.993L34.9112 62.9695L34.4029 62.3159L29.98 63.993Z" fill="#CC711F"/>
<path d="M27.022 57.9375L28.7661 61.5078L27.7384 61.7073L27.022 57.9375Z" fill="#CC711F"/>
<path d="M18.5201 56.3179C18.3694 56.3966 18.5201 58.3084 18.5201 58.3084L19.3147 58.2408L18.5201 56.3179Z" fill="#CC711F"/>
<path d="M67.6722 47.8652C67.6722 47.8652 67.1639 52.3925 67.1102 52.3839L65.8945 52.2014L67.6722 47.8652Z" fill="#CC711F"/>
<path d="M51.9492 62.6323L52.9259 73.9626L53.679 74.8115L51.9492 62.6323Z" fill="#FFB41F"/>
<path d="M32.2017 48.6714L49.7341 63.0647L50.318 62.3116L32.2017 48.6714Z" fill="#FFB41F"/>
</svg>
