<svg width="88" height="115" viewBox="0 0 88 115" fill="none" xmlns="http://www.w3.org/2000/svg">
<path d="M57.1245 49.5332L68.9535 56.5028L64.3945 60.6718L57.1245 49.5332Z" fill="#569FAF"/>
<path d="M34.7565 41.7563L30.717 69.4829L24.0669 63.2161L28.6765 46.5261L31.4846 42.2434L34.7565 41.7563Z" fill="#72D0ED"/>
<path d="M29.3102 37L22.5962 39.0463V41.8602V44.6733L29.3102 46.7196L34.7563 41.7565L29.3102 37Z" fill="#72D0ED"/>
<path d="M30.7168 69.4827H60.4498L65.0536 61.6817L57.1248 49.5332L32.5714 54.8399L30.7168 69.4827Z" fill="#72D0ED"/>
<path d="M58.3735 51.447C58.4715 51.5964 71 47.5469 71 47.5469L64.3938 60.6679L58.3735 51.447Z" fill="#72D0ED"/>
<path d="M42.9438 69.4829L44.0948 76.2608L46.6838 78.1785L49.0181 69.4829H42.9438Z" fill="#72D0ED"/>
<path d="M39.2349 78.1784H46.6841L44.0951 76.2607L39.2349 78.1784Z" fill="#72D0ED"/>
<path d="M29.3101 37L36.3435 40.9648L36.5908 53.9713L32.8583 54.7779L34.7561 41.7565L29.3101 37Z" fill="#569FAF"/>
<path d="M34.7563 41.7565H22.5962V39.0463L29.3102 37L34.7563 41.7565Z" fill="#7DE7FF"/>
<path d="M28.6763 46.5261L29.3103 46.7195L34.7563 41.7563L34.4966 43.5355L29.697 48.1617L28.3203 47.8148L28.6763 46.5261Z" fill="#61B3C6"/>
<path d="M57.1245 49.5332L64.1597 63.1961L65.0534 61.6817L57.1245 49.5332Z" fill="#61B3C6"/>
<path d="M32.8585 54.7779L30.7168 69.483L35.2202 54.2676L32.8585 54.7779Z" fill="#61B3C6"/>
<path d="M42.9438 69.4829L48.4812 71.4828L49.0181 69.4829H42.9438Z" fill="#61B3C6"/>
<path d="M44.0947 76.2608L46.6837 78.1785L43.8242 74.6709L44.0947 76.2608Z" fill="#61B3C6"/>
<path d="M34.1962 45.3589L28.3203 67.2244L30.7168 69.4832L34.1962 45.3589Z" fill="#7DE7FF"/>
<path d="M39.2349 53.3993L57.7488 50.7439L57.1248 49.5332L39.2349 53.3993Z" fill="#7DE7FF"/>
<path d="M61.2455 55.8474C61.2737 55.8906 71 47.5493 71 47.5493L58.3735 51.4494L61.2455 55.8474Z" fill="#7DE7FF"/>
<path d="M22.5963 40.1616L17 42.1507L22.5963 43.6908V40.1616Z" fill="#72D0ED"/>
<path d="M22.5963 40.1616L21.6885 43.441L22.5963 43.6908V40.1616Z" fill="#61B3C6"/>
</svg>
