<svg width="88" height="115" viewBox="0 0 88 115" fill="none" xmlns="http://www.w3.org/2000/svg">
<path d="M36.9001 46.3003L33.4001 75.0003L25.1001 63.3003L31.6001 50.5003L34.0001 46.8003L36.9001 46.3003Z" fill="#865BF1"/>
<path d="M33.8004 41.6001L26.4004 44.0001V46.4001V50.3001L32.2004 50.6001L36.9004 46.3001L33.8004 41.6001Z" fill="#865BF1"/>
<path d="M33.4004 74.9999L59.5004 74.0999L63.0004 68.2999L55.4004 55.8999L44.6004 57.9999L37.2004 61.8999L33.4004 74.9999Z" fill="#865BF1"/>
<path d="M57.2002 59.5001C57.3002 59.6001 66.5002 51.1001 66.5002 51.1001L62.4002 67.5001L57.2002 59.5001Z" fill="#865BF1"/>
<path d="M33.8003 41.6001L37.9003 45.8001L37.3003 61.9001L34.9003 62.5001L36.9003 46.3001L33.8003 41.6001Z" fill="#744DF1"/>
<path d="M34.5004 42.8001L26.4004 46.4001V44.0001L33.7004 41.6001L34.5004 42.8001Z" fill="#9D7EF1"/>
<path d="M31.5004 50.6003H32.1004L36.8004 46.3003L36.6004 47.8003L32.7004 51.2003L31.4004 50.7003L31.5004 50.6003Z" fill="#8F6EF1"/>
<path d="M55.3003 55.8999L62.2003 69.5999L63.0003 68.2999L55.3003 55.8999Z" fill="#8F6EF1"/>
<path d="M34.9004 62.3999L33.4004 74.8999L37.2004 61.8999L34.9004 62.3999Z" fill="#744DF1"/>
<path d="M37.3003 61.8999L45.4003 58.6999L56.4003 57.8999L55.4003 55.8999L44.6003 57.9999L37.3003 61.8999Z" fill="#9D7EF1"/>
<path d="M58.3004 60.8L66.4004 51L56.4004 57.7L58.3004 60.8Z" fill="#9D7EF1"/>
<path d="M26.4002 46.3999L19.7002 50.3999L26.4002 50.2999V46.3999Z" fill="#865BF1"/>
<path d="M26.4004 46.3999L25.9004 50.2999H26.4004V46.3999Z" fill="#8F6EF1"/>
<path d="M25.1001 63.2002L33.4001 75.0002L34.4001 67.0002L25.1001 63.2002Z" fill="#8654FF"/>
<path d="M35.6004 67.3999L33.4004 74.9999L59.5004 74.0999L35.6004 67.3999Z" fill="#8654FF"/>
</svg>
