<svg width="88" height="115" viewBox="0 0 88 115" fill="none" xmlns="http://www.w3.org/2000/svg">
<path d="M36.1562 43.9589L42.5514 40.2715L43.216 41.7738L36.1562 43.9589Z" fill="#C27DE2"/>
<path d="M23.8859 70.7164L14 63.6056L16.1305 60.917L29.1693 67.3932L23.8859 70.7164Z" fill="#DD8AFF"/>
<path d="M36.1564 43.9585V65.5184L23.886 60.9169V50.35L36.1564 43.9585Z" fill="#DD8AFF"/>
<path d="M23.886 60.917V70.7164L29.1694 67.3932V62.8982L23.886 60.917Z" fill="#C27DE2"/>
<path d="M14 63.6057L19.0285 59.4685L17.2385 56.9966L14 58.6163V63.6057Z" fill="#C27DE2"/>
<path d="M19.0285 59.4688L16.5138 57.3592L15.7043 54.0142L19.0285 59.4688Z" fill="#DD8AFF"/>
<path d="M36.1562 43.9585L60.0615 44.4611L68.4005 55.9576L65.884 68.1041L52.9153 72.4999L36.1562 65.5184V43.9585Z" fill="#C27DE2"/>
<path d="M67.8535 58.6011L74.0001 63.0942L67.0769 62.3467L67.8535 58.6011Z" fill="#C27DE2"/>
<path d="M65.8839 68.1045L64.2961 78.2244H59.6199L59.2266 70.3615L65.8839 68.1045Z" fill="#C27DE2"/>
<path d="M36.1562 65.5187L36.9475 78.2243H41.5344L45.576 61.8804L36.1562 51.166V65.5187Z" fill="#DD8AFF"/>
<path d="M36.1562 43.9587L48.9456 40L36.1562 65.5186V43.9587Z" fill="#EB97FF"/>
<path d="M41.2058 56.9094L45.5761 61.8805L41.5345 78.2244H42.7718L47.8286 62.4896L42.0999 55.3853L41.2058 56.9094Z" fill="#905FAA"/>
<path d="M48.6479 44.2211L60.0616 44.4615L58.6495 43.4026L49.3863 42.9619L48.6479 44.2211Z" fill="#905FAA"/>
<path d="M68.4005 55.9577L60.0616 44.4612L58.6494 43.4023H60.6788L68.4005 55.9577Z" fill="#905FAA"/>
<path d="M36.1562 65.5186L48.9456 40L49.7751 42.9863L36.1562 65.5186Z" fill="#905FAA"/>
<path d="M23.886 50.35L24.7537 49.0835L36.1564 43.9585L23.886 50.35Z" fill="#905FAA"/>
<path d="M59.2266 70.3615L65.8839 68.1045L65.5297 70.3615L59.263 71.1027L59.2266 70.3615Z" fill="#9C6CBC"/>
<path d="M67.8535 58.6011L67.0769 62.3467L68.4007 62.4897V59.0017L67.8535 58.6011Z" fill="#9C6CBC"/>
<path d="M52.9153 72.5002V44.4614H60.0616L68.4005 55.9579L65.884 68.1045L52.9153 72.5002Z" fill="#BF74D1"/>
<path d="M23.886 60.917V61.8329L29.1694 65.2463V62.8982L23.886 60.917Z" fill="#9C6CBC"/>
<path d="M36.1562 65.5186L45.576 61.8804L45.2792 63.0822L36.1562 65.5186Z" fill="#C27DE2"/>
<path d="M14 63.6057L16.8398 61.2686L18.0707 61.8804L14.5099 63.9717L14 63.6057Z" fill="#9C6CBC"/>
<path d="M23.886 60.9172L25.1716 49.6802L23.886 50.3503V60.9172Z" fill="#EB97FF"/>
<path d="M47.4206 70.2113L48.2728 62.6207L44.3933 58.2295L47.8285 62.4896L45.5924 69.4492L47.4206 70.2113Z" fill="#9C6CBC"/>
</svg>
