<svg width="88" height="115" viewBox="0 0 88 115" fill="none" xmlns="http://www.w3.org/2000/svg">
<path d="M47.6 44.2996L41.7 43.0996L41 44.3996L47.6 44.2996Z" fill="#E228A6"/>
<path d="M47.6003 44.2998L47.3003 66.8998L62.1003 66.5998L58.4003 49.9998L47.6003 44.2998Z" fill="#FF16B1"/>
<path d="M67.2 51.1997H72.5L62.1 66.4997L60 56.5997L67.2 51.1997Z" fill="#E228A6"/>
<path d="M67.2002 51.1997H72.5002L75.0002 55.9997L67.2002 51.1997Z" fill="#FF16B1"/>
<path d="M47.6001 44.2999L30.8001 43.8999L19.1001 54.8999L21.3001 65.5999L32.8001 69.4999L47.6001 63.2999V44.2999Z" fill="#E228A6"/>
<path d="M19.5001 57.1997L14.1001 61.1997L20.2001 60.4997L19.5001 57.1997Z" fill="#E228A6"/>
<path d="M32.8001 69.4998V44.6998L30.8001 43.7998L19.1001 54.7998L21.3001 65.4998L32.8001 69.4998Z" fill="#D11E81"/>
<path d="M21.3003 65.5996L22.7003 74.4996H26.8003L32.7003 69.3996L21.3003 65.5996Z" fill="#E228A6"/>
<path d="M47.6002 63.2996L46.9002 74.4996H39.4002L25.2002 56.4996L47.5002 50.5996V63.2996H47.6002Z" fill="#FF16B1"/>
<path d="M47.2999 66.7997L34.7999 48.6997L33.3999 64.5997L47.2999 66.7997Z" fill="#BC0A91"/>
<path d="M47.6003 44.2998L38.4003 45.1998L34.8003 48.6998V62.6998L47.3003 66.7998L47.6003 44.2998Z" fill="#FF1395"/>
<path d="M38.4 45.2L30.5 43.9L32 43L41.4 44.1L38.4 45.2Z" fill="#BC0A91"/>
<path d="M19.1001 54.8998L30.8001 43.8998L32.0001 42.9998L30.3001 42.7998L19.1001 54.8998Z" fill="#BC0A91"/>
<path d="M58.4 49.8998L57.6 48.7998L47.5 44.2998L58.4 49.8998Z" fill="#BC0A91"/>
<path d="M32.8003 69.4996L21.3003 65.5996L21.6003 67.5996L32.2003 69.9996L32.8003 69.4996Z" fill="#BC0A91"/>
<path d="M19.5 57.1997L20.2 60.4997L19 60.5997V57.4997L19.5 57.1997Z" fill="#BC0A91"/>
<path d="M62.1003 65.6998V66.4998L59.8003 56.6998L62.4003 54.7998L62.1003 65.6998Z" fill="#BC0A91"/>
<path d="M47.2999 66.7997L39.8999 48.1997L38.3999 45.0997L47.5999 44.1997L47.2999 66.7997Z" fill="#E228A6"/>
<path d="M70.9002 53.4997L67.2002 51.1997L66.2002 51.8997L70.7002 53.6997L70.9002 53.4997Z" fill="#BC0A91"/>
<path d="M62.1003 66.4998L57.3003 49.2998L58.4003 49.8998L62.1003 66.4998Z" fill="#FF1395"/>
<path d="M34.6002 54.2997L25.3002 56.4997L34.8002 68.6997L32.8002 69.4997L24.2002 55.9997L34.6002 51.1997V54.2997Z" fill="#BC0A91"/>
</svg>
