<svg width="88" height="115" viewBox="0 0 88 115" fill="none" xmlns="http://www.w3.org/2000/svg">
<path d="M53.4541 42.4399L37.0863 45.5065L22.8677 58.2284L37.0863 70.9493L53.4541 74.0159L64 58.2284L53.4541 42.4399Z" fill="#DD8AFF"/>
<path d="M22.8677 58.2282L32.2079 58.6283L37.0863 45.5063L22.8677 58.2282Z" fill="#EB97FF"/>
<path d="M22.8677 58.2283L16 43.022L28.5287 53.1632L22.8677 58.2283Z" fill="#DD8AFF"/>
<path d="M22.8677 58.2285L16 73.4349L28.5287 63.2927L22.8677 58.2285Z" fill="#DD8AFF"/>
<path d="M53.4539 42.4399L38.5386 23L43.4337 44.3173L53.4539 42.4399Z" fill="#C27DE2"/>
<path d="M53.4539 73.9595L38.5386 93.3985L43.4337 72.082L53.4539 73.9595Z" fill="#C27DE2"/>
<path d="M64.0002 58.2285L53.4542 73.9597L37.0865 70.9494L32.208 58.6286L64.0002 58.2285Z" fill="#C27DE2"/>
<path d="M43.465 71.8188L53.4852 73.6963L42.7222 75.0508L43.465 71.8188Z" fill="#9C6CBC"/>
<path d="M22.8677 58.2285L28.5287 63.2927L26.8989 64.6121L22.8677 58.2285Z" fill="#C27DE2"/>
<path d="M43.4337 44.3175L52.76 42.5703H43.0327L43.4337 44.3175Z" fill="#9C6CBC"/>
<path d="M22.8677 58.2284L28.5287 53.1633L27.7517 52.5341L27.6861 52.4814L22.8677 58.2284Z" fill="#C27DE2"/>
</svg>
