<svg width="88" height="115" viewBox="0 0 88 115" fill="none" xmlns="http://www.w3.org/2000/svg">
<path d="M44.7 75.6H30L39.4 66.5L44.8 72.6L44.7 75.6Z" fill="#66CDF2"/>
<path d="M38.7 67.2002L44.1 74.4002V74.9002L30 75.6002L42 74.3002L35.3 70.5002L38.7 67.2002Z" fill="#54BBDB"/>
<path d="M44.5999 41.1001H29.8999L39.2999 50.2001L44.6999 44.1001L44.5999 41.1001Z" fill="#66CDF2"/>
<path d="M38.6 49.5001L44.1 42.2001V41.7001L30 41.1001L42 42.4001L37.4 48.1001L38.6 49.5001Z" fill="#54BBDB"/>
<path d="M27.4001 58.2002L26.1001 70.8002L31.8001 62.2002L27.4001 58.2002Z" fill="#78D8FF"/>
<path d="M27.3999 58.2002L31.7999 62.1002L30.4999 64.1002L27.3999 58.2002Z" fill="#54BBDB"/>
<path d="M27.4001 58.2002L28.3001 60.0002L26.1001 70.8002L27.4001 58.2002Z" fill="#54BBDB"/>
<path d="M27.4001 58.3002L26.1001 45.7002L31.8001 54.3002L27.4001 58.3002Z" fill="#78D8FF"/>
<path d="M42.6999 47.5001L49.9999 46.1001H42.3999L42.6999 47.5001Z" fill="#5FACBC"/>
<path d="M27.3999 58.3002L31.6999 54.3002L31.2999 53.7002L27.3999 58.3002Z" fill="#66CDF2"/>
<path d="M44.6707 41.0568L27.4175 58.3101L44.6707 75.5633L61.924 58.3101L44.6707 41.0568Z" fill="#78D8FF"/>
<path d="M36.1001 67.0001L52.9001 50.1001L36.7001 67.6001L36.1001 67.0001Z" fill="#66CDF2"/>
<path d="M53.5 66.8001L53.8 66.5001L37 49.6001" fill="#66CDF2"/>
<path d="M28 58.8999L45 74.8999L62 58.3999L44.7 75.5999L28 58.8999Z" fill="#66CDF2"/>
<path d="M27.3999 58.3L44.6999 41L27.9999 58.9L27.3999 58.3Z" fill="#92E3FF"/>
<path d="M27.4001 58.3002L28.4001 57.1002L26.1001 45.7002L27.4001 58.3002Z" fill="#54BBDB"/>
</svg>
