<svg width="88" height="115" viewBox="0 0 88 115" fill="none" xmlns="http://www.w3.org/2000/svg">
<path d="M46.9998 87.3C46.8998 87.2 45.4998 87.3 45.4998 87.3L43.7998 57H47.4998L46.9998 87.3Z" fill="#AD3E80"/>
<path d="M58.5001 87.3002C58.3001 87.2002 47.0001 87.3002 47.0001 87.3002L46.6001 83.7002L58.5001 87.3002Z" fill="#AD3E80"/>
<path d="M54.5999 34.9004H55.6999L58.7999 53.4004L53.3999 52.0004L54.5999 34.9004Z" fill="#BC468D"/>
<path d="M59.2 28.7002H51V34.0002L53.9 33.0002L60.4 30.8002L59.2 28.7002Z" fill="#CE4D79"/>
<path d="M54.5997 34.9002L58.7997 53.4002L48.1997 48.0002L50.8997 28.7002V34.0002L53.7997 33.0002L54.5997 34.9002Z" fill="#CE4D79"/>
<path d="M54.5999 34.9001L50.8999 34.0001L54.9999 32.6001L55.5999 34.9001H54.5999Z" fill="#AD3E80"/>
<path d="M52.1999 46.1001H18.3999L37.4999 54.6001L49.0999 58.2001L52.1999 46.1001Z" fill="#CE4D79"/>
<path d="M48.2 42.9004L58.7 53.4004L56 61.9004L47.3 60.2004L45 46.3004L48.2 42.9004Z" fill="#EA6095"/>
<path d="M32.1 45.7001L42.1 44.1001L57.8 53.5001L53 59.8001L18.5 53.0001L32.1 45.7001Z" fill="#EA6095"/>
<path d="M45.7998 87.3C45.6998 87.2 44.2998 87.3 44.2998 87.3L41.2998 56.5L46.6998 57.9L45.7998 87.3Z" fill="#EA6095"/>
<path d="M56.7001 87.3002C56.5001 87.2002 45.2001 87.3002 45.2001 87.3002L44.6001 83.7002L56.7001 87.3002Z" fill="#EA6095"/>
<path d="M55.6001 34.9002L57.7001 34.5002L59.8001 32.4002L61.7001 34.5002L59.7001 37.3002L63.3001 36.5002L63.4001 30.7002L62.8001 31.8002L59.7001 31.0002L55.1001 32.6002L55.6001 34.9002Z" fill="#AD3E80"/>
<path d="M50.8998 34.0002V28.7002L50.2998 34.0002L54.7998 35.9002L54.5998 34.9002L50.8998 34.0002Z" fill="#BC4699"/>
<path d="M59.1999 28.7002L58.2999 30.8002L59.6999 31.0002L58.8999 31.3002L57.3999 31.0002L59.1999 28.7002Z" fill="#BC4699"/>
<path d="M41.3999 57.6001L48.0999 58.0001L46.6999 60.6001L41.5999 59.9001L41.3999 57.6001Z" fill="#BC468D"/>
<path d="M46.7998 60.6004V58.4004L58.7998 53.4004L46.7998 60.6004Z" fill="#BC468D"/>
<path d="M45 46.3L58.7 53.4L45.3 46L45 46.3Z" fill="#AD3E80"/>
<path d="M59.1998 28.7002L58.2998 30.8002L62.2998 31.8002L63.1998 36.6002L63.2998 31.4002V30.9002L59.1998 28.7002Z" fill="#EA6095"/>
<path d="M48.8999 43.5004L58.7999 53.4004L49.0999 41.9004L48.8999 43.5004Z" fill="#AD3E80"/>
</svg>
