<svg width="88" height="115" viewBox="0 0 88 115" fill="none" xmlns="http://www.w3.org/2000/svg">
<path d="M63.235 71.7754L69.9999 77.455H57.7593L63.235 71.7754Z" fill="#92D875"/>
<path d="M24.7649 71.7754L18 77.455H30.2406L24.7649 71.7754Z" fill="#92D875"/>
<path d="M27.1206 65.4082L22.8218 69.9685L27.1206 74.4011H43.9907V69.9685L27.1206 65.4082Z" fill="#92D875"/>
<path d="M60.8614 65.4082L65.1594 69.9685L60.8614 74.4011H43.9905V69.9685L60.8614 65.4082Z" fill="#92D875"/>
<path d="M43.9905 40L30.8865 53.2262L35.9606 58.2401L43.9905 40Z" fill="#92D875"/>
<path d="M43.9905 40L57.0945 53.2262L52.0203 58.2401L43.9905 40Z" fill="#92D875"/>
<path d="M30.7977 69.9685L27.1206 65.4082H43.9907V69.9685H30.7977Z" fill="#92D875"/>
<path d="M57.1834 69.9685L60.8614 65.4082H43.9905V69.9685H57.1834Z" fill="#92D875"/>
<path d="M43.9905 40L30.7976 69.9687H43.9905H57.1835L43.9905 40Z" fill="#A7EA88"/>
<path d="M30.8865 53.2262V49.1196H34.9544L30.8865 53.2262Z" fill="#A7EA88"/>
<path d="M30.8865 49.1195L32.8719 46.8447L34.9544 49.1195H30.8865Z" fill="#92D875"/>
<path d="M57.0945 53.2262V49.1196H53.0266L57.0945 53.2262Z" fill="#A7EA88"/>
<path d="M57.0945 49.1195L55.11 46.8447L53.0266 49.1195H57.0945Z" fill="#92D875"/>
<path d="M27.1206 74.4011L29.7942 71.1786L30.7977 69.9685L27.1206 65.4082L22.8218 69.9685L27.1206 74.4011Z" fill="#A7EA88"/>
<path d="M57.1836 69.9685L60.8616 74.4011L65.1595 69.9685L60.8616 65.4082L57.1836 69.9685Z" fill="#A7EA88"/>
<path d="M27.1206 74.4014L30.2407 77.455H43.9907V74.4014H27.1206Z" fill="#A7EA88"/>
<path d="M60.8614 74.4014L57.7404 77.455H43.9905V74.4014H60.8614Z" fill="#A7EA88"/>
<path d="M45.7622 44.0239L52.0204 58.2401L53.9412 56.3427L45.7622 44.0239Z" fill="#7BAD64"/>
<path d="M30.7976 69.9685L31.5657 65.4082H32.8055L30.7976 69.9685Z" fill="#7BAD64"/>
<path d="M57.1834 69.9685L55.1755 65.4082H56.5689L57.1834 69.9685Z" fill="#7BAD64"/>
<path d="M30.7977 69.9688L29.7942 71.1789H58.1835L57.18 69.9688H30.7977Z" fill="#7BAD64"/>
<path d="M27.1206 74.4014H60.8616L59.9542 75.1785L28.2535 75.3941L27.1206 74.4014Z" fill="#7BAD64"/>
<path d="M24.6599 71.8643L30.4402 77.455H28.2256L24.6599 71.8643Z" fill="#7BAD64"/>
<path d="M63.3303 71.855L57.426 77.4547H60.3781L63.3303 71.855Z" fill="#7BAD64"/>
<path d="M43.9905 69.9687V47.4028L46.4503 69.9049L43.9905 69.9687Z" fill="#92D875"/>
<path d="M35.9608 58.2399L41.4823 45.6992L34.9546 57.2463L35.9608 58.2399Z" fill="#7BAD64"/>
</svg>
