<svg width="88" height="115" viewBox="0 0 88 115" fill="none" xmlns="http://www.w3.org/2000/svg">
<path d="M29.0796 51.874V72.9255L37.7411 80.8605L29.8481 72.9255V51.874H29.0796Z" fill="#BC79AE"/>
<path d="M19.6764 51.8741H18.7347L18 47.9298L28.227 41.2686H29.8479L19.6764 51.8741Z" fill="#BC79AE"/>
<path d="M61.5049 65.6283L62.5223 67.2454L70 65.6283L61.5049 57.0972V65.6283Z" fill="#BC79AE"/>
<path d="M45.6758 57.0972H29.8477V72.9253H45.6758V57.0972Z" fill="#F498D8"/>
<path d="M45.6758 57.0974H29.8477V41.2686H33.4883L45.6758 54.1885V57.0974Z" fill="#F498D8"/>
<path d="M61.5044 57.1387H45.6763V72.9668H61.5044V57.1387Z" fill="#F498D8"/>
<path d="M29.8477 72.9253L37.7407 80.8604L45.6758 72.9665L29.8477 72.9253Z" fill="#E593D4"/>
<path d="M45.6763 72.9253L53.5701 80.8604L61.5044 72.9665L45.6763 72.9253Z" fill="#E593D4"/>
<path d="M29.8478 41.2686L19.1553 47.9651L19.6763 51.8741H29.8478V41.2686Z" fill="#E593D4"/>
<path d="M24.7625 44.4532L21.5005 35L28.227 42.2836L24.7625 44.4532Z" fill="#F498D8"/>
<path d="M61.5049 57.0972L70 65.6283H63.2307L61.5049 57.0972Z" fill="#FFA1E7"/>
<path d="M29.848 41.2686L28.2271 51.8741H29.848V41.2686Z" fill="#D68BC8"/>
<path d="M29.8477 57.0973H45.1075L29.8477 56.5215V57.0973Z" fill="#D68BC8"/>
<path d="M29.8477 72.9253L45.6758 57.0972L30.7008 72.9276L29.8477 72.9253Z" fill="#D68BC8"/>
<path d="M45.676 72.9255L38.1885 65.0122L45.1077 72.9653L45.676 72.9255Z" fill="#D68BC8"/>
<path d="M45.6763 72.9253L61.5052 57.0972L46.5295 72.9276L45.6763 72.9253Z" fill="#D68BC8"/>
<path d="M61.5044 72.9665L53.5903 65.9873L61.5052 72.2385L61.5044 72.9665Z" fill="#D68BC8"/>
<path d="M45.6763 57.0972L51.1807 63.0102L46.2985 57.0972H45.6763Z" fill="#D68BC8"/>
<path d="M29.8477 72.9253H45.6758L30.7346 73.8175L29.8477 72.9253Z" fill="#D68BC8"/>
<path d="M46.5639 73.8175L61.5044 72.9665L45.6763 72.9253L46.5639 73.8175Z" fill="#D68BC8"/>
<path d="M29.8477 72.9256L30.8433 71.93L29.8477 41.2686V72.9256Z" fill="#FFA1E7"/>
<path d="M19.6763 51.8741H20.9006L20.2889 48.6315L29.3043 41.6089L19.1553 47.965L19.6763 51.8741Z" fill="#FFA1E7"/>
</svg>
