<svg width="88" height="115" viewBox="0 0 88 115" fill="none" xmlns="http://www.w3.org/2000/svg">
<path d="M60.9998 51.3999V72.4999L52.2998 80.3999L60.1998 72.4999V51.3999H60.9998Z" fill="#F1DE5D"/>
<path d="M27.6002 64.2001L18.7002 71.7001L19.5002 64.4001L35.7002 57.6001L27.6002 64.2001Z" fill="#F1DE5D"/>
<path d="M44.3999 56.7002H60.1999V72.5002H44.3999V56.7002Z" fill="#FFF22B"/>
<path d="M44.3999 56.6999H60.1999V40.8999L44.3999 56.6999Z" fill="#FFF22B"/>
<path d="M36.5001 56.7002H44.4001V72.5002H28.6001V64.1002L36.5001 56.7002Z" fill="#FFF22B"/>
<path d="M60.1999 72.5L52.2999 80.4L44.3999 72.5H60.1999Z" fill="#FFED2C"/>
<path d="M44.4001 72.5L36.5001 80.4L28.6001 72.5H44.4001Z" fill="#FFED2C"/>
<path d="M60.2002 40.7998L70.9002 47.4998L70.4002 51.3998H60.2002V40.7998Z" fill="#FFED2C"/>
<path d="M67.4002 45.3L73.7002 36.5L64.2002 43.3L67.4002 45.3Z" fill="#FFF22B"/>
<path d="M32.6 57.4999L19.5 64.2999L28.6 64.0999L35.7 57.3999H32.6V57.4999Z" fill="#FFF883"/>
<path d="M60.2002 40.7998L61.8002 51.3998H60.2002V40.7998Z" fill="#FFE325"/>
<path d="M60.1999 56.7001H44.8999L60.1999 56.1001V56.7001Z" fill="#FFE325"/>
<path d="M60.1999 72.5002L44.3999 56.7002L59.3999 72.5002H60.1999Z" fill="#FFE325"/>
<path d="M44.3999 72.5001L51.8999 64.6001L44.9999 72.6001L44.3999 72.5001Z" fill="#FFE325"/>
<path d="M44.4001 72.5L44.0001 57.5L43.6001 72.5H44.4001Z" fill="#FFE325"/>
<path d="M44.4001 56.7001L28.6001 72.5001L43.8001 56.6001H44.4001V56.7001Z" fill="#FFE325"/>
<path d="M60.1999 72.5H44.3999L59.2999 73.4L60.1999 72.5Z" fill="#FFE325"/>
<path d="M43.5001 73.4L28.6001 72.5H44.4001L43.5001 73.4Z" fill="#FFE325"/>
<path d="M60.2002 72.4998L59.2002 71.4998L60.2002 40.7998V72.4998Z" fill="#FFF883"/>
<path d="M70.3998 51.4002H69.1998L69.7998 48.2002L60.7998 41.2002L70.8998 47.6002L70.3998 51.4002Z" fill="#F1DE5D"/>
<path d="M56.8999 41.2002L44.3999 52.3002V56.7002L59.9999 41.2002H56.8999Z" fill="#FFF883"/>
</svg>
