<svg width="88" height="115" viewBox="0 0 88 115" fill="none" xmlns="http://www.w3.org/2000/svg">
<path d="M46.0642 2.14655C53.5742 2.8677 60.1788 6.38331 66.6235 13.072C71.3106 17.9578 74.897 23.2762 78.2702 30.3796C82.1939 38.6548 84.7328 47.8494 85.7092 57.2604C86.0998 61.0825 86.0998 67.8794 85.6915 71.2868C85.1766 75.7399 84.3422 79.6341 83.0994 83.312C77.5068 100.043 64.2977 111.184 48.0172 112.861C45.3008 113.15 39.868 112.969 37.2936 112.501C32.1449 111.581 27.9194 110.013 23.6762 107.452C15.8999 102.765 10.2185 96.0943 6.36589 87.0619C0.134178 72.5308 0.595786 53.7629 7.60868 35.4997C8.79821 32.3808 11.8874 26.1789 13.6628 23.2943C17.7111 16.7487 22.3293 11.5942 27.2887 8" stroke="#BAA9FF" stroke-width="3" stroke-linecap="round"/>
</svg>
