<svg width="374" height="106" viewBox="0 0 374 106" fill="none" xmlns="http://www.w3.org/2000/svg">
<path d="M331.5 48.5H332V48H331.5V48.5ZM331 90.5V91H332V90.5H331ZM187 48.5H186.5V49H187V48.5ZM186.5 10V11.925H187.5V10H186.5ZM186.5 15.775V19.625H187.5V15.775H186.5ZM186.5 23.475V27.325H187.5V23.475H186.5ZM186.5 31.175V35.025H187.5V31.175H186.5ZM186.5 38.875V42.725H187.5V38.875H186.5ZM186.5 46.575V48.5H187.5V46.575H186.5ZM187 49H189.007V48H187V49ZM193.021 49H197.035V48H193.021V49ZM201.049 49H205.062V48H201.049V49ZM209.076 49H213.09V48H209.076V49ZM217.104 49H221.118V48H217.104V49ZM225.132 49H229.146V48H225.132V49ZM233.16 49H237.174V48H233.16V49ZM241.188 49H245.201V48H241.188V49ZM249.215 49H253.229V48H249.215V49ZM257.243 49H261.257V48H257.243V49ZM265.271 49H269.285V48H265.271V49ZM273.299 49H277.312V48H273.299V49ZM281.326 49H285.34V48H281.326V49ZM289.354 49H293.368V48H289.354V49ZM297.382 49H301.396V48H297.382V49ZM305.41 49H309.424V48H305.41V49ZM313.437 49H317.451V48H313.437V49ZM321.465 49H325.479V48H321.465V49ZM329.493 49H331.5V48H329.493V49ZM331 48.5V50.6H332V48.5H331ZM331 54.8V59H332V54.8H331ZM331 63.2V67.4H332V63.2H331ZM331 71.6V75.8H332V71.6H331ZM331 80V84.2H332V80H331ZM331 88.4V90.5H332V88.4H331Z" fill="#727679"/>
<path d="M328 92L331.124 95.57C331.323 95.7976 331.677 95.7976 331.876 95.57L335 92" stroke="#727679" stroke-linecap="round"/>
</svg>
