<svg width="359" height="186" viewBox="0 0 359 186" fill="none" xmlns="http://www.w3.org/2000/svg">
<g filter="url(#filter0_d_812_13295)">
<g clip-path="url(#clip0_812_13295)">
<rect x="8" y="4" width="343" height="170" rx="8" fill="white"/>
<path d="M214 169L254.186 95L270.959 121.5L308 4" stroke="#E1DADA" stroke-dasharray="4 4"/>
<g clip-path="url(#clip1_812_13295)">
<path d="M259 176L199 210.641V141.359L259 176Z" fill="#F0D54C"/>
<path d="M139 176L199 210.641V141.359L139 176Z" fill="#F6E58B"/>
<path d="M91 175L31 238.22L31 111.78L91 175Z" fill="#7CA8B7"/>
<path d="M388 175L328 238.22V111.78L388 175Z" fill="#8F67B1"/>
<path d="M201 173.5L120 214.636L120 132.364L201 173.5Z" fill="#C0D827"/>
<path d="M308 182L248 216.641V147.359L308 182Z" fill="#EA7D62"/>
<path d="M-29 175L31 238.22L31 111.78L-29 175Z" fill="#B0E4EB"/>
<path d="M268 175L328 238.22V111.78L268 175Z" fill="#CEA6F1"/>
<path d="M39 173.5L120 214.636L120 132.364L39 173.5Z" fill="#D7F12F"/>
<path d="M189 182L249 216.641V147.359L189 182Z" fill="#FFA48D"/>
</g>
<path d="M32.18 46.16C31.1267 46.16 30.1067 46 29.12 45.68C28.1467 45.3467 27.38 44.92 26.82 44.4L27.56 42.84C28.0933 43.32 28.7733 43.7133 29.6 44.02C30.44 44.3133 31.3 44.46 32.18 44.46C33.34 44.46 34.2067 44.2667 34.78 43.88C35.3533 43.48 35.64 42.9533 35.64 42.3C35.64 41.82 35.48 41.4333 35.16 41.14C34.8533 40.8333 34.4667 40.6 34 40.44C33.5467 40.28 32.9 40.1 32.06 39.9C31.0067 39.6467 30.1533 39.3933 29.5 39.14C28.86 38.8867 28.3067 38.5 27.84 37.98C27.3867 37.4467 27.16 36.7333 27.16 35.84C27.16 35.0933 27.3533 34.42 27.74 33.82C28.14 33.22 28.74 32.74 29.54 32.38C30.34 32.02 31.3333 31.84 32.52 31.84C33.3467 31.84 34.16 31.9467 34.96 32.16C35.76 32.3733 36.4467 32.68 37.02 33.08L36.36 34.68C35.7733 34.3067 35.1467 34.0267 34.48 33.84C33.8133 33.64 33.16 33.54 32.52 33.54C31.3867 33.54 30.5333 33.7467 29.96 34.16C29.4 34.5733 29.12 35.1067 29.12 35.76C29.12 36.24 29.28 36.6333 29.6 36.94C29.92 37.2333 30.3133 37.4667 30.78 37.64C31.26 37.8 31.9067 37.9733 32.72 38.16C33.7733 38.4133 34.62 38.6667 35.26 38.92C35.9 39.1733 36.4467 39.56 36.9 40.08C37.3667 40.6 37.6 41.3 37.6 42.18C37.6 42.9133 37.4 43.5867 37 44.2C36.6 44.8 35.9933 45.28 35.18 45.64C34.3667 45.9867 33.3667 46.16 32.18 46.16ZM50.1219 35.4V46H48.3019V44.4C47.9152 44.9467 47.4019 45.3733 46.7619 45.68C46.1352 45.9733 45.4485 46.12 44.7019 46.12C43.2885 46.12 42.1752 45.7333 41.3619 44.96C40.5485 44.1733 40.1419 43.02 40.1419 41.5V35.4H42.0619V41.28C42.0619 42.3067 42.3085 43.0867 42.8019 43.62C43.2952 44.14 44.0019 44.4 44.9219 44.4C45.9352 44.4 46.7352 44.0933 47.3219 43.48C47.9085 42.8667 48.2019 42 48.2019 40.88V35.4H50.1219ZM59.397 35.3C60.4237 35.3 61.3437 35.5267 62.157 35.98C62.9704 36.4333 63.6037 37.0667 64.057 37.88C64.5237 38.6933 64.757 39.6333 64.757 40.7C64.757 41.7667 64.5237 42.7133 64.057 43.54C63.6037 44.3533 62.9704 44.9867 62.157 45.44C61.3437 45.8933 60.4237 46.12 59.397 46.12C58.6104 46.12 57.8904 45.9667 57.237 45.66C56.5837 45.3533 56.0437 44.9067 55.617 44.32V46H53.777V31.16H55.697V37C56.1237 36.44 56.657 36.02 57.297 35.74C57.937 35.4467 58.637 35.3 59.397 35.3ZM59.237 44.44C59.917 44.44 60.5237 44.2867 61.057 43.98C61.6037 43.66 62.0304 43.22 62.337 42.66C62.657 42.0867 62.817 41.4333 62.817 40.7C62.817 39.9667 62.657 39.32 62.337 38.76C62.0304 38.1867 61.6037 37.7467 61.057 37.44C60.5237 37.1333 59.917 36.98 59.237 36.98C58.5704 36.98 57.9637 37.1333 57.417 37.44C56.8704 37.7467 56.4437 38.1867 56.137 38.76C55.8304 39.32 55.677 39.9667 55.677 40.7C55.677 41.4333 55.8304 42.0867 56.137 42.66C56.4437 43.22 56.8704 43.66 57.417 43.98C57.9637 44.2867 58.5704 44.44 59.237 44.44ZM70.4498 46.12C69.5832 46.12 68.7498 46.0067 67.9498 45.78C67.1498 45.54 66.5232 45.24 66.0698 44.88L66.8698 43.36C67.3365 43.6933 67.9032 43.96 68.5698 44.16C69.2365 44.36 69.9098 44.46 70.5898 44.46C72.2698 44.46 73.1098 43.98 73.1098 43.02C73.1098 42.7 72.9965 42.4467 72.7698 42.26C72.5432 42.0733 72.2565 41.94 71.9098 41.86C71.5765 41.7667 71.0965 41.6667 70.4698 41.56C69.6165 41.4267 68.9165 41.2733 68.3698 41.1C67.8365 40.9267 67.3765 40.6333 66.9898 40.22C66.6032 39.8067 66.4098 39.2267 66.4098 38.48C66.4098 37.52 66.8098 36.7533 67.6098 36.18C68.4098 35.5933 69.4832 35.3 70.8298 35.3C71.5365 35.3 72.2432 35.3867 72.9498 35.56C73.6565 35.7333 74.2365 35.9667 74.6898 36.26L73.8698 37.78C73.0032 37.22 71.9832 36.94 70.8098 36.94C69.9965 36.94 69.3765 37.0733 68.9498 37.34C68.5232 37.6067 68.3098 37.96 68.3098 38.4C68.3098 38.7467 68.4298 39.02 68.6698 39.22C68.9098 39.42 69.2032 39.5667 69.5498 39.66C69.9098 39.7533 70.4098 39.86 71.0498 39.98C71.9032 40.1267 72.5898 40.2867 73.1098 40.46C73.6432 40.62 74.0965 40.9 74.4698 41.3C74.8432 41.7 75.0298 42.26 75.0298 42.98C75.0298 43.94 74.6165 44.7067 73.7898 45.28C72.9765 45.84 71.8632 46.12 70.4498 46.12ZM82.0494 46.12C80.9694 46.12 80.0027 45.8867 79.1494 45.42C78.3094 44.9533 77.6494 44.3133 77.1694 43.5C76.6894 42.6733 76.4494 41.74 76.4494 40.7C76.4494 39.66 76.6894 38.7333 77.1694 37.92C77.6494 37.0933 78.3094 36.4533 79.1494 36C80.0027 35.5333 80.9694 35.3 82.0494 35.3C83.0094 35.3 83.8627 35.4933 84.6094 35.88C85.3694 36.2667 85.956 36.8267 86.3694 37.56L84.9094 38.5C84.576 37.9933 84.1627 37.6133 83.6694 37.36C83.176 37.1067 82.6294 36.98 82.0294 36.98C81.336 36.98 80.7094 37.1333 80.1494 37.44C79.6027 37.7467 79.1694 38.1867 78.8494 38.76C78.5427 39.32 78.3894 39.9667 78.3894 40.7C78.3894 41.4467 78.5427 42.1067 78.8494 42.68C79.1694 43.24 79.6027 43.6733 80.1494 43.98C80.7094 44.2867 81.336 44.44 82.0294 44.44C82.6294 44.44 83.176 44.3133 83.6694 44.06C84.1627 43.8067 84.576 43.4267 84.9094 42.92L86.3694 43.84C85.956 44.5733 85.3694 45.14 84.6094 45.54C83.8627 45.9267 83.0094 46.12 82.0494 46.12ZM90.6952 37.18C91.0285 36.5667 91.5218 36.1 92.1752 35.78C92.8285 35.46 93.6218 35.3 94.5552 35.3V37.16C94.4485 37.1467 94.3018 37.14 94.1152 37.14C93.0752 37.14 92.2552 37.4533 91.6552 38.08C91.0685 38.6933 90.7752 39.5733 90.7752 40.72V46H88.8552V35.4H90.6952V37.18ZM96.9216 35.4H98.8416V46H96.9216V35.4ZM97.8816 33.36C97.5082 33.36 97.1949 33.24 96.9416 33C96.7016 32.76 96.5816 32.4667 96.5816 32.12C96.5816 31.7733 96.7016 31.48 96.9416 31.24C97.1949 30.9867 97.5082 30.86 97.8816 30.86C98.2549 30.86 98.5616 30.98 98.8016 31.22C99.0549 31.4467 99.1816 31.7333 99.1816 32.08C99.1816 32.44 99.0549 32.7467 98.8016 33C98.5616 33.24 98.2549 33.36 97.8816 33.36ZM108.128 35.3C109.154 35.3 110.074 35.5267 110.888 35.98C111.701 36.4333 112.334 37.0667 112.788 37.88C113.254 38.6933 113.488 39.6333 113.488 40.7C113.488 41.7667 113.254 42.7133 112.788 43.54C112.334 44.3533 111.701 44.9867 110.888 45.44C110.074 45.8933 109.154 46.12 108.128 46.12C107.341 46.12 106.621 45.9667 105.967 45.66C105.314 45.3533 104.774 44.9067 104.348 44.32V46H102.508V31.16H104.428V37C104.854 36.44 105.388 36.02 106.028 35.74C106.668 35.4467 107.368 35.3 108.128 35.3ZM107.968 44.44C108.648 44.44 109.254 44.2867 109.788 43.98C110.334 43.66 110.761 43.22 111.068 42.66C111.388 42.0867 111.548 41.4333 111.548 40.7C111.548 39.9667 111.388 39.32 111.068 38.76C110.761 38.1867 110.334 37.7467 109.788 37.44C109.254 37.1333 108.648 36.98 107.968 36.98C107.301 36.98 106.694 37.1333 106.148 37.44C105.601 37.7467 105.174 38.1867 104.868 38.76C104.561 39.32 104.408 39.9667 104.408 40.7C104.408 41.4333 104.561 42.0867 104.868 42.66C105.174 43.22 105.601 43.66 106.148 43.98C106.694 44.2867 107.301 44.44 107.968 44.44ZM125.72 40.76C125.72 40.9067 125.707 41.1 125.68 41.34H117.08C117.2 42.2733 117.607 43.0267 118.3 43.6C119.007 44.16 119.88 44.44 120.92 44.44C122.187 44.44 123.207 44.0133 123.98 43.16L125.04 44.4C124.56 44.96 123.96 45.3867 123.24 45.68C122.534 45.9733 121.74 46.12 120.86 46.12C119.74 46.12 118.747 45.8933 117.88 45.44C117.014 44.9733 116.34 44.3267 115.86 43.5C115.394 42.6733 115.16 41.74 115.16 40.7C115.16 39.6733 115.387 38.7467 115.84 37.92C116.307 37.0933 116.94 36.4533 117.74 36C118.554 35.5333 119.467 35.3 120.48 35.3C121.494 35.3 122.394 35.5333 123.18 36C123.98 36.4533 124.6 37.0933 125.04 37.92C125.494 38.7467 125.72 39.6933 125.72 40.76ZM120.48 36.92C119.56 36.92 118.787 37.2 118.16 37.76C117.547 38.32 117.187 39.0533 117.08 39.96H123.88C123.774 39.0667 123.407 38.34 122.78 37.78C122.167 37.2067 121.4 36.92 120.48 36.92ZM243.839 45.38C243.559 45.62 243.212 45.8067 242.799 45.94C242.385 46.06 241.959 46.12 241.519 46.12C240.452 46.12 239.625 45.8333 239.039 45.26C238.452 44.6867 238.159 43.8667 238.159 42.8V36.98H236.359V35.4H238.159V33.08H240.079V35.4H243.119V36.98H240.079V42.72C240.079 43.2933 240.219 43.7333 240.499 44.04C240.792 44.3467 241.205 44.5 241.739 44.5C242.325 44.5 242.825 44.3333 243.239 44L243.839 45.38ZM251.82 35.3C253.167 35.3 254.233 35.6933 255.02 36.48C255.82 37.2533 256.22 38.3933 256.22 39.9V46H254.3V40.12C254.3 39.0933 254.053 38.32 253.56 37.8C253.067 37.28 252.36 37.02 251.44 37.02C250.4 37.02 249.58 37.3267 248.98 37.94C248.38 38.54 248.08 39.4067 248.08 40.54V46H246.16V31.16H248.08V36.9C248.48 36.3933 249 36 249.64 35.72C250.293 35.44 251.02 35.3 251.82 35.3ZM269.412 40.76C269.412 40.9067 269.398 41.1 269.372 41.34H260.772C260.892 42.2733 261.298 43.0267 261.992 43.6C262.698 44.16 263.572 44.44 264.612 44.44C265.878 44.44 266.898 44.0133 267.672 43.16L268.732 44.4C268.252 44.96 267.652 45.3867 266.932 45.68C266.225 45.9733 265.432 46.12 264.552 46.12C263.432 46.12 262.438 45.8933 261.572 45.44C260.705 44.9733 260.032 44.3267 259.552 43.5C259.085 42.6733 258.852 41.74 258.852 40.7C258.852 39.6733 259.078 38.7467 259.532 37.92C259.998 37.0933 260.632 36.4533 261.432 36C262.245 35.5333 263.158 35.3 264.172 35.3C265.185 35.3 266.085 35.5333 266.872 36C267.672 36.4533 268.292 37.0933 268.732 37.92C269.185 38.7467 269.412 39.6933 269.412 40.76ZM264.172 36.92C263.252 36.92 262.478 37.2 261.852 37.76C261.238 38.32 260.878 39.0533 260.772 39.96H267.572C267.465 39.0667 267.098 38.34 266.472 37.78C265.858 37.2067 265.092 36.92 264.172 36.92ZM31.7 56.62C30.5533 56.62 29.98 57.24 29.98 58.48V59.4H33.06V60.98H30.02V70H28.1V60.98H26.3V59.4H28.1V58.46C28.1 57.4067 28.4067 56.5733 29.02 55.96C29.6333 55.3467 30.4933 55.04 31.6 55.04C32.0267 55.04 32.4267 55.0933 32.8 55.2C33.1733 55.3067 33.4933 55.46 33.76 55.66L33.18 57.12C32.74 56.7867 32.2467 56.62 31.7 56.62ZM44.7508 59.4V70H42.9308V68.4C42.5441 68.9467 42.0308 69.3733 41.3908 69.68C40.7641 69.9733 40.0774 70.12 39.3308 70.12C37.9174 70.12 36.8041 69.7333 35.9908 68.96C35.1774 68.1733 34.7708 67.02 34.7708 65.5V59.4H36.6908V65.28C36.6908 66.3067 36.9374 67.0867 37.4308 67.62C37.9241 68.14 38.6308 68.4 39.5508 68.4C40.5641 68.4 41.3641 68.0933 41.9508 67.48C42.5374 66.8667 42.8308 66 42.8308 64.88V59.4H44.7508ZM48.4059 55.16H50.3259V70H48.4059V55.16ZM53.9919 55.16H55.9119V70H53.9919V55.16ZM70.5689 59.3C71.5956 59.3 72.5156 59.5267 73.3289 59.98C74.1422 60.4333 74.7756 61.0667 75.2289 61.88C75.6956 62.6933 75.9289 63.6333 75.9289 64.7C75.9289 65.7667 75.6956 66.7133 75.2289 67.54C74.7756 68.3533 74.1422 68.9867 73.3289 69.44C72.5156 69.8933 71.5956 70.12 70.5689 70.12C69.8089 70.12 69.1089 69.9733 68.4689 69.68C67.8422 69.3867 67.3089 68.96 66.8689 68.4V73.88H64.9489V59.4H66.7889V61.08C67.2156 60.4933 67.7556 60.0533 68.4089 59.76C69.0622 59.4533 69.7822 59.3 70.5689 59.3ZM70.4089 68.44C71.0889 68.44 71.6956 68.2867 72.2289 67.98C72.7756 67.66 73.2022 67.22 73.5089 66.66C73.8289 66.0867 73.9889 65.4333 73.9889 64.7C73.9889 63.9667 73.8289 63.32 73.5089 62.76C73.2022 62.1867 72.7756 61.7467 72.2289 61.44C71.6956 61.1333 71.0889 60.98 70.4089 60.98C69.7422 60.98 69.1356 61.14 68.5889 61.46C68.0556 61.7667 67.6289 62.2 67.3089 62.76C67.0022 63.32 66.8489 63.9667 66.8489 64.7C66.8489 65.4333 67.0022 66.0867 67.3089 66.66C67.6156 67.22 68.0422 67.66 68.5889 67.98C69.1356 68.2867 69.7422 68.44 70.4089 68.44ZM83.1217 70.12C82.0684 70.12 81.1217 69.8867 80.2817 69.42C79.4417 68.9533 78.7817 68.3133 78.3017 67.5C77.8351 66.6733 77.6017 65.74 77.6017 64.7C77.6017 63.66 77.8351 62.7333 78.3017 61.92C78.7817 61.0933 79.4417 60.4533 80.2817 60C81.1217 59.5333 82.0684 59.3 83.1217 59.3C84.1751 59.3 85.1151 59.5333 85.9417 60C86.7817 60.4533 87.4351 61.0933 87.9017 61.92C88.3817 62.7333 88.6217 63.66 88.6217 64.7C88.6217 65.74 88.3817 66.6733 87.9017 67.5C87.4351 68.3133 86.7817 68.9533 85.9417 69.42C85.1151 69.8867 84.1751 70.12 83.1217 70.12ZM83.1217 68.44C83.8017 68.44 84.4084 68.2867 84.9417 67.98C85.4884 67.66 85.9151 67.22 86.2217 66.66C86.5284 66.0867 86.6817 65.4333 86.6817 64.7C86.6817 63.9667 86.5284 63.32 86.2217 62.76C85.9151 62.1867 85.4884 61.7467 84.9417 61.44C84.4084 61.1333 83.8017 60.98 83.1217 60.98C82.4417 60.98 81.8284 61.1333 81.2817 61.44C80.7484 61.7467 80.3217 62.1867 80.0017 62.76C79.6951 63.32 79.5417 63.9667 79.5417 64.7C79.5417 65.4333 79.6951 66.0867 80.0017 66.66C80.3217 67.22 80.7484 67.66 81.2817 67.98C81.8284 68.2867 82.4417 68.44 83.1217 68.44ZM97.237 69.38C96.957 69.62 96.6104 69.8067 96.197 69.94C95.7837 70.06 95.357 70.12 94.917 70.12C93.8504 70.12 93.0237 69.8333 92.437 69.26C91.8504 68.6867 91.557 67.8667 91.557 66.8V60.98H89.757V59.4H91.557V57.08H93.477V59.4H96.517V60.98H93.477V66.72C93.477 67.2933 93.617 67.7333 93.897 68.04C94.1904 68.3467 94.6037 68.5 95.137 68.5C95.7237 68.5 96.2237 68.3333 96.637 68L97.237 69.38ZM108.787 64.76C108.787 64.9067 108.773 65.1 108.747 65.34H100.147C100.267 66.2733 100.673 67.0267 101.367 67.6C102.073 68.16 102.947 68.44 103.987 68.44C105.253 68.44 106.273 68.0133 107.047 67.16L108.107 68.4C107.627 68.96 107.027 69.3867 106.307 69.68C105.6 69.9733 104.807 70.12 103.927 70.12C102.807 70.12 101.813 69.8933 100.947 69.44C100.08 68.9733 99.4067 68.3267 98.9267 67.5C98.4601 66.6733 98.2267 65.74 98.2267 64.7C98.2267 63.6733 98.4534 62.7467 98.9067 61.92C99.3734 61.0933 100.007 60.4533 100.807 60C101.62 59.5333 102.533 59.3 103.547 59.3C104.56 59.3 105.46 59.5333 106.247 60C107.047 60.4533 107.667 61.0933 108.107 61.92C108.56 62.7467 108.787 63.6933 108.787 64.76ZM103.547 60.92C102.627 60.92 101.853 61.2 101.227 61.76C100.613 62.32 100.253 63.0533 100.147 63.96H106.947C106.84 63.0667 106.473 62.34 105.847 61.78C105.233 61.2067 104.467 60.92 103.547 60.92ZM117.113 59.3C118.459 59.3 119.526 59.6933 120.313 60.48C121.113 61.2533 121.513 62.3933 121.513 63.9V70H119.593V64.12C119.593 63.0933 119.346 62.32 118.853 61.8C118.359 61.28 117.653 61.02 116.733 61.02C115.693 61.02 114.873 61.3267 114.273 61.94C113.673 62.54 113.373 63.4067 113.373 64.54V70H111.453V59.4H113.293V61C113.679 60.4533 114.199 60.0333 114.853 59.74C115.519 59.4467 116.273 59.3 117.113 59.3ZM131.026 69.38C130.746 69.62 130.399 69.8067 129.986 69.94C129.573 70.06 129.146 70.12 128.706 70.12C127.639 70.12 126.813 69.8333 126.226 69.26C125.639 68.6867 125.346 67.8667 125.346 66.8V60.98H123.546V59.4H125.346V57.08H127.266V59.4H130.306V60.98H127.266V66.72C127.266 67.2933 127.406 67.7333 127.686 68.04C127.979 68.3467 128.393 68.5 128.926 68.5C129.513 68.5 130.013 68.3333 130.426 68L131.026 69.38ZM133.347 59.4H135.267V70H133.347V59.4ZM134.307 57.36C133.934 57.36 133.621 57.24 133.367 57C133.127 56.76 133.007 56.4667 133.007 56.12C133.007 55.7733 133.127 55.48 133.367 55.24C133.621 54.9867 133.934 54.86 134.307 54.86C134.681 54.86 134.987 54.98 135.227 55.22C135.481 55.4467 135.607 55.7333 135.607 56.08C135.607 56.44 135.481 56.7467 135.227 57C134.987 57.24 134.681 57.36 134.307 57.36ZM142.793 59.3C144.26 59.3 145.38 59.66 146.153 60.38C146.94 61.1 147.333 62.1733 147.333 63.6V70H145.513V68.6C145.193 69.0933 144.733 69.4733 144.133 69.74C143.547 69.9933 142.847 70.12 142.033 70.12C140.847 70.12 139.893 69.8333 139.173 69.26C138.467 68.6867 138.113 67.9333 138.113 67C138.113 66.0667 138.453 65.32 139.133 64.76C139.813 64.1867 140.893 63.9 142.373 63.9H145.413V63.52C145.413 62.6933 145.173 62.06 144.693 61.62C144.213 61.18 143.507 60.96 142.573 60.96C141.947 60.96 141.333 61.0667 140.733 61.28C140.133 61.48 139.627 61.7533 139.213 62.1L138.413 60.66C138.96 60.22 139.613 59.8867 140.373 59.66C141.133 59.42 141.94 59.3 142.793 59.3ZM142.353 68.64C143.087 68.64 143.72 68.48 144.253 68.16C144.787 67.8267 145.173 67.36 145.413 66.76V65.28H142.453C140.827 65.28 140.013 65.8267 140.013 66.92C140.013 67.4533 140.22 67.8733 140.633 68.18C141.047 68.4867 141.62 68.64 142.353 68.64ZM150.886 55.16H152.806V70H150.886V55.16ZM166.383 70.12C165.33 70.12 164.383 69.8867 163.543 69.42C162.703 68.9533 162.043 68.3133 161.563 67.5C161.097 66.6733 160.863 65.74 160.863 64.7C160.863 63.66 161.097 62.7333 161.563 61.92C162.043 61.0933 162.703 60.4533 163.543 60C164.383 59.5333 165.33 59.3 166.383 59.3C167.437 59.3 168.377 59.5333 169.203 60C170.043 60.4533 170.697 61.0933 171.163 61.92C171.643 62.7333 171.883 63.66 171.883 64.7C171.883 65.74 171.643 66.6733 171.163 67.5C170.697 68.3133 170.043 68.9533 169.203 69.42C168.377 69.8867 167.437 70.12 166.383 70.12ZM166.383 68.44C167.063 68.44 167.67 68.2867 168.203 67.98C168.75 67.66 169.177 67.22 169.483 66.66C169.79 66.0867 169.943 65.4333 169.943 64.7C169.943 63.9667 169.79 63.32 169.483 62.76C169.177 62.1867 168.75 61.7467 168.203 61.44C167.67 61.1333 167.063 60.98 166.383 60.98C165.703 60.98 165.09 61.1333 164.543 61.44C164.01 61.7467 163.583 62.1867 163.263 62.76C162.957 63.32 162.803 63.9667 162.803 64.7C162.803 65.4333 162.957 66.0867 163.263 66.66C163.583 67.22 164.01 67.66 164.543 67.98C165.09 68.2867 165.703 68.44 166.383 68.44ZM178.419 56.62C177.272 56.62 176.699 57.24 176.699 58.48V59.4H179.779V60.98H176.739V70H174.819V60.98H173.019V59.4H174.819V58.46C174.819 57.4067 175.125 56.5733 175.739 55.96C176.352 55.3467 177.212 55.04 178.319 55.04C178.745 55.04 179.145 55.0933 179.519 55.2C179.892 55.3067 180.212 55.46 180.479 55.66L179.899 57.12C179.459 56.7867 178.965 56.62 178.419 56.62ZM192.921 69.38C192.641 69.62 192.294 69.8067 191.881 69.94C191.467 70.06 191.041 70.12 190.601 70.12C189.534 70.12 188.707 69.8333 188.121 69.26C187.534 68.6867 187.241 67.8667 187.241 66.8V60.98H185.441V59.4H187.241V57.08H189.161V59.4H192.201V60.98H189.161V66.72C189.161 67.2933 189.301 67.7333 189.581 68.04C189.874 68.3467 190.287 68.5 190.821 68.5C191.407 68.5 191.907 68.3333 192.321 68L192.921 69.38ZM200.902 59.3C202.249 59.3 203.315 59.6933 204.102 60.48C204.902 61.2533 205.302 62.3933 205.302 63.9V70H203.382V64.12C203.382 63.0933 203.135 62.32 202.642 61.8C202.149 61.28 201.442 61.02 200.522 61.02C199.482 61.02 198.662 61.3267 198.062 61.94C197.462 62.54 197.162 63.4067 197.162 64.54V70H195.242V55.16H197.162V60.9C197.562 60.3933 198.082 60 198.722 59.72C199.375 59.44 200.102 59.3 200.902 59.3ZM218.494 64.76C218.494 64.9067 218.48 65.1 218.454 65.34H209.854C209.974 66.2733 210.38 67.0267 211.074 67.6C211.78 68.16 212.654 68.44 213.694 68.44C214.96 68.44 215.98 68.0133 216.754 67.16L217.814 68.4C217.334 68.96 216.734 69.3867 216.014 69.68C215.307 69.9733 214.514 70.12 213.634 70.12C212.514 70.12 211.52 69.8933 210.654 69.44C209.787 68.9733 209.114 68.3267 208.634 67.5C208.167 66.6733 207.934 65.74 207.934 64.7C207.934 63.6733 208.16 62.7467 208.614 61.92C209.08 61.0933 209.714 60.4533 210.514 60C211.327 59.5333 212.24 59.3 213.254 59.3C214.267 59.3 215.167 59.5333 215.954 60C216.754 60.4533 217.374 61.0933 217.814 61.92C218.267 62.7467 218.494 63.6933 218.494 64.76ZM213.254 60.92C212.334 60.92 211.56 61.2 210.934 61.76C210.32 62.32 209.96 63.0533 209.854 63.96H216.654C216.547 63.0667 216.18 62.34 215.554 61.78C214.94 61.2067 214.174 60.92 213.254 60.92ZM230.391 59.3C231.858 59.3 232.978 59.66 233.751 60.38C234.538 61.1 234.931 62.1733 234.931 63.6V70H233.111V68.6C232.791 69.0933 232.331 69.4733 231.731 69.74C231.144 69.9933 230.444 70.12 229.631 70.12C228.444 70.12 227.491 69.8333 226.771 69.26C226.064 68.6867 225.711 67.9333 225.711 67C225.711 66.0667 226.051 65.32 226.731 64.76C227.411 64.1867 228.491 63.9 229.971 63.9H233.011V63.52C233.011 62.6933 232.771 62.06 232.291 61.62C231.811 61.18 231.104 60.96 230.171 60.96C229.544 60.96 228.931 61.0667 228.331 61.28C227.731 61.48 227.224 61.7533 226.811 62.1L226.011 60.66C226.558 60.22 227.211 59.8867 227.971 59.66C228.731 59.42 229.538 59.3 230.391 59.3ZM229.951 68.64C230.684 68.64 231.318 68.48 231.851 68.16C232.384 67.8267 232.771 67.36 233.011 66.76V65.28H230.051C228.424 65.28 227.611 65.8267 227.611 66.92C227.611 67.4533 227.818 67.8733 228.231 68.18C228.644 68.4867 229.218 68.64 229.951 68.64ZM244.104 59.3C245.131 59.3 246.051 59.5267 246.864 59.98C247.677 60.4333 248.311 61.0667 248.764 61.88C249.231 62.6933 249.464 63.6333 249.464 64.7C249.464 65.7667 249.231 66.7133 248.764 67.54C248.311 68.3533 247.677 68.9867 246.864 69.44C246.051 69.8933 245.131 70.12 244.104 70.12C243.344 70.12 242.644 69.9733 242.004 69.68C241.377 69.3867 240.844 68.96 240.404 68.4V73.88H238.484V59.4H240.324V61.08C240.751 60.4933 241.291 60.0533 241.944 59.76C242.597 59.4533 243.317 59.3 244.104 59.3ZM243.944 68.44C244.624 68.44 245.231 68.2867 245.764 67.98C246.311 67.66 246.737 67.22 247.044 66.66C247.364 66.0867 247.524 65.4333 247.524 64.7C247.524 63.9667 247.364 63.32 247.044 62.76C246.737 62.1867 246.311 61.7467 245.764 61.44C245.231 61.1333 244.624 60.98 243.944 60.98C243.277 60.98 242.671 61.14 242.124 61.46C241.591 61.7667 241.164 62.2 240.844 62.76C240.537 63.32 240.384 63.9667 240.384 64.7C240.384 65.4333 240.537 66.0867 240.844 66.66C241.151 67.22 241.577 67.66 242.124 67.98C242.671 68.2867 243.277 68.44 243.944 68.44ZM257.737 59.3C258.764 59.3 259.684 59.5267 260.497 59.98C261.31 60.4333 261.944 61.0667 262.397 61.88C262.864 62.6933 263.097 63.6333 263.097 64.7C263.097 65.7667 262.864 66.7133 262.397 67.54C261.944 68.3533 261.31 68.9867 260.497 69.44C259.684 69.8933 258.764 70.12 257.737 70.12C256.977 70.12 256.277 69.9733 255.637 69.68C255.01 69.3867 254.477 68.96 254.037 68.4V73.88H252.117V59.4H253.957V61.08C254.384 60.4933 254.924 60.0533 255.577 59.76C256.23 59.4533 256.95 59.3 257.737 59.3ZM257.577 68.44C258.257 68.44 258.864 68.2867 259.397 67.98C259.944 67.66 260.37 67.22 260.677 66.66C260.997 66.0867 261.157 65.4333 261.157 64.7C261.157 63.9667 260.997 63.32 260.677 62.76C260.37 62.1867 259.944 61.7467 259.397 61.44C258.864 61.1333 258.257 60.98 257.577 60.98C256.91 60.98 256.304 61.14 255.757 61.46C255.224 61.7667 254.797 62.2 254.477 62.76C254.17 63.32 254.017 63.9667 254.017 64.7C254.017 65.4333 254.17 66.0867 254.477 66.66C254.784 67.22 255.21 67.66 255.757 67.98C256.304 68.2867 256.91 68.44 257.577 68.44Z" fill="#121111"/>
<path d="M140.318 45.48C140.011 45.7067 139.631 45.88 139.178 46C138.738 46.1067 138.271 46.16 137.778 46.16C136.498 46.16 135.504 45.8333 134.798 45.18C134.104 44.5267 133.758 43.5667 133.758 42.3V37.88H132.098V35.48H133.758V32.86H136.878V35.48H139.558V37.88H136.878V42.26C136.878 42.7133 136.991 43.0667 137.217 43.32C137.458 43.56 137.791 43.68 138.218 43.68C138.711 43.68 139.131 43.5467 139.478 43.28L140.318 45.48ZM146.857 46.16C145.724 46.16 144.704 45.9267 143.797 45.46C142.904 44.98 142.204 44.32 141.697 43.48C141.19 42.64 140.937 41.6867 140.937 40.62C140.937 39.5533 141.19 38.6 141.697 37.76C142.204 36.92 142.904 36.2667 143.797 35.8C144.704 35.32 145.724 35.08 146.857 35.08C147.99 35.08 149.004 35.32 149.897 35.8C150.79 36.2667 151.49 36.92 151.997 37.76C152.504 38.6 152.757 39.5533 152.757 40.62C152.757 41.6867 152.504 42.64 151.997 43.48C151.49 44.32 150.79 44.98 149.897 45.46C149.004 45.9267 147.99 46.16 146.857 46.16ZM146.857 43.6C147.657 43.6 148.31 43.3333 148.817 42.8C149.337 42.2533 149.597 41.5267 149.597 40.62C149.597 39.7133 149.337 38.9933 148.817 38.46C148.31 37.9133 147.657 37.64 146.857 37.64C146.057 37.64 145.397 37.9133 144.877 38.46C144.357 38.9933 144.097 39.7133 144.097 40.62C144.097 41.5267 144.357 42.2533 144.877 42.8C145.397 43.3333 146.057 43.6 146.857 43.6ZM171.346 35.24V46H168.386V44.72C167.973 45.1867 167.48 45.5467 166.906 45.8C166.333 46.04 165.713 46.16 165.046 46.16C163.633 46.16 162.513 45.7533 161.686 44.94C160.86 44.1267 160.446 42.92 160.446 41.32V35.24H163.566V40.86C163.566 42.5933 164.293 43.46 165.746 43.46C166.493 43.46 167.093 43.22 167.546 42.74C168 42.2467 168.226 41.52 168.226 40.56V35.24H171.346ZM180.777 35.08C182.11 35.08 183.184 35.48 183.997 36.28C184.824 37.08 185.237 38.2667 185.237 39.84V46H182.117V40.32C182.117 39.4667 181.93 38.8333 181.557 38.42C181.184 37.9933 180.644 37.78 179.937 37.78C179.15 37.78 178.524 38.0267 178.057 38.52C177.59 39 177.357 39.72 177.357 40.68V46H174.237V35.24H177.217V36.5C177.63 36.0467 178.144 35.7 178.757 35.46C179.37 35.2067 180.044 35.08 180.777 35.08ZM188.065 31.16H191.185V46H188.065V31.16ZM199.201 46.16C198.067 46.16 197.047 45.9267 196.141 45.46C195.247 44.98 194.547 44.32 194.041 43.48C193.534 42.64 193.281 41.6867 193.281 40.62C193.281 39.5533 193.534 38.6 194.041 37.76C194.547 36.92 195.247 36.2667 196.141 35.8C197.047 35.32 198.067 35.08 199.201 35.08C200.334 35.08 201.347 35.32 202.241 35.8C203.134 36.2667 203.834 36.92 204.341 37.76C204.847 38.6 205.101 39.5533 205.101 40.62C205.101 41.6867 204.847 42.64 204.341 43.48C203.834 44.32 203.134 44.98 202.241 45.46C201.347 45.9267 200.334 46.16 199.201 46.16ZM199.201 43.6C200.001 43.6 200.654 43.3333 201.161 42.8C201.681 42.2533 201.941 41.5267 201.941 40.62C201.941 39.7133 201.681 38.9933 201.161 38.46C200.654 37.9133 200.001 37.64 199.201 37.64C198.401 37.64 197.741 37.9133 197.221 38.46C196.701 38.9933 196.441 39.7133 196.441 40.62C196.441 41.5267 196.701 42.2533 197.221 42.8C197.741 43.3333 198.401 43.6 199.201 43.6ZM212.386 46.16C211.239 46.16 210.206 45.9267 209.286 45.46C208.379 44.98 207.666 44.32 207.146 43.48C206.639 42.64 206.386 41.6867 206.386 40.62C206.386 39.5533 206.639 38.6 207.146 37.76C207.666 36.92 208.379 36.2667 209.286 35.8C210.206 35.32 211.239 35.08 212.386 35.08C213.519 35.08 214.506 35.32 215.346 35.8C216.199 36.2667 216.819 36.94 217.206 37.82L214.786 39.12C214.226 38.1333 213.419 37.64 212.366 37.64C211.553 37.64 210.879 37.9067 210.346 38.44C209.813 38.9733 209.546 39.7 209.546 40.62C209.546 41.54 209.813 42.2667 210.346 42.8C210.879 43.3333 211.553 43.6 212.366 43.6C213.433 43.6 214.239 43.1067 214.786 42.12L217.206 43.44C216.819 44.2933 216.199 44.96 215.346 45.44C214.506 45.92 213.519 46.16 212.386 46.16ZM223.544 41.78L222.044 43.26V46H218.924V31.16H222.044V39.56L226.604 35.24H230.324L225.844 39.8L230.724 46H226.944L223.544 41.78Z" fill="#751E84"/>
<path d="M28.46 89.644V92.572H32.672V93.604H28.46V97H27.26V88.6H33.188V89.644H28.46ZM37.234 97.072C36.602 97.072 36.034 96.932 35.53 96.652C35.026 96.372 34.63 95.988 34.342 95.5C34.062 95.004 33.922 94.444 33.922 93.82C33.922 93.196 34.062 92.64 34.342 92.152C34.63 91.656 35.026 91.272 35.53 91C36.034 90.72 36.602 90.58 37.234 90.58C37.866 90.58 38.43 90.72 38.926 91C39.43 91.272 39.822 91.656 40.102 92.152C40.39 92.64 40.534 93.196 40.534 93.82C40.534 94.444 40.39 95.004 40.102 95.5C39.822 95.988 39.43 96.372 38.926 96.652C38.43 96.932 37.866 97.072 37.234 97.072ZM37.234 96.064C37.642 96.064 38.006 95.972 38.326 95.788C38.654 95.596 38.91 95.332 39.094 94.996C39.278 94.652 39.37 94.26 39.37 93.82C39.37 93.38 39.278 92.992 39.094 92.656C38.91 92.312 38.654 92.048 38.326 91.864C38.006 91.68 37.642 91.588 37.234 91.588C36.826 91.588 36.458 91.68 36.13 91.864C35.81 92.048 35.554 92.312 35.362 92.656C35.178 92.992 35.086 93.38 35.086 93.82C35.086 94.26 35.178 94.652 35.362 94.996C35.554 95.332 35.81 95.596 36.13 95.788C36.458 95.972 36.826 96.064 37.234 96.064ZM43.2312 91.708C43.4312 91.34 43.7272 91.06 44.1192 90.868C44.5112 90.676 44.9872 90.58 45.5472 90.58V91.696C45.4832 91.688 45.3952 91.684 45.2832 91.684C44.6592 91.684 44.1672 91.872 43.8072 92.248C43.4552 92.616 43.2792 93.144 43.2792 93.832V97H42.1272V90.64H43.2312V91.708ZM53.8477 96.628C53.6797 96.772 53.4717 96.884 53.2237 96.964C52.9757 97.036 52.7197 97.072 52.4557 97.072C51.8157 97.072 51.3197 96.9 50.9677 96.556C50.6157 96.212 50.4397 95.72 50.4397 95.08V91.588H49.3597V90.64H50.4397V89.248H51.5917V90.64H53.4157V91.588H51.5917V95.032C51.5917 95.376 51.6757 95.64 51.8437 95.824C52.0197 96.008 52.2677 96.1 52.5877 96.1C52.9397 96.1 53.2397 96 53.4877 95.8L53.8477 96.628ZM58.6364 90.58C59.4444 90.58 60.0844 90.816 60.5564 91.288C61.0364 91.752 61.2764 92.436 61.2764 93.34V97H60.1244V93.472C60.1244 92.856 59.9764 92.392 59.6804 92.08C59.3844 91.768 58.9604 91.612 58.4084 91.612C57.7844 91.612 57.2924 91.796 56.9324 92.164C56.5724 92.524 56.3924 93.044 56.3924 93.724V97H55.2404V88.096H56.3924V91.54C56.6324 91.236 56.9444 91 57.3284 90.832C57.7204 90.664 58.1564 90.58 58.6364 90.58ZM69.1916 93.856C69.1916 93.944 69.1836 94.06 69.1676 94.204H64.0076C64.0796 94.764 64.3236 95.216 64.7396 95.56C65.1636 95.896 65.6876 96.064 66.3116 96.064C67.0716 96.064 67.6836 95.808 68.1476 95.296L68.7836 96.04C68.4956 96.376 68.1356 96.632 67.7036 96.808C67.2796 96.984 66.8036 97.072 66.2756 97.072C65.6036 97.072 65.0076 96.936 64.4876 96.664C63.9676 96.384 63.5636 95.996 63.2756 95.5C62.9956 95.004 62.8556 94.444 62.8556 93.82C62.8556 93.204 62.9916 92.648 63.2636 92.152C63.5436 91.656 63.9236 91.272 64.4036 91C64.8916 90.72 65.4396 90.58 66.0476 90.58C66.6556 90.58 67.1956 90.72 67.6676 91C68.1476 91.272 68.5196 91.656 68.7836 92.152C69.0556 92.648 69.1916 93.216 69.1916 93.856ZM66.0476 91.552C65.4956 91.552 65.0316 91.72 64.6556 92.056C64.2876 92.392 64.0716 92.832 64.0076 93.376H68.0876C68.0236 92.84 67.8036 92.404 67.4276 92.068C67.0596 91.724 66.5996 91.552 66.0476 91.552ZM77.4099 90.58C78.2179 90.58 78.8579 90.816 79.3299 91.288C79.8099 91.752 80.0499 92.436 80.0499 93.34V97H78.8979V93.472C78.8979 92.856 78.7499 92.392 78.4539 92.08C78.1579 91.768 77.7339 91.612 77.1819 91.612C76.5579 91.612 76.0659 91.796 75.7059 92.164C75.3459 92.524 75.1659 93.044 75.1659 93.724V97H74.0139V88.096H75.1659V91.54C75.4059 91.236 75.7179 91 76.1019 90.832C76.4939 90.664 76.9299 90.58 77.4099 90.58ZM84.4978 90.58C85.3778 90.58 86.0498 90.796 86.5138 91.228C86.9858 91.66 87.2218 92.304 87.2218 93.16V97H86.1298V96.16C85.9378 96.456 85.6618 96.684 85.3018 96.844C84.9498 96.996 84.5298 97.072 84.0418 97.072C83.3298 97.072 82.7578 96.9 82.3258 96.556C81.9018 96.212 81.6898 95.76 81.6898 95.2C81.6898 94.64 81.8938 94.192 82.3018 93.856C82.7098 93.512 83.3578 93.34 84.2458 93.34H86.0698V93.112C86.0698 92.616 85.9258 92.236 85.6378 91.972C85.3498 91.708 84.9258 91.576 84.3658 91.576C83.9898 91.576 83.6218 91.64 83.2618 91.768C82.9018 91.888 82.5978 92.052 82.3498 92.26L81.8698 91.396C82.1978 91.132 82.5898 90.932 83.0458 90.796C83.5018 90.652 83.9858 90.58 84.4978 90.58ZM84.2338 96.184C84.6738 96.184 85.0538 96.088 85.3738 95.896C85.6938 95.696 85.9258 95.416 86.0698 95.056V94.168H84.2938C83.3178 94.168 82.8298 94.496 82.8298 95.152C82.8298 95.472 82.9538 95.724 83.2018 95.908C83.4498 96.092 83.7938 96.184 84.2338 96.184ZM90.4577 91.708C90.6577 91.34 90.9537 91.06 91.3457 90.868C91.7377 90.676 92.2137 90.58 92.7737 90.58V91.696C92.7097 91.688 92.6217 91.684 92.5097 91.684C91.8857 91.684 91.3937 91.872 91.0337 92.248C90.6817 92.616 90.5057 93.144 90.5057 93.832V97H89.3537V90.64H90.4577V91.708ZM102.15 90.58C102.95 90.58 103.582 90.812 104.046 91.276C104.518 91.74 104.754 92.428 104.754 93.34V97H103.602V93.472C103.602 92.856 103.458 92.392 103.17 92.08C102.89 91.768 102.486 91.612 101.958 91.612C101.374 91.612 100.91 91.796 100.566 92.164C100.222 92.524 100.05 93.044 100.05 93.724V97H98.8976V93.472C98.8976 92.856 98.7536 92.392 98.4656 92.08C98.1856 91.768 97.7816 91.612 97.2536 91.612C96.6696 91.612 96.2056 91.796 95.8616 92.164C95.5176 92.524 95.3456 93.044 95.3456 93.724V97H94.1936V90.64H95.2976V91.588C95.5296 91.26 95.8336 91.012 96.2096 90.844C96.5856 90.668 97.0136 90.58 97.4936 90.58C97.9896 90.58 98.4296 90.68 98.8136 90.88C99.1976 91.08 99.4936 91.372 99.7016 91.756C99.9416 91.388 100.274 91.1 100.698 90.892C101.13 90.684 101.614 90.58 102.15 90.58ZM109.632 97.072C109 97.072 108.432 96.932 107.928 96.652C107.424 96.372 107.028 95.988 106.74 95.5C106.46 95.004 106.32 94.444 106.32 93.82C106.32 93.196 106.46 92.64 106.74 92.152C107.028 91.656 107.424 91.272 107.928 91C108.432 90.72 109 90.58 109.632 90.58C110.264 90.58 110.828 90.72 111.324 91C111.828 91.272 112.22 91.656 112.5 92.152C112.788 92.64 112.932 93.196 112.932 93.82C112.932 94.444 112.788 95.004 112.5 95.5C112.22 95.988 111.828 96.372 111.324 96.652C110.828 96.932 110.264 97.072 109.632 97.072ZM109.632 96.064C110.04 96.064 110.404 95.972 110.724 95.788C111.052 95.596 111.308 95.332 111.492 94.996C111.676 94.652 111.768 94.26 111.768 93.82C111.768 93.38 111.676 92.992 111.492 92.656C111.308 92.312 111.052 92.048 110.724 91.864C110.404 91.68 110.04 91.588 109.632 91.588C109.224 91.588 108.856 91.68 108.528 91.864C108.208 92.048 107.952 92.312 107.76 92.656C107.576 92.992 107.484 93.38 107.484 93.82C107.484 94.26 107.576 94.652 107.76 94.996C107.952 95.332 108.208 95.596 108.528 95.788C108.856 95.972 109.224 96.064 109.632 96.064ZM117.922 90.58C118.73 90.58 119.37 90.816 119.842 91.288C120.322 91.752 120.562 92.436 120.562 93.34V97H119.41V93.472C119.41 92.856 119.262 92.392 118.966 92.08C118.67 91.768 118.246 91.612 117.694 91.612C117.07 91.612 116.578 91.796 116.218 92.164C115.858 92.524 115.678 93.044 115.678 93.724V97H114.526V90.64H115.63V91.6C115.862 91.272 116.174 91.02 116.566 90.844C116.966 90.668 117.418 90.58 117.922 90.58ZM128.204 90.64L125.12 97.636C124.848 98.284 124.528 98.74 124.16 99.004C123.8 99.268 123.364 99.4 122.852 99.4C122.54 99.4 122.236 99.348 121.94 99.244C121.652 99.148 121.412 99.004 121.22 98.812L121.712 97.948C122.04 98.26 122.42 98.416 122.852 98.416C123.132 98.416 123.364 98.34 123.548 98.188C123.74 98.044 123.912 97.792 124.064 97.432L124.268 96.988L121.46 90.64H122.66L124.88 95.728L127.076 90.64H128.204ZM135.226 97.072C134.594 97.072 134.026 96.932 133.522 96.652C133.018 96.372 132.622 95.988 132.334 95.5C132.054 95.004 131.914 94.444 131.914 93.82C131.914 93.196 132.054 92.64 132.334 92.152C132.622 91.656 133.018 91.272 133.522 91C134.026 90.72 134.594 90.58 135.226 90.58C135.858 90.58 136.422 90.72 136.918 91C137.422 91.272 137.814 91.656 138.094 92.152C138.382 92.64 138.526 93.196 138.526 93.82C138.526 94.444 138.382 95.004 138.094 95.5C137.814 95.988 137.422 96.372 136.918 96.652C136.422 96.932 135.858 97.072 135.226 97.072ZM135.226 96.064C135.634 96.064 135.998 95.972 136.318 95.788C136.646 95.596 136.902 95.332 137.086 94.996C137.27 94.652 137.362 94.26 137.362 93.82C137.362 93.38 137.27 92.992 137.086 92.656C136.902 92.312 136.646 92.048 136.318 91.864C135.998 91.68 135.634 91.588 135.226 91.588C134.818 91.588 134.45 91.68 134.122 91.864C133.802 92.048 133.546 92.312 133.354 92.656C133.17 92.992 133.078 93.38 133.078 93.82C133.078 94.26 133.17 94.652 133.354 94.996C133.546 95.332 133.802 95.596 134.122 95.788C134.45 95.972 134.818 96.064 135.226 96.064ZM142.447 88.972C141.759 88.972 141.415 89.344 141.415 90.088V90.64H143.263V91.588H141.439V97H140.287V91.588H139.207V90.64H140.287V90.076C140.287 89.444 140.471 88.944 140.839 88.576C141.207 88.208 141.723 88.024 142.387 88.024C142.643 88.024 142.883 88.056 143.107 88.12C143.331 88.184 143.523 88.276 143.683 88.396L143.335 89.272C143.071 89.072 142.775 88.972 142.447 88.972ZM153.2 90.64L150.116 97.636C149.844 98.284 149.524 98.74 149.156 99.004C148.796 99.268 148.36 99.4 147.848 99.4C147.536 99.4 147.232 99.348 146.936 99.244C146.648 99.148 146.408 99.004 146.216 98.812L146.708 97.948C147.036 98.26 147.416 98.416 147.848 98.416C148.128 98.416 148.36 98.34 148.544 98.188C148.736 98.044 148.908 97.792 149.06 97.432L149.264 96.988L146.456 90.64H147.656L149.876 95.728L152.072 90.64H153.2ZM156.824 97.072C156.192 97.072 155.624 96.932 155.12 96.652C154.616 96.372 154.22 95.988 153.932 95.5C153.652 95.004 153.512 94.444 153.512 93.82C153.512 93.196 153.652 92.64 153.932 92.152C154.22 91.656 154.616 91.272 155.12 91C155.624 90.72 156.192 90.58 156.824 90.58C157.456 90.58 158.02 90.72 158.516 91C159.02 91.272 159.412 91.656 159.692 92.152C159.98 92.64 160.124 93.196 160.124 93.82C160.124 94.444 159.98 95.004 159.692 95.5C159.412 95.988 159.02 96.372 158.516 96.652C158.02 96.932 157.456 97.072 156.824 97.072ZM156.824 96.064C157.232 96.064 157.596 95.972 157.916 95.788C158.244 95.596 158.5 95.332 158.684 94.996C158.868 94.652 158.96 94.26 158.96 93.82C158.96 93.38 158.868 92.992 158.684 92.656C158.5 92.312 158.244 92.048 157.916 91.864C157.596 91.68 157.232 91.588 156.824 91.588C156.416 91.588 156.048 91.68 155.72 91.864C155.4 92.048 155.144 92.312 154.952 92.656C154.768 92.992 154.676 93.38 154.676 93.82C154.676 94.26 154.768 94.652 154.952 94.996C155.144 95.332 155.4 95.596 155.72 95.788C156.048 95.972 156.416 96.064 156.824 96.064ZM167.645 90.64V97H166.553V96.04C166.321 96.368 166.013 96.624 165.629 96.808C165.253 96.984 164.841 97.072 164.393 97.072C163.545 97.072 162.877 96.84 162.389 96.376C161.901 95.904 161.657 95.212 161.657 94.3V90.64H162.809V94.168C162.809 94.784 162.957 95.252 163.253 95.572C163.549 95.884 163.973 96.04 164.525 96.04C165.133 96.04 165.613 95.856 165.965 95.488C166.317 95.12 166.493 94.6 166.493 93.928V90.64H167.645ZM170.942 91.708C171.142 91.34 171.438 91.06 171.83 90.868C172.222 90.676 172.698 90.58 173.258 90.58V91.696C173.194 91.688 173.106 91.684 172.994 91.684C172.37 91.684 171.878 91.872 171.518 92.248C171.166 92.616 170.99 93.144 170.99 93.832V97H169.838V90.64H170.942V91.708ZM177.983 88.096H179.135V97H177.983V88.096ZM181.334 90.64H182.486V97H181.334V90.64ZM181.91 89.416C181.686 89.416 181.498 89.344 181.346 89.2C181.202 89.056 181.13 88.88 181.13 88.672C181.13 88.464 181.202 88.288 181.346 88.144C181.498 87.992 181.686 87.916 181.91 87.916C182.134 87.916 182.318 87.988 182.462 88.132C182.614 88.268 182.69 88.44 182.69 88.648C182.69 88.864 182.614 89.048 182.462 89.2C182.318 89.344 182.134 89.416 181.91 89.416ZM187.014 88.972C186.326 88.972 185.982 89.344 185.982 90.088V90.64H187.83V91.588H186.006V97H184.854V91.588H183.774V90.64H184.854V90.076C184.854 89.444 185.038 88.944 185.406 88.576C185.774 88.208 186.29 88.024 186.954 88.024C187.21 88.024 187.45 88.056 187.674 88.12C187.898 88.184 188.09 88.276 188.25 88.396L187.902 89.272C187.638 89.072 187.342 88.972 187.014 88.972ZM194.57 93.856C194.57 93.944 194.562 94.06 194.546 94.204H189.386C189.458 94.764 189.702 95.216 190.118 95.56C190.542 95.896 191.066 96.064 191.69 96.064C192.45 96.064 193.062 95.808 193.526 95.296L194.162 96.04C193.874 96.376 193.514 96.632 193.082 96.808C192.658 96.984 192.182 97.072 191.654 97.072C190.982 97.072 190.386 96.936 189.866 96.664C189.346 96.384 188.942 95.996 188.654 95.5C188.374 95.004 188.234 94.444 188.234 93.82C188.234 93.204 188.37 92.648 188.642 92.152C188.922 91.656 189.302 91.272 189.782 91C190.27 90.72 190.818 90.58 191.426 90.58C192.034 90.58 192.574 90.72 193.046 91C193.526 91.272 193.898 91.656 194.162 92.152C194.434 92.648 194.57 93.216 194.57 93.856ZM191.426 91.552C190.874 91.552 190.41 91.72 190.034 92.056C189.666 92.392 189.45 92.832 189.386 93.376H193.466C193.402 92.84 193.182 92.404 192.806 92.068C192.438 91.724 191.978 91.552 191.426 91.552Z" fill="#727679"/>
<rect x="308" y="53" width="32" height="32" rx="2" fill="white"/>
<rect x="308.5" y="53.5" width="31" height="31" rx="1.5" stroke="#E1DADA"/>
<g clip-path="url(#clip2_812_13295)">
<path d="M328.172 67.9999L322.808 62.6359L324.222 61.2219L332 68.9999L324.222 76.7779L322.808 75.3639L328.172 69.9999H316V67.9999H328.172Z" fill="#121111"/>
</g>
</g>
<rect x="8.5" y="4.5" width="342" height="169" rx="7.5" stroke="#E7E9EA"/>
</g>
<defs>
<filter id="filter0_d_812_13295" x="0" y="0" width="359" height="186" filterUnits="userSpaceOnUse" color-interpolation-filters="sRGB">
<feFlood flood-opacity="0" result="BackgroundImageFix"/>
<feColorMatrix in="SourceAlpha" type="matrix" values="0 0 0 0 0 0 0 0 0 0 0 0 0 0 0 0 0 0 127 0" result="hardAlpha"/>
<feOffset dy="4"/>
<feGaussianBlur stdDeviation="4"/>
<feComposite in2="hardAlpha" operator="out"/>
<feColorMatrix type="matrix" values="0 0 0 0 0.883333 0 0 0 0 0.883333 0 0 0 0 0.883333 0 0 0 0.8 0"/>
<feBlend mode="normal" in2="BackgroundImageFix" result="effect1_dropShadow_812_13295"/>
<feBlend mode="normal" in="SourceGraphic" in2="effect1_dropShadow_812_13295" result="shape"/>
</filter>
<clipPath id="clip0_812_13295">
<rect x="8" y="4" width="343" height="170" rx="8" fill="white"/>
</clipPath>
<clipPath id="clip1_812_13295">
<rect width="375" height="146" fill="white" transform="translate(-8 102)"/>
</clipPath>
<clipPath id="clip2_812_13295">
<rect width="24" height="24" fill="white" transform="translate(312 57)"/>
</clipPath>
</defs>
</svg>
