<svg width="150" height="87" viewBox="0 0 150 87" fill="none" xmlns="http://www.w3.org/2000/svg">
<path d="M145.5 38.5H146V38H145.5V38.5ZM145 80.5V81H146V80.5H145ZM1 38.5H0.5V39H1V38.5ZM0.5 0V1.925H1.5V0H0.5ZM0.5 5.775V9.625H1.5V5.775H0.5ZM0.5 13.475V17.325H1.5V13.475H0.5ZM0.5 21.175V25.025H1.5V21.175H0.5ZM0.5 28.875V32.725H1.5V28.875H0.5ZM0.5 36.575V38.5H1.5V36.575H0.5ZM1 39H3.00694V38H1V39ZM7.02083 39H11.0347V38H7.02083V39ZM15.0486 39H19.0625V38H15.0486V39ZM23.0764 39H27.0903V38H23.0764V39ZM31.1042 39H35.1181V38H31.1042V39ZM39.1319 39H43.1458V38H39.1319V39ZM47.1597 39H51.1736V38H47.1597V39ZM55.1875 39H59.2014V38H55.1875V39ZM63.2153 39H67.2292V38H63.2153V39ZM71.2431 39H75.2569V38H71.2431V39ZM79.2708 39H83.2847V38H79.2708V39ZM87.2986 39H91.3125V38H87.2986V39ZM95.3264 39H99.3403V38H95.3264V39ZM103.354 39H107.368V38H103.354V39ZM111.382 39H115.396V38H111.382V39ZM119.41 39H123.424V38H119.41V39ZM127.437 39H131.451V38H127.437V39ZM135.465 39H139.479V38H135.465V39ZM143.493 39H145.5V38H143.493V39ZM145 38.5V40.6H146V38.5H145ZM145 44.8V49H146V44.8H145ZM145 53.2V57.4H146V53.2H145ZM145 61.6V65.8H146V61.6H145ZM145 70V74.2H146V70H145ZM145 78.4V80.5H146V78.4H145Z" fill="#727679"/>
<path d="M142 82L145.124 85.57C145.323 85.7976 145.677 85.7976 145.876 85.57L149 82" stroke="#727679" stroke-linecap="round"/>
</svg>
