<svg width="53" height="35" viewBox="0 0 53 35" fill="none" xmlns="http://www.w3.org/2000/svg">
<rect x="1" y="1" width="51" height="33" rx="15" fill="#FFA48D"/>
<path d="M18.6923 13.6V22H17.4083L12.7763 16.312V22H11.2283V13.6H12.5123L17.1443 19.288V13.6H18.6923ZM27.9632 20.692V22H21.6632V13.6H27.7952V14.908H23.2232V17.092H27.2792V18.376H23.2232V20.692H27.9632ZM42.581 13.6L39.797 22H38.141L36.065 15.784L33.953 22H32.285L29.501 13.6L31.121 13.6L33.209 19.984L35.381 13.6H36.821L38.945 20.02L41.093 13.6H42.581Z" fill="#121111"/>
<rect x="1" y="1" width="51" height="33" rx="15" stroke="#EA7D62" stroke-width="2"/>
</svg>
