<svg width="24" height="24" viewBox="0 0 24 24" fill="none" xmlns="http://www.w3.org/2000/svg">
<path d="M13 2.03003V2.05003V4.05003C17.39 4.59003 20.5 8.58003 19.96 12.97C19.5 16.61 16.64 19.5 13 19.93V21.93C18.5 21.38 22.5 16.5 21.95 11C21.5 6.25003 17.73 2.50003 13 2.03003ZM11 2.06003C9.04999 2.25003 7.18999 3.00003 5.66999 4.26003L7.09999 5.74003C8.21999 4.84003 9.56999 4.26003 11 4.06003V2.06003ZM4.25999 5.67003C2.99999 7.19003 2.24999 9.04003 2.04999 11H4.04999C4.23999 9.58003 4.79999 8.23003 5.68999 7.10003L4.25999 5.67003ZM2.05999 13C2.25999 14.96 3.02999 16.81 4.26999 18.33L5.68999 16.9C4.80999 15.77 4.23999 14.42 4.05999 13H2.05999ZM7.09999 18.37L5.66999 19.74C7.17999 21 9.03999 21.79 11 22V20C9.57999 19.82 8.22999 19.25 7.09999 18.37ZM12.5 7.00003V12.25L17 14.92L16.25 16.15L11 13V7.00003H12.5Z" fill="black"/>
</svg>
