<svg width="16" height="16" viewBox="0 0 16 16" fill="none" xmlns="http://www.w3.org/2000/svg">
<path d="M8.00004 2.66665C9.83244 2.66665 11.45 3.59082 12.4104 4.99998H10.6667V6.33331H14.6667V2.33331H13.3334V3.99955C12.1175 2.38109 10.1816 1.33331 8.00004 1.33331C4.31814 1.33331 1.33337 4.31808 1.33337 7.99998H2.66671C2.66671 5.05446 5.05452 2.66665 8.00004 2.66665ZM13.3334 7.99998C13.3334 10.9455 10.9456 13.3333 8.00004 13.3333C6.16767 13.3333 4.55009 12.4091 3.58966 11H5.33337V9.66665H1.33337V13.6666H2.66671V12.0004C3.88258 13.6188 5.81847 14.6666 8.00004 14.6666C11.6819 14.6666 14.6667 11.6818 14.6667 7.99998H13.3334Z" fill="#121111"/>
</svg>
