<svg width="88" height="115" viewBox="0 0 88 115" fill="none" xmlns="http://www.w3.org/2000/svg">
<path d="M42.0714 8.14679C33.1689 9.11157 24.6774 15.7525 17.9967 26.9922C16.4749 29.5649 13.827 35.0964 12.8074 37.8781C6.79639 54.1669 6.40072 70.9058 11.7422 83.8661C15.0445 91.922 19.9142 97.8715 26.5796 102.052C30.2167 104.336 33.8385 105.734 38.2517 106.555C40.4583 106.973 45.1149 107.133 47.4433 106.876C61.398 105.381 72.7201 95.4434 77.5137 80.5215C78.579 77.2412 79.2942 73.768 79.7355 69.7963C80.0856 66.7573 80.0856 60.6952 79.7508 57.2863C78.9138 48.8927 76.7376 40.6921 73.3745 33.3115C70.4831 26.9761 67.4091 22.2326 63.3916 17.875C57.8675 11.9094 52.2065 8.7739 45.7693 8.13071C43.9584 7.95383 43.9127 7.95383 42.0714 8.14679Z" fill="#575A5D"/>
<path d="M7.2753 35.2467L7.27405 35.2499C0.0339208 53.8963 -0.385696 72.9202 5.94997 87.5305L5.95114 87.5332C9.87111 96.6218 15.6195 103.28 23.4765 107.964L23.477 107.964C27.7575 110.518 32.0107 112.083 37.2352 113.005L37.2401 113.006C39.7905 113.465 45.3394 113.649 48.0518 113.364L48.0565 113.364C64.4774 111.691 77.8529 100.588 83.5402 83.7618L83.5418 83.7571C84.804 80.0631 85.6579 76.1349 86.1869 71.6094L86.1877 71.6032C86.6001 68.1996 86.6027 61.2719 86.2034 57.4067C85.1976 47.8216 82.5829 38.4633 78.5496 30.0507C75.076 22.8173 71.4074 17.4467 66.626 12.5173C60.0647 5.78303 53.46 2.35208 46.0227 1.6453C44.8935 1.54048 44.4065 1.49808 43.9227 1.50005C43.4379 1.50204 42.9409 1.54865 41.7935 1.66293C31.5407 2.72018 21.5146 10.026 13.4904 22.8564C11.6767 25.7712 8.48501 32.1098 7.2753 35.2467Z" stroke="#5E6062" stroke-width="3"/>
</svg>
