<svg width="89" height="56" viewBox="0 0 89 56" fill="none" xmlns="http://www.w3.org/2000/svg">
<path d="M11.7387 22.8V34H10.0267L3.85071 26.416V34H1.78671V22.8H3.49871L9.67472 30.384V22.8H11.7387ZM22.5798 29.776C22.5798 29.9147 22.5692 30.112 22.5478 30.368H15.8438C15.9612 30.9973 16.2652 31.4987 16.7558 31.872C17.2572 32.2347 17.8758 32.416 18.6118 32.416C19.5505 32.416 20.3238 32.1067 20.9318 31.488L22.0038 32.72C21.6198 33.1787 21.1345 33.5253 20.5478 33.76C19.9612 33.9947 19.2998 34.112 18.5638 34.112C17.6252 34.112 16.7985 33.9253 16.0838 33.552C15.3692 33.1787 14.8145 32.6613 14.4198 32C14.0358 31.328 13.8438 30.5707 13.8438 29.728C13.8438 28.896 14.0305 28.1493 14.4038 27.488C14.7878 26.816 15.3158 26.2933 15.9878 25.92C16.6598 25.5467 17.4172 25.36 18.2598 25.36C19.0918 25.36 19.8332 25.5467 20.4838 25.92C21.1452 26.2827 21.6572 26.8 22.0198 27.472C22.3932 28.1333 22.5798 28.9013 22.5798 29.776ZM18.2598 26.96C17.6198 26.96 17.0758 27.152 16.6278 27.536C16.1905 27.9093 15.9238 28.4107 15.8278 29.04H20.6758C20.5905 28.4213 20.3292 27.92 19.8918 27.536C19.4545 27.152 18.9105 26.96 18.2598 26.96ZM37.6727 25.456L34.5207 34H32.6007L30.3927 28.112L28.1527 34H26.2327L23.0967 25.456H24.9847L27.2407 31.76L29.5927 25.456H31.2727L33.5767 31.792L35.8967 25.456H37.6727Z" fill="#CAC4C4"/>
<path d="M24.4972 52.112C23.6332 52.112 22.8545 51.9253 22.1612 51.552C21.4679 51.1787 20.9239 50.6613 20.5292 50C20.1452 49.328 19.9532 48.5707 19.9532 47.728C19.9532 46.8853 20.1452 46.1333 20.5292 45.472C20.9239 44.8107 21.4679 44.2933 22.1612 43.92C22.8545 43.5467 23.6332 43.36 24.4972 43.36C25.3719 43.36 26.1559 43.5467 26.8492 43.92C27.5425 44.2933 28.0812 44.8107 28.4652 45.472C28.8599 46.1333 29.0572 46.8853 29.0572 47.728C29.0572 48.5707 28.8599 49.328 28.4652 50C28.0812 50.6613 27.5425 51.1787 26.8492 51.552C26.1559 51.9253 25.3719 52.112 24.4972 52.112ZM24.4972 50.4C25.2332 50.4 25.8412 50.1547 26.3212 49.664C26.8012 49.1733 27.0412 48.528 27.0412 47.728C27.0412 46.928 26.8012 46.2827 26.3212 45.792C25.8412 45.3013 25.2332 45.056 24.4972 45.056C23.7612 45.056 23.1532 45.3013 22.6732 45.792C22.2039 46.2827 21.9692 46.928 21.9692 47.728C21.9692 48.528 22.2039 49.1733 22.6732 49.664C23.1532 50.1547 23.7612 50.4 24.4972 50.4ZM32.8737 44.704C33.4497 43.808 34.463 43.36 35.9137 43.36V45.264C35.743 45.232 35.5884 45.216 35.4497 45.216C34.671 45.216 34.063 45.4453 33.6257 45.904C33.1884 46.352 32.9697 47.0027 32.9697 47.856V52H30.9697V43.456H32.8737V44.704ZM37.6103 43.456H39.6103V52H37.6103V43.456ZM38.6183 42.048C38.2557 42.048 37.9517 41.936 37.7063 41.712C37.461 41.4773 37.3383 41.1893 37.3383 40.848C37.3383 40.5067 37.461 40.224 37.7063 40C37.9517 39.7653 38.2557 39.648 38.6183 39.648C38.981 39.648 39.285 39.76 39.5303 39.984C39.7757 40.1973 39.8983 40.4693 39.8983 40.8C39.8983 41.152 39.7757 41.4507 39.5303 41.696C39.2957 41.9307 38.9917 42.048 38.6183 42.048ZM50.7153 43.456V50.704C50.7153 53.712 49.1793 55.216 46.1073 55.216C45.286 55.216 44.5073 55.1093 43.7713 54.896C43.0353 54.6933 42.4273 54.3947 41.9473 54L42.8433 52.496C43.2167 52.8053 43.686 53.0507 44.2513 53.232C44.8273 53.424 45.4087 53.52 45.9953 53.52C46.934 53.52 47.622 53.3067 48.0593 52.88C48.4967 52.4533 48.7153 51.8027 48.7153 50.928V50.48C48.374 50.8533 47.958 51.136 47.4673 51.328C46.9767 51.52 46.438 51.616 45.8513 51.616C45.0407 51.616 44.3047 51.4453 43.6433 51.104C42.9927 50.752 42.4753 50.2613 42.0913 49.632C41.718 49.0027 41.5313 48.2827 41.5313 47.472C41.5313 46.6613 41.718 45.9467 42.0913 45.328C42.4753 44.6987 42.9927 44.2133 43.6433 43.872C44.3047 43.5307 45.0407 43.36 45.8513 43.36C46.47 43.36 47.03 43.4613 47.5313 43.664C48.0433 43.8667 48.47 44.176 48.8113 44.592V43.456H50.7153ZM46.1553 49.92C46.9127 49.92 47.5313 49.696 48.0113 49.248C48.502 48.7893 48.7473 48.1973 48.7473 47.472C48.7473 46.7573 48.502 46.176 48.0113 45.728C47.5313 45.28 46.9127 45.056 46.1553 45.056C45.3873 45.056 44.758 45.28 44.2673 45.728C43.7873 46.176 43.5473 46.7573 43.5473 47.472C43.5473 48.1973 43.7873 48.7893 44.2673 49.248C44.758 49.696 45.3873 49.92 46.1553 49.92ZM56.6087 43.36C57.8674 43.36 58.8274 43.664 59.4887 44.272C60.1607 44.8693 60.4967 45.776 60.4967 46.992V52H58.6087V50.96C58.3634 51.3333 58.0114 51.6213 57.5527 51.824C57.1047 52.016 56.5607 52.112 55.9207 52.112C55.2807 52.112 54.7207 52.0053 54.2407 51.792C53.7607 51.568 53.3874 51.264 53.1207 50.88C52.8647 50.4853 52.7367 50.0427 52.7367 49.552C52.7367 48.784 53.0194 48.1707 53.5847 47.712C54.1607 47.2427 55.062 47.008 56.2887 47.008H58.4967V46.88C58.4967 46.2827 58.3154 45.824 57.9527 45.504C57.6007 45.184 57.0727 45.024 56.3687 45.024C55.8887 45.024 55.414 45.0987 54.9447 45.248C54.486 45.3973 54.0967 45.6053 53.7767 45.872L52.9927 44.416C53.4407 44.0747 53.9794 43.8133 54.6087 43.632C55.238 43.4507 55.9047 43.36 56.6087 43.36ZM56.3367 50.656C56.838 50.656 57.2807 50.544 57.6647 50.32C58.0594 50.0853 58.3367 49.7547 58.4967 49.328V48.336H56.4327C55.2807 48.336 54.7047 48.7147 54.7047 49.472C54.7047 49.8347 54.8487 50.1227 55.1367 50.336C55.4247 50.5493 55.8247 50.656 56.3367 50.656ZM73.8475 43.36C74.9248 43.36 75.7781 43.6747 76.4075 44.304C77.0368 44.9227 77.3515 45.856 77.3515 47.104V52H75.3515V47.36C75.3515 46.6133 75.1861 46.0533 74.8555 45.68C74.5248 45.296 74.0501 45.104 73.4315 45.104C72.7595 45.104 72.2208 45.328 71.8155 45.776C71.4101 46.2133 71.2075 46.8427 71.2075 47.664V52H69.2075V47.36C69.2075 46.6133 69.0421 46.0533 68.7115 45.68C68.3808 45.296 67.9061 45.104 67.2875 45.104C66.6048 45.104 66.0608 45.3227 65.6555 45.76C65.2608 46.1973 65.0635 46.832 65.0635 47.664V52H63.0635V43.456H64.9675V44.544C65.2875 44.16 65.6875 43.8667 66.1675 43.664C66.6475 43.4613 67.1808 43.36 67.7675 43.36C68.4075 43.36 68.9728 43.4827 69.4635 43.728C69.9648 43.9627 70.3595 44.3147 70.6475 44.784C70.9995 44.336 71.4528 43.9893 72.0075 43.744C72.5621 43.488 73.1755 43.36 73.8475 43.36ZM79.9072 43.456H81.9072V52H79.9072V43.456ZM80.9152 42.048C80.5525 42.048 80.2485 41.936 80.0032 41.712C79.7579 41.4773 79.6352 41.1893 79.6352 40.848C79.6352 40.5067 79.7579 40.224 80.0032 40C80.2485 39.7653 80.5525 39.648 80.9152 39.648C81.2779 39.648 81.5819 39.76 81.8272 39.984C82.0725 40.1973 82.1952 40.4693 82.1952 40.8C82.1952 41.152 82.0725 41.4507 81.8272 41.696C81.5925 41.9307 81.2885 42.048 80.9152 42.048ZM84.2762 40.8H86.6442L86.2442 48.288H84.6602L84.2762 40.8ZM85.4602 52.112C85.0869 52.112 84.7775 51.9947 84.5322 51.76C84.2869 51.5147 84.1642 51.216 84.1642 50.864C84.1642 50.512 84.2869 50.2187 84.5322 49.984C84.7775 49.7493 85.0869 49.632 85.4602 49.632C85.8229 49.632 86.1215 49.7493 86.3562 49.984C86.6015 50.2187 86.7242 50.512 86.7242 50.864C86.7242 51.216 86.6015 51.5147 86.3562 51.76C86.1215 51.9947 85.8229 52.112 85.4602 52.112Z" fill="#CAC4C4"/>
<circle cx="62.0093" cy="16" r="15" stroke="white" stroke-width="2"/>
<path d="M63.0291 10.8V22H60.9491V12.544H58.5811V10.8H63.0291Z" fill="white"/>
</svg>
