<svg width="121" height="27" viewBox="0 0 121 27" fill="none" xmlns="http://www.w3.org/2000/svg">
<rect x="0.5" y="0.5" width="120" height="26" rx="3.5" fill="#7642E9"/>
<path d="M34.5663 18.12C33.7183 18.12 32.9503 17.936 32.2623 17.568C31.5823 17.192 31.0463 16.676 30.6543 16.02C30.2703 15.364 30.0783 14.624 30.0783 13.8C30.0783 12.976 30.2743 12.236 30.6663 11.58C31.0583 10.924 31.5943 10.412 32.2743 10.044C32.9623 9.668 33.7303 9.48 34.5783 9.48C35.2663 9.48 35.8943 9.6 36.4623 9.84C37.0303 10.08 37.5103 10.428 37.9023 10.884L36.8943 11.832C36.2863 11.176 35.5383 10.848 34.6503 10.848C34.0743 10.848 33.5583 10.976 33.1023 11.232C32.6463 11.48 32.2903 11.828 32.0343 12.276C31.7783 12.724 31.6503 13.232 31.6503 13.8C31.6503 14.368 31.7783 14.876 32.0343 15.324C32.2903 15.772 32.6463 16.124 33.1023 16.38C33.5583 16.628 34.0743 16.752 34.6503 16.752C35.5383 16.752 36.2863 16.42 36.8943 15.756L37.9023 16.716C37.5103 17.172 37.0263 17.52 36.4503 17.76C35.8823 18 35.2543 18.12 34.5663 18.12ZM43.8653 18.12C43.0093 18.12 42.2373 17.936 41.5493 17.568C40.8613 17.192 40.3213 16.676 39.9293 16.02C39.5373 15.356 39.3413 14.616 39.3413 13.8C39.3413 12.984 39.5373 12.248 39.9293 11.592C40.3213 10.928 40.8613 10.412 41.5493 10.044C42.2373 9.668 43.0093 9.48 43.8653 9.48C44.7213 9.48 45.4933 9.668 46.1813 10.044C46.8693 10.412 47.4093 10.924 47.8013 11.58C48.1933 12.236 48.3893 12.976 48.3893 13.8C48.3893 14.624 48.1933 15.364 47.8013 16.02C47.4093 16.676 46.8693 17.192 46.1813 17.568C45.4933 17.936 44.7213 18.12 43.8653 18.12ZM43.8653 16.752C44.4253 16.752 44.9293 16.628 45.3773 16.38C45.8253 16.124 46.1773 15.772 46.4333 15.324C46.6893 14.868 46.8173 14.36 46.8173 13.8C46.8173 13.24 46.6893 12.736 46.4333 12.288C46.1773 11.832 45.8253 11.48 45.3773 11.232C44.9293 10.976 44.4253 10.848 43.8653 10.848C43.3053 10.848 42.8013 10.976 42.3533 11.232C41.9053 11.48 41.5533 11.832 41.2973 12.288C41.0413 12.736 40.9133 13.24 40.9133 13.8C40.9133 14.36 41.0413 14.868 41.2973 15.324C41.5533 15.772 41.9053 16.124 42.3533 16.38C42.8013 16.628 43.3053 16.752 43.8653 16.752ZM50.7628 9.6H52.3228V16.68H56.7148V18H50.7628V9.6ZM58.6664 9.6H60.2264V16.68H64.6184V18H58.6664V9.6ZM72.87 16.692V18H66.57V9.6H72.702V10.908H68.13V13.092H72.186V14.376H68.13V16.692H72.87ZM79.1819 18.12C78.3339 18.12 77.5659 17.936 76.8779 17.568C76.1979 17.192 75.6619 16.676 75.2699 16.02C74.8859 15.364 74.6939 14.624 74.6939 13.8C74.6939 12.976 74.8899 12.236 75.2819 11.58C75.6739 10.924 76.2099 10.412 76.8899 10.044C77.5779 9.668 78.3459 9.48 79.1939 9.48C79.8819 9.48 80.5099 9.6 81.0779 9.84C81.6459 10.08 82.1259 10.428 82.5179 10.884L81.5099 11.832C80.9019 11.176 80.1539 10.848 79.2659 10.848C78.6899 10.848 78.1739 10.976 77.7179 11.232C77.2619 11.48 76.9059 11.828 76.6499 12.276C76.3939 12.724 76.2659 13.232 76.2659 13.8C76.2659 14.368 76.3939 14.876 76.6499 15.324C76.9059 15.772 77.2619 16.124 77.7179 16.38C78.1739 16.628 78.6899 16.752 79.2659 16.752C80.1539 16.752 80.9019 16.42 81.5099 15.756L82.5179 16.716C82.1259 17.172 81.6419 17.52 81.0659 17.76C80.4979 18 79.8699 18.12 79.1819 18.12ZM86.3429 10.92H83.5589V9.6H90.6869V10.92H87.9029V18H86.3429V10.92Z" fill="white"/>
<rect x="0.5" y="0.5" width="120" height="26" rx="3.5" stroke="#A894D6"/>
</svg>
