<svg width="88" height="115" viewBox="0 0 88 115" fill="none" xmlns="http://www.w3.org/2000/svg">
<path d="M46.0642 2.14655C53.5742 2.8677 60.1788 6.38331 66.6235 13.072C71.3106 17.9578 74.897 23.2762 78.2702 30.3796C82.1939 38.6548 84.7328 47.8494 85.7092 57.2604C86.0998 61.0825 86.0998 67.8794 85.6915 71.2868C85.1766 75.7399 84.3422 79.6341 83.0994 83.312C77.5068 100.043 64.2977 111.184 48.0172 112.861C45.3008 113.15 39.868 112.969 37.2936 112.501C32.1449 111.581 27.9194 110.013 23.6762 107.452C15.8999 102.765 10.2185 96.0943 6.36589 87.0619C2.70183 78.5181 1.35171 68.5095 2.28666 58" stroke="#BAA9FF" stroke-width="3" stroke-linecap="round"/>
<path d="M46.0642 2.14656C53.5742 2.86771 60.1788 6.38332 66.6235 13.072C71.3106 17.9578 74.897 23.2763 78.2702 30.3796C82.1939 38.6548 84.7328 47.8494 85.7092 57.2604C86.0998 61.0825 86.0998 67.8794 85.6915 71.2868C85.1766 75.7399 84.3422 79.6341 83.0994 83.312C77.5068 100.043 64.2977 111.184 48.0172 112.861C47.4472 112.922 46.7576 112.962 46 112.982" stroke="#BAA9FF" stroke-width="3" stroke-linecap="round"/>
<path d="M46.064 2.14656C53.574 2.86771 60.1785 6.38332 66.6233 13.072C71.3104 17.9578 74.8967 23.2763 78.27 30.3796C81.9486 38.138 84.41 46.7046 85.5078 55.5" stroke="#BAA9FF" stroke-width="3" stroke-linecap="round"/>
<path d="M41.7499 2.16458C31.3637 3.24631 21.4569 10.6922 13.6628 23.2943C11.8874 26.1789 8.79821 32.3808 7.60868 35.4997C0.595786 53.7629 0.134178 72.5308 6.36589 87.0619C10.2185 96.0943 15.8999 102.765 23.6762 107.452C27.9194 110.013 32.1449 111.581 37.2936 112.501C39.868 112.969 45.3008 113.15 48.0172 112.861C64.2977 111.184 77.5068 100.043 83.0994 83.312C84.3422 79.6341 85.1766 75.7399 85.6915 71.2868C86.0998 67.8794 86.0998 61.0825 85.7092 57.2604C84.7328 47.8494 82.1939 38.6548 78.2702 30.3796C74.8969 23.2762 71.3106 17.9578 66.6235 13.072C60.1788 6.38331 53.5742 2.8677 46.0642 2.14655C43.9515 1.94824 43.8982 1.94824 41.7499 2.16458Z" stroke="#BAA9FF" stroke-width="3"/>
</svg>
