<svg width="88" height="115" viewBox="0 0 88 115" fill="none" xmlns="http://www.w3.org/2000/svg">
<path d="M46.0643 2.14655C53.5743 2.8677 60.1788 6.38331 66.6236 13.072C71.3107 17.9578 74.897 23.2762 78.2703 30.3796C82.194 38.6548 84.7328 47.8494 85.7093 57.2604C86.0999 61.0825 86.0999 67.8794 85.6916 71.2868C85.1767 75.7399 84.3422 79.6341 83.0994 83.312C77.5069 100.043 64.2978 111.184 48.0172 112.861C45.3008 113.15 39.8681 112.969 37.2937 112.501C32.145 111.581 27.9195 110.013 23.6763 107.452C15.8999 102.765 10.2186 96.0943 6.36595 87.0619C4.25244 82.1336 2.90884 76.718 2.32959 71" stroke="#BAA9FF" stroke-width="3" stroke-linecap="round"/>
</svg>
