<svg width="88" height="115" viewBox="0 0 88 115" fill="none" xmlns="http://www.w3.org/2000/svg">
<path d="M42.0714 8.14679C33.1689 9.11157 24.6774 15.7525 17.9967 26.9922C16.4749 29.5649 13.827 35.0964 12.8074 37.8781C6.79639 54.1669 6.40072 70.9058 11.7422 83.8661C15.0445 91.922 19.9142 97.8715 26.5796 102.052C30.2167 104.336 33.8385 105.734 38.2517 106.555C40.4583 106.973 45.1149 107.133 47.4433 106.876C61.398 105.381 72.7201 95.4434 77.5137 80.5215C78.579 77.2412 79.2942 73.768 79.7355 69.7963C80.0856 66.7573 80.0856 60.6952 79.7508 57.2863C78.9138 48.8927 76.7376 40.6921 73.3745 33.3115C70.4831 26.9761 67.4091 22.2326 63.3916 17.875C57.8675 11.9094 52.2065 8.7739 45.7693 8.13071C43.9584 7.95383 43.9127 7.95383 42.0714 8.14679Z" fill="#575A5D"/>
<path fill-rule="evenodd" clip-rule="evenodd" d="M13.0234 86.7253C15.2285 89.1738 17.7417 91.2754 20.5807 93.056C24.2177 95.3393 27.8396 96.7383 32.2528 97.5583C34.4593 97.9764 39.116 98.1372 41.4443 97.8799C55.3991 96.3845 66.7212 86.4473 71.5148 71.5253C72.5801 68.2451 73.2953 64.7718 73.7366 60.8002C74.0866 57.7611 74.0866 51.699 73.7518 48.2902C72.9148 39.8966 70.7387 31.6959 67.3755 24.3153C66.6768 22.7844 65.9675 21.3464 65.2367 19.9844C68.3807 23.7789 70.9423 27.982 73.3748 33.3118C76.7379 40.6924 78.9141 48.893 79.7511 57.2866C80.0859 60.6955 80.0859 66.7576 79.7358 69.7966C79.2945 73.7683 78.5793 77.2415 77.514 80.5218C72.7204 95.4437 61.3983 105.381 47.4436 106.876C45.1152 107.134 40.4586 106.973 38.252 106.555C33.8388 105.735 30.217 104.336 26.5799 102.052C20.7288 98.3825 16.2615 93.3496 13.0234 86.7253Z" fill="#484A4B"/>
<circle r="3.27528" transform="matrix(-0.217865 -0.975979 -0.975979 0.217865 38.4355 76.0951)" fill="#494C4F"/>
<circle r="3.73497" transform="matrix(-0.217865 -0.975979 -0.975979 0.217865 34.1621 64.4575)" fill="#494C4F"/>
<circle r="2.47466" transform="matrix(-0.217865 -0.975979 -0.975979 0.217865 27.9558 74.2333)" fill="#494C4F"/>
<path fill-rule="evenodd" clip-rule="evenodd" d="M22.4943 31.3833C22.3198 31.7843 22.1634 32.1566 22.0298 32.4914C16.1093 47.2367 13.9837 62.6528 15.9639 75.7742C15.5423 74.9001 15.1534 73.9953 14.7966 73.0587C10.7971 62.6248 12.1956 49.676 18.6192 37.4821C19.4104 35.9712 21.0627 33.4006 22.4943 31.3833Z" fill="#9DA4AA"/>
<path d="M25 17L30 19V25H31.5M37.5 25H31.5M31.5 25L33.5 27.5M57.5 37L61 35L67 38.5M67 38.5H75.5M67 38.5L61 42H57.5" stroke="#2C2F31"/>
<path d="M46.0642 2.14655C53.5742 2.8677 60.1788 6.38331 66.6235 13.072C71.3106 17.9578 74.897 23.2762 78.2702 30.3796C82.1939 38.6548 84.7328 47.8494 85.7092 57.2604C86.0998 61.0825 86.0998 67.8794 85.6915 71.2868C85.1766 75.7399 84.3422 79.6341 83.0994 83.312C77.5068 100.043 64.2977 111.184 48.0172 112.861C45.3008 113.15 39.868 112.969 37.2936 112.501C32.1449 111.581 27.9194 110.013 23.6762 107.452C15.8999 102.765 10.2185 96.0943 6.36589 87.0619C2.70183 78.5181 1.35171 68.5095 2.28666 58" stroke="#BAA9FF" stroke-width="3" stroke-linecap="round"/>
<path d="M46.0642 2.14656C53.5742 2.86771 60.1788 6.38332 66.6235 13.072C71.3106 17.9578 74.897 23.2763 78.2702 30.3796C82.1939 38.6548 84.7328 47.8494 85.7092 57.2604C86.0998 61.0825 86.0998 67.8794 85.6915 71.2868C85.1766 75.7399 84.3422 79.6341 83.0994 83.312C77.5068 100.043 64.2977 111.184 48.0172 112.861C47.4472 112.922 46.7576 112.962 46 112.982" stroke="#BAA9FF" stroke-width="3" stroke-linecap="round"/>
<path d="M46.0642 2.14656C53.5742 2.86771 60.1788 6.38332 66.6235 13.072C71.3106 17.9578 74.897 23.2763 78.2703 30.3796C81.9489 38.138 84.4103 46.7046 85.5081 55.5" stroke="#BAA9FF" stroke-width="3" stroke-linecap="round"/>
<path d="M41.7499 2.16458C31.3637 3.24631 21.4569 10.6922 13.6628 23.2943C11.8874 26.1789 8.79821 32.3808 7.60868 35.4997C0.595786 53.7629 0.134178 72.5308 6.36589 87.0619C10.2185 96.0943 15.8999 102.765 23.6762 107.452C27.9194 110.013 32.1449 111.581 37.2936 112.501C39.868 112.969 45.3008 113.15 48.0172 112.861C64.2977 111.184 77.5068 100.043 83.0994 83.312C84.3422 79.6341 85.1766 75.7399 85.6915 71.2868C86.0998 67.8794 86.0998 61.0825 85.7092 57.2604C84.7328 47.8494 82.1939 38.6548 78.2702 30.3796C74.8969 23.2762 71.3106 17.9578 66.6235 13.072C60.1788 6.38331 53.5742 2.8677 46.0642 2.14655C43.9515 1.94824 43.8982 1.94824 41.7499 2.16458Z" stroke="#575A5D" stroke-width="3"/>
</svg>
