<svg width="44" height="44" viewBox="0 0 44 44" fill="none" xmlns="http://www.w3.org/2000/svg">
<rect x="1.5" y="1.5" width="41" height="41" rx="20.5" fill="#6226BF"/>
<path d="M25.0049 12.0029C27.214 12.0029 29.0049 13.7938 29.0049 16.0029C29.0049 16.732 28.8098 17.4154 28.4691 18.004L33.0049 18.0029V20.0029H31.0049V30.0029C31.0049 30.5552 30.5572 31.0029 30.0049 31.0029H14.0049C13.4526 31.0029 13.0049 30.5552 13.0049 30.0029V20.0029H11.0049V18.0029L15.5407 18.004C15.1999 17.4154 15.0049 16.732 15.0049 16.0029C15.0049 13.7938 16.7957 12.0029 19.0049 12.0029C20.2001 12.0029 21.2729 12.5271 22.0058 13.3582C22.7369 12.5271 23.8097 12.0029 25.0049 12.0029ZM21.0049 20.0029H15.0049V29.0029H21.0049V20.0029ZM29.0049 20.0029H23.0049V29.0029H29.0049V20.0029ZM19.0049 14.0029C17.9003 14.0029 17.0049 14.8984 17.0049 16.0029C17.0049 17.0573 17.8208 17.9211 18.8556 17.9974L19.0049 18.0029H21.0049V16.0029C21.0049 15.0013 20.2686 14.1716 19.3077 14.0257L19.1542 14.0084L19.0049 14.0029ZM25.0049 14.0029C23.9505 14.0029 23.0867 14.8188 23.0104 15.8537L23.0049 16.0029V18.0029H25.0049C26.0592 18.0029 26.923 17.1871 26.9994 16.1522L27.0049 16.0029C27.0049 14.8984 26.1095 14.0029 25.0049 14.0029Z" fill="white"/>
<rect x="1.5" y="1.5" width="41" height="41" rx="20.5" stroke="#BAA9FF" stroke-width="3"/>
</svg>
