<svg width="88" height="115" viewBox="0 0 88 115" fill="none" xmlns="http://www.w3.org/2000/svg">
<path d="M42.0714 8.14679C33.1689 9.11157 24.6774 15.7525 17.9967 26.9922C16.4749 29.5649 13.827 35.0964 12.8074 37.8781C6.79639 54.1669 6.40072 70.9058 11.7422 83.8661C15.0445 91.922 19.9142 97.8715 26.5796 102.052C30.2167 104.336 33.8385 105.734 38.2517 106.555C40.4583 106.973 45.1149 107.133 47.4433 106.876C61.398 105.381 72.7201 95.4434 77.5137 80.5215C78.579 77.2412 79.2942 73.768 79.7355 69.7963C80.0856 66.7573 80.0856 60.6952 79.7508 57.2863C78.9138 48.8927 76.7376 40.6921 73.3745 33.3115C70.4831 26.9761 67.4091 22.2326 63.3916 17.875C57.8675 11.9094 52.2065 8.7739 45.7693 8.13071C43.9584 7.95383 43.9127 7.95383 42.0714 8.14679Z" fill="#575A5D"/>
<path d="M41.7499 2.16458C31.3637 3.24631 21.4569 10.6922 13.6628 23.2943C11.8874 26.1789 8.79821 32.3808 7.60868 35.4997C0.595786 53.7629 0.134178 72.5308 6.36589 87.0619C10.2185 96.0943 15.8999 102.765 23.6762 107.452C27.9194 110.013 32.1449 111.581 37.2936 112.501C39.868 112.969 45.3008 113.15 48.0172 112.861C64.2977 111.184 77.5068 100.043 83.0994 83.312C84.3422 79.6341 85.1766 75.7399 85.6915 71.2868C86.0998 67.8794 86.0998 61.0825 85.7092 57.2604C84.7328 47.8494 82.1939 38.6548 78.2702 30.3796C74.8969 23.2762 71.3106 17.9578 66.6235 13.072C60.1788 6.38331 53.5742 2.8677 46.0642 2.14655C43.9515 1.94824 43.8982 1.94824 41.7499 2.16458Z" stroke="#575A5D" stroke-width="3"/>
</svg>
