<svg width="88" height="115" viewBox="0 0 88 115" fill="none" xmlns="http://www.w3.org/2000/svg">
<path d="M33.7002 47.1997L34.5002 36.6997L43.3002 43.5997L33.7002 47.1997Z" fill="#64CAC6"/>
<path d="M29.6001 52.0999L25.1001 42.3999L36.4001 44.9999L29.6001 52.0999Z" fill="#64CAC6"/>
<path d="M47.2002 47.3L41.2002 42.5L43.3002 35.5L49.6002 44.5L47.2002 47.3Z" fill="#64CAC6"/>
<path d="M68.9 64.7L34.2 70.9L24 63.5L30.4 47.3L41.2 42L65.8 61.5L67.8 59.7L69.5 60.7L68.9 64.7Z" fill="#64CAC6"/>
<path d="M40.9 75.9999L24 63.4999L30.4 47.3999L40.9 75.9999Z" fill="#30DCCF"/>
<path d="M52.8002 51.1997L54.3002 52.3997L40.2002 69.7997" fill="#46B9B0"/>
<path d="M40.2002 69.7996L34.7002 57.1996L52.7002 51.0996L40.2002 69.7996Z" fill="#30DCCF"/>
<path d="M40.8998 55.2L34.6998 57.3L30.2998 47.3L41.2998 42L40.8998 55.2Z" fill="#30DCCF"/>
<path d="M53.6998 49.5996L52.6998 51.1996L34.2998 57.3996" fill="#46B9B0"/>
<path d="M45.4998 52.9L41.7998 54.4L41.2998 42L46.7998 46.3L45.4998 52.9Z" fill="#30DCCF"/>
<path d="M56.3002 67.1999L52.7002 74.7999L45.2002 63.5999L54.2002 52.3999L56.3002 67.1999Z" fill="#30DCCF"/>
<path d="M25.8 58.8998L17.5 51.5998L29.1 50.2998L25.8 58.8998Z" fill="#64CAC6"/>
<path d="M55.3002 46.7L47.2002 46.3L54.7002 38.5L56.0002 45.9L55.3002 46.7Z" fill="#64CAC6"/>
<path d="M55.9001 46L53.2001 50.4L46.6001 52.4L47.1001 46.3L55.9001 46Z" fill="#30DCCF"/>
<path d="M65.7998 61.5L66.2998 61L68.7998 64.7" fill="#46B9B0"/>
<path d="M56.2998 66.9999L54.2998 52.3999L57.3998 66.7999" fill="#46B9B0"/>
<path d="M38.7999 70.0997L40.1999 69.7997L30.3999 47.1997" fill="#46B9B0"/>
<path d="M40.8999 54.9L42.2999 54.6L41.2999 42" fill="#46B9B0"/>
<path d="M47.2002 46.3L52.3002 46.1L54.6002 38.5" fill="#46B9B0"/>
<path d="M45.3999 53.1998L46.7999 52.8998V46.2998" fill="#46B9B0"/>
<path d="M25 57.9998L25.7 58.8998L30.3 47.2998" fill="#46B9B0"/>
<path d="M41.2998 41.9998L46.6998 46.1998L43.2998 35.2998" fill="#46B9B0"/>
<path d="M33.7998 45.5997L37.1998 43.8997L34.3998 36.6997" fill="#46B9B0"/>
<path d="M28.8001 50.2998L30.3001 47.1998L25.1001 42.2998" fill="#46B9B0"/>
<path d="M25.8 58.8997L27.1 54.8997L17.5 51.6997" fill="#46B9B0"/>
<path d="M34.7002 57.2997L52.7002 51.1997L52.2002 51.8997" fill="#73EEDF"/>
<path d="M30.3999 47.3L41.2999 42V42.4" fill="#73EEDF"/>
<path d="M34.5 36.6997L46.8 46.2997L46.7 46.9997" fill="#73EEDF"/>
<path d="M24 63.4998L30.4 47.2998L30.8 48.4998" fill="#73EEDF"/>
<path d="M47.2002 46.2999L56.0002 45.8999L55.7002 46.2999" fill="#73EEDF"/>
</svg>
