<svg width="88" height="115" viewBox="0 0 88 115" fill="none" xmlns="http://www.w3.org/2000/svg">
<path d="M32.5001 51L29.1001 67.2L41.0001 77.5H44.0001V51H32.5001Z" fill="#D8912B"/>
<path d="M30.0001 51L26.6001 58V63.1L29.4001 65.6L32.5001 51H30.0001Z" fill="#E19736"/>
<path d="M34.4998 76.1999L32.7998 70.3999L37.6998 74.5999L34.4998 76.1999Z" fill="#E19736"/>
<path d="M33.4 72.3999L30 72.9999L31.2 75.7999L34.5 76.1999L33.4 72.3999Z" fill="#E19736"/>
<path d="M28.2998 78.5L29.9998 73L31.1998 75.8L28.2998 78.5Z" fill="#E19736"/>
<path d="M44 46.5V47.6V51H30L27 46.5H44Z" fill="#E19736"/>
<path d="M44 46.5001V42.1001H30L27 46.5001H44Z" fill="#E19736"/>
<path d="M33 48L27 46.5H42.5L41.3 47.4L33 48Z" fill="#B76C1C"/>
<path d="M32.4001 51.7L30.1001 51H44.0001V51.7H32.4001Z" fill="#B76C1C"/>
<path d="M42.7002 42.1001L42.5002 46.5001L36.2002 50.8001V42.1001H42.7002Z" fill="#ED9B47"/>
<path d="M42.5 46.5L32.5 35.5L25.5 40.7L42.5 46.5Z" fill="#E19736"/>
<path d="M36.3002 44.3999L36.2002 50.7999L30.7002 46.4999L33.5002 43.3999L36.3002 44.3999Z" fill="#D8912B"/>
<path d="M38.8999 49H43.9999V54L38.8999 49Z" fill="#ED9B47"/>
<path d="M42.7002 42.1001L43.0002 46.7001L36.5002 51.0001L36.2002 50.8001L42.5002 46.5001L42.7002 42.1001Z" fill="#B76C1C"/>
<path d="M30.1001 51.0001L33.3001 48.6001L34.5001 49.5001L32.5001 51.0001H30.1001Z" fill="#B76C1C"/>
<path d="M25.9 41.4002L25.5 40.7002L42.3 46.5002L25.9 41.4002Z" fill="#B76C1C"/>
<path d="M36.2002 50.7999L36.5002 44.5999L36.3002 44.3999L36.2002 50.7999Z" fill="#B76C1C"/>
<path d="M43.6002 54.4998L39.2002 49.2998L44.0002 53.9998V54.9998L43.6002 54.4998Z" fill="#B76C1C"/>
<path d="M33.4 72.5999L31 74.0999L31.2 75.7999L30 72.9999L33.4 72.3999V72.5999Z" fill="#B76C1C"/>
<path d="M36.9998 74.9999L32.7998 70.3999L37.6998 74.5999L36.9998 74.9999Z" fill="#B76C1C"/>
<path d="M30.7002 46.5002L33.7002 43.8002L33.2002 43.7002L30.7002 46.5002Z" fill="#ED9B47"/>
<path d="M29.1001 67.2002L32.8001 51.7002H32.4001L29.1001 67.2002Z" fill="#ED9B47"/>
<path d="M30.1001 51L27.2001 58.2L26.6001 63.1V58L30.1001 51Z" fill="#ED9B47"/>
<path d="M30.7002 46.5L36.2002 51.4L36.5002 51L30.7002 46.5Z" fill="#B76C1C"/>
<path d="M55.5 51L58.9 67.2L47 77.5H44V51H55.5Z" fill="#D8912B"/>
<path d="M58 51L61.4 57.9V63.1L58.6 65.6L55.5 51H58Z" fill="#E19736"/>
<path d="M53.4998 76.0999L55.1998 70.3999L50.2998 74.5999L53.4998 76.0999Z" fill="#E19736"/>
<path d="M54.6 72.3999L58 72.9999L56.8 75.7999L53.5 76.0999L54.6 72.3999Z" fill="#E19736"/>
<path d="M59.6998 78.5L57.9998 73L56.7998 75.8L59.6998 78.5Z" fill="#E19736"/>
<path d="M44 46.5V47.6V51H58L61 46.5H44Z" fill="#E19736"/>
<path d="M44 46.5001V42.1001H58L61 46.5001H44Z" fill="#E19736"/>
<path d="M55 48L61 46.5H45.5L46.7 47.4L55 48Z" fill="#B76C1C"/>
<path d="M55.6 51.7L57.9 51H44V51.7H55.6Z" fill="#B76C1C"/>
<path d="M45.2998 42.1001L45.4998 46.5001L51.7998 50.8001V42.1001H45.2998Z" fill="#ED9B47"/>
<path d="M45.5 46.5L55.5 35.5L62.5 40.7L45.5 46.5Z" fill="#E19736"/>
<path d="M51.7002 44.3999L51.8002 50.7999L57.3002 46.4999L54.5002 43.3999L51.7002 44.3999Z" fill="#D8912B"/>
<path d="M49.1 49H44V54L49.1 49Z" fill="#ED9B47"/>
<path d="M45.3 42.1001L45 46.7001L51.5 51.0001L51.8 50.8001L45.5 46.5001L45.3 42.1001Z" fill="#B76C1C"/>
<path d="M57.9 51.0001L54.7 48.6001L53.5 49.5001L55.5 51.0001H57.9Z" fill="#B76C1C"/>
<path d="M62.1002 41.4002L62.5002 40.7002L45.7002 46.5002L62.1002 41.4002Z" fill="#B76C1C"/>
<path d="M51.8 50.7999L51.5 44.5999L51.7 44.3999L51.8 50.7999Z" fill="#B76C1C"/>
<path d="M44.4 54.4998L48.8 49.2998L44 53.9998V54.9998L44.4 54.4998Z" fill="#B76C1C"/>
<path d="M54.6001 72.5999L57.0001 74.0999L56.8001 75.7999L58.0001 72.9999L54.6001 72.3999V72.5999Z" fill="#B76C1C"/>
<path d="M50.9998 74.9999L55.1998 70.3999L50.2998 74.5999L50.9998 74.9999Z" fill="#B76C1C"/>
<path d="M57.2998 46.5002L54.2998 43.8002L54.7998 43.7002L57.2998 46.5002Z" fill="#ED9B47"/>
<path d="M58.9002 67.2002L55.2002 51.7002H55.6002L58.9002 67.2002Z" fill="#ED9B47"/>
<path d="M57.8999 51L60.7999 58.2L61.3999 63.1V57.9L57.8999 51Z" fill="#ED9B47"/>
<path d="M57.3 46.5L51.8 51.4L51.5 51L57.3 46.5Z" fill="#B76C1C"/>
</svg>
