<svg width="88" height="115" viewBox="0 0 88 115" fill="none" xmlns="http://www.w3.org/2000/svg">
<path d="M29.5 37.2997L31.2 38.6997H40.3L40.8 36.6997L39.8 34.1997L29.5 37.2997Z" fill="#FFDB96"/>
<path d="M51.7998 38.6997L46.8998 51.8997L39.7998 34.1997L51.7998 38.6997Z" fill="#FFDB96"/>
<path d="M42.2 41.3999L40.8 41.6999L34.5 57.1999L39.5 57.3999L46.9 51.8999L42.2 41.3999Z" fill="#FFDB96"/>
<path d="M39.4 57.8997L53.4 65.4997H44.9L34.5 57.1997L39.4 57.8997Z" fill="#FFDB96"/>
<path d="M48.5002 50.1997L58.5002 50.9997L43.7002 60.2997L48.5002 50.1997Z" fill="#FFDB96"/>
<path d="M43.2 32L51.8 38.7L39.8 34.2L29.5 37.3L43.2 32Z" fill="#EFCA75"/>
<path d="M58.5002 51L56.8002 58.8L52.7002 59.6L45.2002 61.1L43.7002 60.3L58.5002 51Z" fill="#FFDB96"/>
<path d="M53.4002 65.5001L45.7002 61.3001L52.7002 59.6001L53.4002 65.5001Z" fill="#FFDB96"/>
<path d="M45.7998 65.6001L50.1998 81.3001L53.3998 65.9001L45.7998 65.6001Z" fill="#FFDB96"/>
<path d="M43.1998 31.9997L40.0998 30.6997L36.7998 34.4997L43.1998 31.9997Z" fill="#FFDB96"/>
<path d="M37.4998 30.3999L40.0998 30.6999L36.7998 34.4999L37.4998 30.3999Z" fill="#FFDB96"/>
<path d="M29.5 37.2998L30.4 40.4998L31.2 38.6998L29.5 37.2998Z" fill="#FFDB96"/>
<path d="M47.7998 74.1001L46.4998 74.4001L42.7998 83.6001L50.1998 81.3001L47.7998 74.1001Z" fill="#FFDB96"/>
<path d="M36 80.0998C36.1 80.0998 42.2 78.0998 42.2 78.0998L44.7 77.2998L45.3 77.4998L42.9 83.4998L36 80.0998Z" fill="#FFDB96"/>
<path d="M35.6001 74.7998C35.6001 74.8998 36.0001 80.0998 36.0001 80.0998L42.8001 77.8998L35.6001 74.7998Z" fill="#FFDB96"/>
<path d="M36 74.5001L40.6 70.1001L40.8 73.1001L39.6 76.6001L36 74.5001Z" fill="#FFDB96"/>
<path d="M40.9998 70.1001L44.6998 71.5001L42.6998 72.8001L40.7998 73.1001L40.9998 70.1001Z" fill="#FFDB96"/>
<path d="M44.9002 72.1L44.6002 74.4L43.2002 73.8L42.7002 72.8L44.7002 71.5L44.9002 72.1Z" fill="#FFDB96"/>
<path d="M46.8998 51.9L40.7998 41.7L42.2998 40.5L46.8998 51.9Z" fill="#EFCA75"/>
<path d="M47.5 50.1997H48.5L43.7 60.2997L39.4 57.8997L34.5 57.1997L39.5 57.3997L47.5 50.1997Z" fill="#EFCA75"/>
<path d="M45.1001 60.9001L52.7001 59.6001L45.7001 61.3001L45.1001 60.9001Z" fill="#EFCA75"/>
<path d="M51.8 38.6997L48.5 50.1997H47.5L51.8 38.6997Z" fill="#EFCA75"/>
<path d="M39.7998 34.1997L40.2998 38.6997L41.4998 38.3997L39.7998 34.1997Z" fill="#EFCA75"/>
<path d="M40.0998 30.6997L36.7998 34.4997L40.3998 30.7997L40.0998 30.6997Z" fill="#EFCA75"/>
<path d="M37.4998 30.3999L36.7998 30.6999V34.4999L37.4998 30.3999Z" fill="#EFCA75"/>
<path d="M44.8999 65.5H53.3999V65.9L44.8999 65.5Z" fill="#EFCA75"/>
<path d="M47.7998 74.1L48.0998 74L50.1998 81.3L47.7998 74.1Z" fill="#EFCA75"/>
<path d="M45.2002 77.5L41.7002 83L42.8002 83.6L45.2002 77.5Z" fill="#EFCA75"/>
<path d="M42.8 77.8999L36 79.3999L36.1 80.0999L42.8 77.8999Z" fill="#EFCA75"/>
<path d="M39.6001 76.6L36.0001 74.5L35.6001 74.8L39.6001 76.6Z" fill="#EFCA75"/>
<path d="M41.0001 70.1001L40.8001 73.1001L40.6001 70.1001H41.0001Z" fill="#EFCA75"/>
<path d="M44.2002 71.2998L42.7002 72.7998L44.7002 71.4998L44.2002 71.2998Z" fill="#EFCA75"/>
<path d="M32.1 38.6998L29.5 37.2998L31.2 38.6998H32.1Z" fill="#EFCA75"/>
<path d="M53.3999 65.4999L39.3999 57.8999L41.4999 57.9999L53.3999 65.4999Z" fill="#EFCA75"/>
<path d="M51.5998 39.2997L51.7998 38.6997L39.7998 34.1997L51.5998 39.2997Z" fill="#FFE1BB"/>
<path d="M39.9 35.2997L29.8 37.4997L30.3 40.2997L29.5 37.2997L39.8 34.1997L39.9 35.2997Z" fill="#FFE1BB"/>
<path d="M41.5 42.8997L34.5 57.1997L40.8 41.6997L41.5 42.8997Z" fill="#FFE1BB"/>
<path d="M45.1001 60.3L58.5001 51L49.4001 56.6L45.1001 60.3Z" fill="#FFE1BB"/>
<path d="M47.1998 65.7001L50.1998 81.3001L45.7998 65.6001L47.1998 65.7001Z" fill="#FFE1BB"/>
<path d="M46.4998 74.3999L43.8998 83.1999L42.7998 83.5999L46.4998 74.3999Z" fill="#FFE1BB"/>
<path d="M44.7001 77.2998L37.1001 80.6998L36.1001 80.0998L44.7001 77.2998Z" fill="#FFE1BB"/>
<path d="M35.7001 75.4998L42.8001 77.8998L35.6001 74.7998L35.7001 75.4998Z" fill="#FFE1BB"/>
<path d="M40.6 70.4001L36.6 74.9001L36 74.5001L40.6 70.1001V70.4001Z" fill="#FFE1BB"/>
<path d="M41 70.4001L44.2 71.3001L41 70.1001V70.4001Z" fill="#FFE1BB"/>
<path d="M44.6001 74.3998L43.2001 73.7998L41.1001 74.6998L44.6001 74.3998Z" fill="#FFE1BB"/>
<path d="M58.5002 50.9999L48.6002 49.3999L48.2002 50.2999L58.5002 50.9999Z" fill="#EFCA75"/>
</svg>
